<?xml version="1.0" encoding="utf-8"?>
<!-- Generator: Adobe Illustrator 21.1.0, SVG Export Plug-In . SVG Version: 6.00 Build 0)  -->
<svg version="1.1" xmlns="http://www.w3.org/2000/svg" xmlns:xlink="http://www.w3.org/1999/xlink" x="0px" y="0px"
	 viewBox="0 0 69 18" style="enable-background:new 0 0 69 18;" xml:space="preserve">
<style type="text/css">
	.closeAd-fill{fill:#FFFFFF;}
	.closeAd-stroke{fill-rule:evenodd;clip-rule:evenodd;fill:none;stroke:#FFFFFF;stroke-miterlimit:10;}
</style>
<path class="closeAd-fill" d="M7.7,10.95c-0.62,0.38-1.35,0.56-2.19,0.56c-0.91,0-1.65-0.3-2.21-0.91S2.47,9.18,2.47,8.16
	c0-1.08,0.3-1.94,0.9-2.58S4.75,4.6,5.71,4.6c0.73,0,1.39,0.17,1.99,0.5V4.06C7.18,3.83,6.52,3.71,5.72,3.71
	c-1.24,0-2.27,0.41-3.08,1.24S1.43,6.87,1.43,8.21c0,1.25,0.36,2.26,1.08,3.03c0.72,0.77,1.68,1.15,2.87,1.15
	c0.93,0,1.7-0.16,2.32-0.49V10.95z"/>
<path class="closeAd-fill" d="M9.82,3.37H8.86v8.88h0.96V3.37z"/>
<path class="closeAd-fill" d="M16.54,11.53c0.54-0.58,0.81-1.34,0.81-2.3c0-0.98-0.25-1.74-0.75-2.29c-0.5-0.55-1.2-0.83-2.09-0.83
	c-0.94,0-1.68,0.28-2.23,0.85c-0.55,0.57-0.83,1.35-0.83,2.36c0,0.93,0.26,1.67,0.79,2.23c0.53,0.56,1.24,0.84,2.12,0.84
	C15.27,12.4,16,12.11,16.54,11.53z M15.87,7.53c0.33,0.41,0.5,0.98,0.5,1.73c0,0.74-0.17,1.31-0.5,1.72c-0.33,0.4-0.81,0.6-1.43,0.6
	c-0.61,0-1.1-0.21-1.46-0.62c-0.36-0.41-0.54-0.97-0.54-1.68c0-0.74,0.18-1.32,0.54-1.74s0.85-0.63,1.46-0.63
	C15.06,6.92,15.53,7.13,15.87,7.53z"/>
<path class="closeAd-fill" d="M20.1,12.4c0.31,0,0.61-0.04,0.9-0.11c0.29-0.07,0.54-0.18,0.76-0.32c0.22-0.14,0.39-0.33,0.52-0.54
	c0.13-0.22,0.2-0.48,0.2-0.77c0-0.24-0.04-0.45-0.12-0.63c-0.08-0.18-0.19-0.33-0.34-0.47c-0.15-0.13-0.33-0.26-0.54-0.36
	c-0.21-0.11-0.45-0.21-0.71-0.31c-0.2-0.08-0.38-0.15-0.53-0.22c-0.16-0.07-0.29-0.14-0.4-0.22c-0.11-0.08-0.19-0.18-0.25-0.28
	c-0.06-0.11-0.08-0.24-0.08-0.39c0-0.13,0.03-0.24,0.08-0.34c0.06-0.1,0.14-0.19,0.24-0.27c0.1-0.07,0.23-0.13,0.37-0.17
	c0.14-0.04,0.31-0.06,0.49-0.06c0.57,0,1.08,0.14,1.52,0.43V6.39c-0.41-0.18-0.88-0.27-1.39-0.27c-0.29,0-0.58,0.04-0.85,0.11
	c-0.28,0.07-0.52,0.18-0.74,0.33C19,6.71,18.83,6.89,18.7,7.1c-0.13,0.22-0.19,0.47-0.19,0.75c0,0.23,0.03,0.43,0.1,0.6
	c0.07,0.17,0.17,0.33,0.3,0.46c0.13,0.13,0.3,0.26,0.5,0.36c0.2,0.11,0.43,0.21,0.7,0.32c0.19,0.07,0.37,0.15,0.54,0.21
	c0.17,0.07,0.31,0.15,0.43,0.23c0.12,0.09,0.22,0.18,0.29,0.3c0.07,0.11,0.11,0.25,0.11,0.41c0,0.56-0.42,0.84-1.27,0.84
	c-0.63,0-1.21-0.19-1.73-0.58v1.03C18.95,12.28,19.48,12.4,20.1,12.4L20.1,12.4z"/>
<path class="closeAd-fill" d="M28.68,8.99c0-0.9-0.21-1.61-0.64-2.12C27.6,6.37,27,6.12,26.21,6.12c-0.79,0-1.44,0.29-1.97,0.88
	c-0.53,0.59-0.79,1.35-0.79,2.28c0,0.99,0.24,1.75,0.73,2.3c0.48,0.54,1.15,0.82,2,0.82c0.87,0,1.56-0.19,2.09-0.57v-0.9
	c-0.57,0.45-1.19,0.67-1.86,0.67c-0.6,0-1.07-0.18-1.42-0.55c-0.34-0.36-0.52-0.88-0.54-1.55h4.24V8.99z M24.45,8.68
	c0.07-0.52,0.27-0.95,0.59-1.27c0.32-0.32,0.7-0.49,1.15-0.49c0.47,0,0.84,0.15,1.1,0.46c0.26,0.31,0.4,0.74,0.4,1.29H24.45z"/>
<path class="closeAd-fill" d="M36.25,3.85h-1.02l-3.22,8.4h1.1l0.84-2.36h3.56l0.89,2.36h1.09L36.25,3.85z M34.27,9.02l1.31-3.58
	c0.05-0.14,0.1-0.32,0.13-0.56h0.02c0.04,0.26,0.09,0.45,0.13,0.56l1.32,3.58H34.27z"/>
<path class="closeAd-fill" d="M45.98,3.37h-0.96v3.71h-0.02c-0.38-0.65-0.97-0.97-1.8-0.97c-0.83,0-1.5,0.3-2,0.9
	c-0.5,0.6-0.75,1.39-0.75,2.38c0,0.93,0.23,1.66,0.68,2.19c0.45,0.54,1.05,0.81,1.81,0.81c0.93,0,1.62-0.39,2.06-1.16h0.02v1.02
	h0.96V3.37z M44.52,11.01c-0.33,0.39-0.77,0.58-1.3,0.58c-0.54,0-0.98-0.2-1.3-0.6c-0.32-0.4-0.48-0.95-0.48-1.64
	c0-0.76,0.17-1.35,0.5-1.78c0.34-0.43,0.8-0.64,1.38-0.64c0.49,0,0.9,0.17,1.22,0.5c0.32,0.34,0.48,0.75,0.48,1.23v0.88
	C45.02,10.13,44.85,10.62,44.52,11.01z"/>
<path class="closeAd-fill" d="M61.78,8.16l2.42-3.82h-1.04l-1.64,2.69c-0.09,0.14-0.19,0.32-0.3,0.56H61.2c-0.08-0.18-0.17-0.36-0.27-0.54
	l-1.57-2.71h-1.11l2.37,3.83l-2.58,3.87h1.11l1.83-2.95c0.09-0.17,0.15-0.3,0.18-0.38h0.02c0.06,0.16,0.12,0.29,0.18,0.38l1.77,2.95
	h1.1L61.78,8.16z"/>
<rect x="54" y="1" class="closeAd-stroke" width="14" height="14"/>
</svg>
