<?xml version="1.0" encoding="utf-8"?>
<!-- Generator: Adobe Illustrator 22.0.1, SVG Export Plug-In . SVG Version: 6.00 Build 0)  -->
<svg version="1.1" id="Layer_1" xmlns="http://www.w3.org/2000/svg" xmlns:xlink="http://www.w3.org/1999/xlink" x="0px" y="0px"
	 viewBox="0 0 160 600" style="enable-background:new 0 0 160 600;" xml:space="preserve">
<style type="text/css">
	.st9{fill:#1A73E8;}
	.st1{fill:#FFFFFF;}
</style>
<g id="cta">
	<path id="ctaShape" class="st9" d="M128.6,570H31.4c-0.8,0-1.4-0.6-1.4-1.4v-28.3c0-0.8,0.6-1.4,1.4-1.4h97.3
		c0.8,0,1.4,0.6,1.4,1.4v28.3C130,569.4,129.4,570,128.6,570z"/>
	<g id="ctaCopy">
		<path class="st1" d="M58.7,557.9c-0.7-0.4-1.2-0.9-1.6-1.6c-0.4-0.7-0.6-1.4-0.6-2.3s0.2-1.6,0.6-2.3c0.4-0.7,0.9-1.2,1.6-1.6
			c0.7-0.4,1.4-0.6,2.3-0.6c0.6,0,1.2,0.1,1.8,0.4c0.5,0.2,1,0.6,1.4,1l-1,0.9c-0.3-0.4-0.6-0.6-1-0.8c-0.4-0.2-0.8-0.3-1.2-0.3
			c-0.6,0-1.1,0.1-1.6,0.4c-0.5,0.3-0.9,0.6-1.1,1.1c-0.3,0.5-0.4,1-0.4,1.7s0.1,1.2,0.4,1.7c0.3,0.5,0.7,0.9,1.1,1.1
			c0.5,0.3,1,0.4,1.6,0.4c1,0,1.8-0.4,2.4-1.2l1,0.9c-0.4,0.5-0.9,0.9-1.5,1.1c-0.6,0.3-1.2,0.4-1.9,0.4
			C60.1,558.5,59.3,558.3,58.7,557.9z"/>
		<path class="st1" d="M66.1,558.2c-0.3-0.2-0.6-0.4-0.8-0.7s-0.3-0.7-0.3-1.1c0-0.6,0.2-1.1,0.7-1.5s1.1-0.6,1.8-0.6
			c0.4,0,0.7,0,1,0.1c0.3,0.1,0.5,0.1,0.7,0.2v-0.3c0-0.4-0.1-0.7-0.4-0.9c-0.3-0.2-0.6-0.4-1.1-0.4c-0.3,0-0.6,0.1-0.9,0.2
			c-0.3,0.1-0.5,0.3-0.7,0.6l-0.9-0.7c0.3-0.4,0.6-0.7,1.1-0.9c0.4-0.2,0.9-0.3,1.4-0.3c0.9,0,1.6,0.2,2.1,0.7
			c0.5,0.4,0.7,1,0.7,1.8v3.8h-1.3v-0.7h-0.1c-0.2,0.3-0.4,0.5-0.7,0.7s-0.7,0.3-1.1,0.3C66.9,558.5,66.5,558.4,66.1,558.2z
			 M68.4,557.2c0.3-0.2,0.5-0.4,0.6-0.6c0.1-0.3,0.2-0.5,0.2-0.8c-0.2-0.1-0.4-0.2-0.6-0.3c-0.2-0.1-0.5-0.1-0.8-0.1
			c-0.5,0-0.9,0.1-1.1,0.3c-0.2,0.2-0.3,0.5-0.3,0.8c0,0.3,0.1,0.5,0.3,0.7c0.2,0.2,0.5,0.3,0.8,0.3
			C67.9,557.4,68.2,557.3,68.4,557.2z"/>
		<path class="st1" d="M72,549.7h1.3v8.6H72V549.7z"/>
		<path class="st1" d="M74.8,549.7h1.3v8.6h-1.3V549.7z"/>
		<path class="st1" d="M80.5,552.2h1.3v0.8h0.1c0.2-0.3,0.4-0.5,0.8-0.7c0.3-0.2,0.7-0.3,1.1-0.3c0.7,0,1.3,0.2,1.7,0.7
			c0.4,0.4,0.6,1,0.6,1.8v3.9h-1.3v-3.7c0-0.5-0.1-0.8-0.4-1.1s-0.6-0.3-1-0.3c-0.3,0-0.6,0.1-0.8,0.2c-0.2,0.2-0.4,0.4-0.5,0.7
			c-0.1,0.3-0.2,0.6-0.2,0.9v3.3h-1.3V552.2z"/>
		<path class="st1" d="M88.7,558.1c-0.5-0.3-0.9-0.7-1.1-1.2c-0.3-0.5-0.4-1-0.4-1.7c0-0.6,0.1-1.2,0.4-1.7c0.3-0.5,0.7-0.9,1.1-1.2
			c0.5-0.3,1-0.4,1.7-0.4s1.2,0.1,1.7,0.4s0.9,0.7,1.1,1.2c0.3,0.5,0.4,1,0.4,1.6c0,0.6-0.1,1.2-0.4,1.7c-0.3,0.5-0.7,0.9-1.1,1.2
			c-0.5,0.3-1,0.4-1.7,0.4S89.2,558.4,88.7,558.1z M91.3,557c0.3-0.2,0.5-0.4,0.7-0.7c0.2-0.3,0.3-0.7,0.3-1.1s-0.1-0.8-0.3-1.1
			c-0.2-0.3-0.4-0.5-0.7-0.7s-0.6-0.2-0.9-0.2s-0.6,0.1-0.9,0.2s-0.5,0.4-0.7,0.7c-0.2,0.3-0.3,0.7-0.3,1.1s0.1,0.8,0.3,1.1
			c0.2,0.3,0.4,0.5,0.7,0.7s0.6,0.2,0.9,0.2S91,557.2,91.3,557z"/>
		<path class="st1" d="M94,552.2h1.4l1.2,4.4h0l1.4-4.4h1.4l1.4,4.4h0l1.2-4.4h1.4l-2,6.1h-1.4l-1.4-4.4h0l-1.4,4.4h-1.4L94,552.2z"
			/>
	</g>
</g>
</svg>
