<?xml version="1.0" encoding="utf-8"?>
<!-- Generator: Adobe Illustrator 22.0.1, SVG Export Plug-In . SVG Version: 6.00 Build 0)  -->
<svg version="1.1" xmlns="http://www.w3.org/2000/svg" xmlns:xlink="http://www.w3.org/1999/xlink" x="0px" y="0px"
	 viewBox="0 0 160 600" enable-background="new 0 0 160 600" xml:space="preserve">
<g id="logo">
	<g>
		<path fill="#5F6368" d="M97.9,85.9V71.4h4.4c2.2,0,4,0.7,5.3,2c1.3,1.3,2,3.1,2,5.2c0,2.2-0.7,3.9-2,5.2c-1.3,1.3-3.1,2-5.3,2
			H97.9z M99.7,73.2v10.9h2.6c1.7,0,3-0.5,4-1.4c1-1,1.5-2.3,1.5-4c0-1.7-0.5-3-1.5-4s-2.3-1.5-4-1.5H99.7z"/>
		<path fill="#5F6368" d="M120.2,85.9h-1.8v-1.4h-0.1c-0.3,0.5-0.7,0.9-1.3,1.2c-0.6,0.3-1.2,0.5-1.8,0.5c-1.2,0-2.1-0.3-2.8-1
			c-0.7-0.7-1-1.7-1-3V76h1.9v6.1c0,1.6,0.9,2.4,2.4,2.4c0.7,0,1.4-0.3,1.9-0.9c0.5-0.6,0.7-1.3,0.7-2.2V76h1.9V85.9z"/>
		<path fill="#5F6368" d="M121.8,80.9c0-1.5,0.5-2.8,1.4-3.8c1-1,2.2-1.5,3.7-1.5c1.5,0,2.7,0.5,3.6,1.5c1,1,1.5,2.3,1.5,3.8
			c0,1.5-0.5,2.8-1.5,3.8c-1,1-2.2,1.5-3.6,1.5c-1.5,0-2.7-0.5-3.7-1.5C122.3,83.7,121.8,82.4,121.8,80.9z M123.7,80.9
			c0,1.1,0.3,1.9,0.9,2.6c0.6,0.7,1.4,1,2.3,1c0.9,0,1.7-0.3,2.3-1c0.6-0.7,0.9-1.5,0.9-2.6c0-1.1-0.3-1.9-0.9-2.6
			c-0.6-0.7-1.4-1-2.3-1c-0.9,0-1.7,0.3-2.3,1C124,79,123.7,79.9,123.7,80.9z"/>
	</g>
	<path fill="#5F6368" d="M35.5,79.5v-2.2H43c0.1,0.4,0.1,0.9,0.1,1.4c0,1.7-0.5,3.8-1.9,5.2c-1.4,1.5-3.3,2.3-5.7,2.3
		c-4.5,0-8.3-3.7-8.3-8.2c0-4.5,3.8-8.2,8.3-8.2c2.5,0,4.3,1,5.6,2.3l-1.6,1.6c-1-0.9-2.3-1.6-4-1.6c-3.3,0-5.9,2.7-5.9,6
		c0,3.3,2.6,6,5.9,6c2.1,0,3.4-0.9,4.1-1.6c0.6-0.6,1.1-1.5,1.2-2.8L35.5,79.5z"/>
	<path fill="#5F6368" d="M54.6,80.9c0,3-2.4,5.3-5.3,5.3c-2.9,0-5.3-2.2-5.3-5.3c0-3.1,2.4-5.3,5.3-5.3
		C52.2,75.6,54.6,77.9,54.6,80.9z M52.2,80.9c0-1.9-1.4-3.2-3-3.2c-1.6,0-3,1.3-3,3.2c0,1.9,1.4,3.2,3,3.2
		C50.9,84.1,52.2,82.8,52.2,80.9z"/>
	<path fill="#5F6368" d="M65.9,80.9c0,3-2.4,5.3-5.3,5.3c-2.9,0-5.3-2.2-5.3-5.3c0-3.1,2.4-5.3,5.3-5.3
		C63.6,75.6,65.9,77.9,65.9,80.9z M63.6,80.9c0-1.9-1.4-3.2-3-3.2c-1.6,0-3,1.3-3,3.2c0,1.9,1.4,3.2,3,3.2
		C62.3,84.1,63.6,82.8,63.6,80.9z"/>
	<path fill="#5F6368" d="M76.9,76v9.5c0,3.9-2.3,5.5-5,5.5c-2.6,0-4.1-1.7-4.7-3.1l2-0.8c0.4,0.9,1.2,1.9,2.7,1.9
		c1.7,0,2.8-1.1,2.8-3.1V85h-0.1c-0.5,0.6-1.5,1.2-2.8,1.2c-2.6,0-5.1-2.3-5.1-5.3c0-3,2.4-5.3,5.1-5.3c1.3,0,2.3,0.6,2.8,1.2h0.1
		V76H76.9z M74.8,80.9c0-1.9-1.2-3.2-2.8-3.2c-1.6,0-2.9,1.4-2.9,3.2c0,1.8,1.3,3.2,2.9,3.2C73.6,84.1,74.8,82.8,74.8,80.9z"/>
	<path fill="#5F6368" d="M80.8,70.4v15.4h-2.3V70.4H80.8z"/>
	<path fill="#5F6368" d="M89.6,82.7l1.8,1.2c-0.6,0.9-2,2.3-4.4,2.3c-3,0-5.2-2.3-5.2-5.3c0-3.1,2.3-5.3,5-5.3
		c2.7,0,4.1,2.2,4.5,3.4l0.2,0.6l-7.1,2.9c0.5,1.1,1.4,1.6,2.6,1.6C88.2,84.1,89,83.5,89.6,82.7z M84,80.8l4.7-2
		c-0.3-0.7-1-1.1-2-1.1C85.6,77.7,84,78.7,84,80.8z"/>
	<g id="Art">
		<g>
			<path id="Teardrop" fill="#1A73E8" d="M95.1,46.1c-0.4,8.2-7.2,14.6-15.5,14.6c-8.5,0-15.5-6.9-15.5-15.5s6.9-15.5,15.5-15.5l0,0
				l0,0h13c1.3,0,2.5,1.1,2.5,2.5V46.1z"/>
		</g>
		<path id="Highlight" opacity="0.2" fill="#FFFFFF" enable-background="new    " d="M92.6,29.8h-13l0,0c-8.5,0-15.5,6.9-15.5,15.4
			c0,0,0,0,0,0c0-8.5,6.9-15.3,15.5-15.3l0,0h13c1.3,0,2.5,1.1,2.5,2.5v-0.2C95.1,30.9,94,29.8,92.6,29.8z"/>
		<g id="Shadow">
			<g>
				<path fill="#1A237E" fill-opacity="0.2" d="M95.1,46.1v-0.4c-0.4,8.2-7.2,14.8-15.5,14.8c-8.5,0-15.4-7-15.5-15.5
					c0,0,0,0.1,0,0.2c0,8.5,6.9,15.5,15.5,15.5c8.4,0,15.1-6.4,15.5-14.8"/>
			</g>
		</g>
		<path id="Camera_Body_Shadow" fill="#185ABC" d="M85.9,48.2c0,1.5-1.2,2.5-2.6,2.5h-8.8c-1.5,0-2.6-1-2.6-2.4v0.9
			c0,1.5,1.2,2.6,2.6,2.6h8.8c1.5,0,2.6-1.1,2.6-2.6L85.9,48.2L85.9,48.2z"/>
		<path id="Camera_Lens_Shadow" fill="#185ABC" d="M90.1,48.9c0,0.4-0.6,0.7-0.9,0.4l-3.3-3.3l0,0.9l3.3,3.3
			c0.4,0.3,0.9,0.1,0.9-0.4V48.9z"/>
		<g id="Camera">
			<path id="lens" fill="#F1F3F4" d="M89.3,40.5l-3.3,3.3v2.1l3.3,3.3c0.3,0.3,0.9,0.1,0.9-0.4l0-8.1C90.1,40.4,89.6,40.2,89.3,40.5
				z"/>
			<path id="body" fill="#FFFFFF" d="M83.3,38.9h-8.8c-1.5,0-2.6,1.2-2.6,2.6v6.7c0,1.5,1.2,2.6,2.6,2.6l8.8,0
				c1.5,0,2.6-1.2,2.6-2.6l0-6.7C85.9,40.1,84.8,38.9,83.3,38.9z"/>
			<g id="inner_shadow__x28_clipped_to_lens_x29_">
				<polygon id="inner_shadow" fill="#BDC1C6" points="85.9,46.1 85.9,45.9 86.6,46.6 86.6,43.1 85.9,43.8 				"/>
			</g>
		</g>
	</g>
</g>
</svg>
