<?xml version="1.0" encoding="utf-8"?>
<!-- Generator: Adobe Illustrator 22.1.0, SVG Export Plug-In . SVG Version: 6.00 Build 0)  -->
<svg version="1.1" id="Layer_1" xmlns="http://www.w3.org/2000/svg" xmlns:xlink="http://www.w3.org/1999/xlink" x="0px" y="0px"
	 viewBox="0 0 300 250" style="enable-background:new 0 0 300 250;" xml:space="preserve">
<style type="text/css">
	.st5{fill:#4B4B4B;}
</style>
<g id="copy">
	<g id="copy01_ln01">
		<path class="st5" d="M25.0581,74.3214h1.2736v-9.525h2.9969v-1.215h-7.2824v1.215h3.0119V74.3214z"/>
		<path class="st5" d="M31.1969,65.2764c0.2597,0,0.4769-0.09,0.6518-0.27c0.1747-0.18,0.2623-0.3949,0.2623-0.645
			c0-0.2498-0.0899-0.4624-0.2697-0.6375c-0.1799-0.1748-0.3948-0.2625-0.6444-0.2625c-0.2498,0-0.4645,0.0877-0.6443,0.2625
			c-0.1798,0.1751-0.2697,0.3877-0.2697,0.6375c0,0.2501,0.0899,0.465,0.2697,0.645S30.9471,65.2764,31.1969,65.2764
			L31.1969,65.2764z M30.5676,74.3214h1.2587v-7.65h-1.2587V74.3214z"/>
		<path class="st5" d="M36.1882,74.5614c0.5593,0,1.0688-0.0951,1.5284-0.285c0.4593-0.1898,0.8241-0.4624,1.0938-0.8175
			c0.2697-0.3548,0.4046-0.7673,0.4046-1.2375c0-0.54-0.1899-0.9975-0.5694-1.3725c-0.3798-0.375-0.944-0.6574-1.6932-0.8475
			l-1.1089-0.285c-0.4397-0.1099-0.7693-0.2524-0.9889-0.4275c-0.2199-0.1748-0.3297-0.4024-0.3297-0.6825
			c0-0.3,0.1573-0.5475,0.472-0.7425s0.6818-0.2925,1.1014-0.2925c0.8691,0,1.4733,0.3401,1.8131,1.02l1.1088-0.51
			c-0.2198-0.5198-0.5919-0.9248-1.1163-1.215c-0.5245-0.2899-1.1215-0.435-1.7907-0.435c-0.5094,0-0.984,0.09-1.4235,0.27
			c-0.4397,0.18-0.7918,0.4376-1.0564,0.7725c-0.2648,0.3352-0.397,0.7226-0.397,1.1625c0,0.57,0.1948,1.035,0.5843,1.395
			c0.3896,0.36,0.889,0.615,1.4985,0.765l0.929,0.24c0.5792,0.1402,1.004,0.3075,1.2737,0.5025s0.4045,0.4526,0.4045,0.7725
			c0,0.36-0.1699,0.6375-0.5094,0.8325c-0.3397,0.195-0.7492,0.2925-1.2287,0.2925c-0.4496,0-0.8616-0.1249-1.2362-0.375
			c-0.3746-0.2498-0.657-0.6049-0.8467-1.065l-1.1388,0.51c0.2297,0.6,0.6193,1.0927,1.1688,1.4775
			C34.6846,74.3688,35.3689,74.5614,36.1882,74.5614L36.1882,74.5614z"/>
		<path class="st5" d="M46.7219,74.5614c0.2398,0,0.4369-0.015,0.5919-0.045c0.1548-0.03,0.3072-0.0801,0.457-0.15v-1.245
			c-0.2697,0.1702-0.5495,0.255-0.8391,0.255c-0.3596,0-0.6345-0.1122-0.8241-0.3372c-0.1599-0.2044-0.2398-0.5213-0.2398-0.9507
			v-4.2621h1.8581v-1.155h-1.8581v-2.16h-1.2736v2.16h-1.3336v1.155h1.3336v4.5664c0,0.3665,0.0498,0.6771,0.1498,0.9316
			c0.0997,0.2545,0.2496,0.4786,0.4495,0.672c0.1798,0.1732,0.402,0.3107,0.6668,0.4125
			C46.1249,74.5103,46.4122,74.5614,46.7219,74.5614L46.7219,74.5614z"/>
		<path class="st5" d="M48.8242,74.3214h1.2737v-4.26c0-0.4099,0.0974-0.8048,0.2922-1.185c0.1948-0.3799,0.4593-0.69,0.7941-0.93
			c0.3346-0.24,0.7017-0.36,1.1014-0.36c0.5593,0,1.0138,0.165,1.3635,0.495c0.3496,0.33,0.5245,0.84,0.5245,1.53v4.71h1.2737
			v-4.905c0-0.9-0.2449-1.6223-0.7343-2.1675c-0.4895-0.5449-1.1987-0.8175-2.1277-0.8175c-0.5395,0-1.0365,0.1301-1.491,0.39
			c-0.4547,0.2602-0.7867,0.585-0.9964,0.975h-0.06l0.06-1.05v-3.165h-1.2737V74.3214z"/>
		<path class="st5" d="M60.449,74.5614c0.799,0,1.4808-0.18,2.0453-0.54c0.5643-0.36,1.0115-0.8498,1.3411-1.47l-1.0789-0.525
			c-0.5296,0.9202-1.2837,1.38-2.2626,1.38c-0.4195,0-0.8218-0.0998-1.2062-0.3c-0.3847-0.1999-0.7019-0.4999-0.9515-0.9
			c-0.2498-0.3998-0.3896-0.8899-0.4196-1.47h6.0387c0.03-0.1099,0.0449-0.24,0.0449-0.39c0-0.7598-0.1475-1.4348-0.442-2.025
			c-0.2948-0.5899-0.7169-1.0523-1.2662-1.3875c-0.5495-0.3349-1.1987-0.5025-1.9479-0.5025c-0.7394,0-1.3887,0.1852-1.948,0.555
			c-0.5596,0.3701-0.9915,0.8651-1.2961,1.485c-0.3049,0.6202-0.4571,1.3001-0.4571,2.04c0,0.7702,0.1623,1.4625,0.487,2.0775
			c0.3245,0.615,0.7766,1.0976,1.3561,1.4475C59.0652,74.3864,59.7196,74.5614,60.449,74.5614L60.449,74.5614z M57.9915,69.6864
			c0.1297-0.63,0.402-1.1374,0.8167-1.5225c0.4144-0.3848,0.9215-0.5775,1.5209-0.5775c0.5193,0,0.9515,0.1102,1.2961,0.33
			c0.3447,0.2201,0.5968,0.4901,0.7567,0.81c0.1597,0.3202,0.2496,0.6401,0.2698,0.96H57.9915z"/>
		<path class="st5" d="M71.3273,74.5614c0.5593,0,1.0688-0.0951,1.5284-0.285c0.4594-0.1898,0.8241-0.4624,1.0939-0.8175
			c0.2697-0.3548,0.4045-0.7673,0.4045-1.2375c0-0.54-0.1898-0.9975-0.5694-1.3725c-0.3797-0.375-0.944-0.6574-1.6932-0.8475
			l-1.1088-0.285c-0.4397-0.1099-0.7694-0.2524-0.989-0.4275c-0.2198-0.1748-0.3296-0.4024-0.3296-0.6825
			c0-0.3,0.1573-0.5475,0.472-0.7425c0.3146-0.195,0.6817-0.2925,1.1013-0.2925c0.8691,0,1.4734,0.3401,1.8131,1.02l1.1088-0.51
			c-0.2198-0.5198-0.5918-0.9248-1.1163-1.215c-0.5244-0.2899-1.1215-0.435-1.7906-0.435c-0.5095,0-0.9841,0.09-1.4235,0.27
			c-0.4397,0.18-0.7918,0.4376-1.0564,0.7725c-0.2648,0.3352-0.3971,0.7226-0.3971,1.1625c0,0.57,0.1948,1.035,0.5844,1.395
			c0.3896,0.36,0.889,0.615,1.4984,0.765l0.929,0.24c0.5793,0.1402,1.004,0.3075,1.2737,0.5025s0.4046,0.4526,0.4046,0.7725
			c0,0.36-0.17,0.6375-0.5095,0.8325c-0.3397,0.195-0.7492,0.2925-1.2287,0.2925c-0.4495,0-0.8616-0.1249-1.2362-0.375
			c-0.3746-0.2498-0.657-0.6049-0.8466-1.065l-1.1388,0.51c0.2297,0.6,0.6193,1.0927,1.1688,1.4775
			C69.8237,74.3688,70.5081,74.5614,71.3273,74.5614L71.3273,74.5614z"/>
		<path class="st5" d="M78.8883,74.5614c0.7991,0,1.4809-0.18,2.0453-0.54c0.5643-0.36,1.0115-0.8498,1.3411-1.47l-1.0788-0.525
			c-0.5296,0.9202-1.2838,1.38-2.2627,1.38c-0.4195,0-0.8218-0.0998-1.2062-0.3c-0.3847-0.1999-0.7019-0.4999-0.9515-0.9
			c-0.2498-0.3998-0.3896-0.8899-0.4196-1.47h6.0387c0.03-0.1099,0.045-0.24,0.045-0.39c0-0.7598-0.1475-1.4348-0.4421-2.025
			c-0.2947-0.5899-0.7169-1.0523-1.2661-1.3875c-0.5496-0.3349-1.1988-0.5025-1.948-0.5025c-0.7394,0-1.3886,0.1852-1.948,0.555
			c-0.5595,0.3701-0.9915,0.8651-1.2961,1.485c-0.3049,0.6202-0.457,1.3001-0.457,2.04c0,0.7702,0.1622,1.4625,0.487,2.0775
			c0.3245,0.615,0.7766,1.0976,1.356,1.4475C77.5046,74.3864,78.159,74.5614,78.8883,74.5614L78.8883,74.5614z M76.4309,69.6864
			c0.1297-0.63,0.402-1.1374,0.8166-1.5225c0.4144-0.3848,0.9215-0.5775,1.5209-0.5775c0.5193,0,0.9515,0.1102,1.2961,0.33
			c0.3447,0.2201,0.5968,0.4901,0.7568,0.81c0.1596,0.3202,0.2495,0.6401,0.2697,0.96H76.4309z"/>
		<path class="st5" d="M86.0596,74.5614c0.5493,0,1.0437-0.13,1.4834-0.39c0.4395-0.2599,0.7692-0.5749,0.989-0.945h0.0599v1.095
			h1.2138v-4.845c0-0.9398-0.2974-1.6823-0.8916-2.2275c-0.5945-0.5449-1.4111-0.8175-2.4499-0.8175
			c-0.6394,0-1.2213,0.1301-1.7457,0.39c-0.5245,0.2602-0.9365,0.6202-1.2362,1.08l0.959,0.72
			c0.2098-0.33,0.4945-0.5873,0.8541-0.7725c0.3596-0.1849,0.7541-0.2775,1.1838-0.2775c0.6092,0,1.1137,0.1725,1.5134,0.5175
			c0.3994,0.345,0.5993,0.8025,0.5993,1.3725v0.465c-0.2097-0.1298-0.512-0.2449-0.9065-0.345
			c-0.3948-0.0998-0.8218-0.15-1.2812-0.15c-0.929,0-1.6983,0.2276-2.3076,0.6825c-0.6094,0.4552-0.914,1.0875-0.914,1.8975
			c0,0.4901,0.1199,0.9277,0.3596,1.3125c0.2398,0.3851,0.5793,0.6877,1.019,0.9075C85.0006,74.4513,85.5,74.5614,86.0596,74.5614
			L86.0596,74.5614z M86.1795,73.4364c-0.4896,0-0.8942-0.1298-1.2138-0.39c-0.3198-0.2599-0.4795-0.6-0.4795-1.02
			c0-0.4598,0.1773-0.8348,0.532-1.125c0.3545-0.2899,0.8815-0.435,1.5808-0.435c0.3896,0,0.7591,0.0502,1.1089,0.15
			c0.3495,0.1001,0.6443,0.2302,0.884,0.39c0,0.4402-0.11,0.8452-0.3296,1.215c-0.2199,0.3701-0.5146,0.6652-0.8841,0.885
			C87.0085,73.3265,86.6089,73.4364,86.1795,73.4364L86.1795,73.4364z"/>
		<path class="st5" d="M94.0026,74.5614c0.5594,0,1.0688-0.0951,1.5284-0.285c0.4594-0.1898,0.8242-0.4624,1.0939-0.8175
			c0.2697-0.3548,0.4046-0.7673,0.4046-1.2375c0-0.54-0.1899-0.9975-0.5694-1.3725c-0.3798-0.375-0.9441-0.6574-1.6933-0.8475
			l-1.1088-0.285c-0.4397-0.1099-0.7694-0.2524-0.989-0.4275c-0.2198-0.1748-0.3296-0.4024-0.3296-0.6825
			c0-0.3,0.1573-0.5475,0.472-0.7425s0.6818-0.2925,1.1013-0.2925c0.8691,0,1.4734,0.3401,1.8131,1.02l1.1089-0.51
			c-0.2199-0.5198-0.5919-0.9248-1.1164-1.215c-0.5244-0.2899-1.1214-0.435-1.7906-0.435c-0.5095,0-0.984,0.09-1.4235,0.27
			c-0.4397,0.18-0.7918,0.4376-1.0564,0.7725c-0.2648,0.3352-0.3971,0.7226-0.3971,1.1625c0,0.57,0.1948,1.035,0.5844,1.395
			c0.3896,0.36,0.889,0.615,1.4984,0.765l0.9291,0.24c0.5792,0.1402,1.0039,0.3075,1.2736,0.5025
			c0.2698,0.195,0.4046,0.4526,0.4046,0.7725c0,0.36-0.17,0.6375-0.5095,0.8325c-0.3397,0.195-0.7492,0.2925-1.2287,0.2925
			c-0.4495,0-0.8616-0.1249-1.2362-0.375c-0.3746-0.2498-0.6569-0.6049-0.8466-1.065l-1.1388,0.51
			c0.2297,0.6,0.6193,1.0927,1.1688,1.4775C92.499,74.3688,93.1834,74.5614,94.0026,74.5614L94.0026,74.5614z"/>
		<path class="st5" d="M101.6835,74.5614c0.7492,0,1.4235-0.18,2.0229-0.54c0.5993-0.36,1.0662-0.8498,1.401-1.47
			c0.3346-0.6199,0.502-1.305,0.502-2.055s-0.1674-1.4348-0.502-2.055c-0.3348-0.6199-0.8017-1.11-1.401-1.47
			c-0.5994-0.36-1.2737-0.54-2.0229-0.54s-1.4235,0.18-2.0229,0.54s-1.0665,0.8501-1.401,1.47
			c-0.3348,0.6202-0.502,1.305-0.502,2.055s0.1672,1.4351,0.502,2.055c0.3345,0.6202,0.8016,1.11,1.401,1.47
			S100.9343,74.5614,101.6835,74.5614L101.6835,74.5614z M101.6835,73.4064c-0.4697,0-0.9092-0.1174-1.3186-0.3525
			c-0.4098-0.2348-0.7368-0.5723-0.9815-1.0125c-0.2449-0.4399-0.3671-0.9548-0.3671-1.545c0-0.5899,0.1222-1.1048,0.3671-1.545
			c0.2447-0.4399,0.5717-0.7774,0.9815-1.0125c0.4094-0.2348,0.8489-0.3525,1.3186-0.3525c0.4694,0,0.9065,0.1177,1.3111,0.3525
			c0.4046,0.2351,0.7291,0.5726,0.974,1.0125c0.2446,0.4402,0.3671,0.9551,0.3671,1.545c0,0.5902-0.1225,1.1051-0.3671,1.545
			c-0.2449,0.4402-0.5694,0.7777-0.974,1.0125C102.59,73.289,102.1529,73.4064,101.6835,73.4064L101.6835,73.4064z"/>
		<path class="st5" d="M106.8589,74.3214h1.2737v-4.305c0-0.4099,0.0899-0.8025,0.2697-1.1775s0.432-0.6773,0.7567-0.9075
			c0.3245-0.2299,0.6917-0.345,1.1014-0.345c0.5893,0,1.0538,0.1601,1.3935,0.48c0.3395,0.3202,0.5095,0.8351,0.5095,1.545v4.71
			h1.2737v-4.905c0-0.9199-0.2424-1.6474-0.7268-2.1825c-0.4846-0.5348-1.1863-0.8025-2.1053-0.8025
			c-0.5195,0-1.0091,0.1327-1.4684,0.3975c-0.4596,0.2651-0.7942,0.5876-1.004,0.9675h-0.0599v-1.125h-1.2138V74.3214z"/>
	</g>
	<g id="copy01_ln02">
		<path class="st5" d="M25.5376,93.5614c0.2397,0,0.4368-0.015,0.5918-0.045c0.1548-0.03,0.3072-0.0801,0.4571-0.15v-1.245
			c-0.2698,0.1702-0.5495,0.255-0.8392,0.255c-0.3596,0-0.6345-0.1122-0.8241-0.3372c-0.1599-0.2044-0.2397-0.5213-0.2397-0.9507
			v-4.2621h1.858v-1.155h-1.858v-2.16h-1.2737v2.16h-1.3336v1.155h1.3336v4.5664c0,0.3665,0.0499,0.6771,0.1498,0.9316
			c0.0998,0.2545,0.2496,0.4786,0.4496,0.672c0.1798,0.1732,0.402,0.3107,0.6668,0.4125
			C24.9405,93.5103,25.2278,93.5614,25.5376,93.5614L25.5376,93.5614z"/>
		<path class="st5" d="M30.9828,93.5614c0.7492,0,1.4235-0.18,2.0229-0.54s1.0662-0.8498,1.401-1.47
			c0.3346-0.6199,0.502-1.305,0.502-2.055s-0.1674-1.4348-0.502-2.055c-0.3348-0.6199-0.8016-1.11-1.401-1.47
			s-1.2737-0.54-2.0229-0.54c-0.7492,0-1.4235,0.18-2.0229,0.54c-0.5993,0.36-1.0664,0.8501-1.401,1.47
			c-0.3348,0.6202-0.502,1.305-0.502,2.055s0.1672,1.4351,0.502,2.055c0.3346,0.6202,0.8017,1.11,1.401,1.47
			C29.5593,93.3814,30.2336,93.5614,30.9828,93.5614L30.9828,93.5614z M30.9828,92.4064c-0.4696,0-0.9091-0.1174-1.3186-0.3525
			c-0.4097-0.2348-0.7368-0.5723-0.9815-1.0125c-0.2449-0.4399-0.3671-0.9548-0.3671-1.545c0-0.5899,0.1222-1.1048,0.3671-1.545
			c0.2447-0.4399,0.5718-0.7774,0.9815-1.0125c0.4095-0.2348,0.849-0.3525,1.3186-0.3525c0.4694,0,0.9066,0.1177,1.3111,0.3525
			c0.4046,0.2351,0.7291,0.5726,0.974,1.0125c0.2447,0.4402,0.3671,0.9551,0.3671,1.545c0,0.5902-0.1224,1.1051-0.3671,1.545
			c-0.2449,0.4402-0.5694,0.7777-0.974,1.0125C31.8894,92.289,31.4522,92.4064,30.9828,92.4064L30.9828,92.4064z"/>
		<path class="st5" d="M41.8163,93.3214h1.2886l3.1168-7.65h-1.3336l-2.3975,6.15h-0.03l-2.3675-6.15h-1.3636L41.8163,93.3214z"/>
		<path class="st5" d="M47.744,84.2764c0.2596,0,0.4769-0.09,0.6518-0.27c0.1746-0.18,0.2622-0.3949,0.2622-0.645
			c0-0.2498-0.0899-0.4624-0.2697-0.6375c-0.1798-0.1748-0.3948-0.2625-0.6443-0.2625c-0.2499,0-0.4646,0.0877-0.6444,0.2625
			c-0.1798,0.1751-0.2697,0.3877-0.2697,0.6375c0,0.2501,0.0899,0.465,0.2697,0.645C47.2794,84.1864,47.4941,84.2764,47.744,84.2764
			L47.744,84.2764z M47.1146,93.3214h1.2587v-7.65h-1.2587V93.3214z"/>
		<path class="st5" d="M53.3001,93.5614c0.5893,0,1.1138-0.1326,1.5734-0.3975c0.4593-0.2648,0.8091-0.5873,1.0489-0.9675h0.0599
			v1.125h1.2137v-10.74h-1.2736v3.165l0.0599,1.065h-0.0599c-0.2398-0.39-0.5896-0.7174-1.0489-0.9825
			c-0.4596-0.2648-0.9841-0.3975-1.5734-0.3975c-0.6794,0-1.2961,0.1751-1.8506,0.525c-0.5544,0.3502-0.9915,0.8351-1.3111,1.455
			c-0.3198,0.6202-0.4795,1.3151-0.4795,2.085c0,0.78,0.1597,1.4775,0.4795,2.0925c0.3196,0.615,0.7567,1.0976,1.3111,1.4475
			C52.004,93.3864,52.6207,93.5614,53.3001,93.5614L53.3001,93.5614z M53.45,92.4064c-0.4397,0-0.8542-0.12-1.2437-0.36
			c-0.3896-0.24-0.702-0.5824-0.9366-1.0275c-0.2348-0.4448-0.3521-0.9525-0.3521-1.5225s0.1173-1.0774,0.3521-1.5225
			c0.2346-0.4448,0.547-0.7875,0.9366-1.0275c0.3895-0.24,0.804-0.36,1.2437-0.36c0.4495,0,0.8665,0.12,1.2511,0.36
			c0.3845,0.24,0.6942,0.5801,0.9291,1.02c0.2346,0.4402,0.3521,0.9502,0.3521,1.53c0,0.5801-0.1175,1.0901-0.3521,1.53
			c-0.2349,0.4402-0.5446,0.78-0.9291,1.02C54.3165,92.2864,53.8995,92.4064,53.45,92.4064L53.45,92.4064z"/>
		<path class="st5" d="M62.2591,93.5614c0.7991,0,1.4808-0.18,2.0453-0.54c0.5643-0.36,1.0115-0.8498,1.3411-1.47l-1.0788-0.525
			c-0.5296,0.9202-1.2838,1.38-2.2627,1.38c-0.4195,0-0.8218-0.0998-1.2062-0.3c-0.3847-0.1999-0.7019-0.4999-0.9515-0.9
			c-0.2498-0.3998-0.3896-0.8899-0.4196-1.47h6.0387c0.03-0.1099,0.045-0.24,0.045-0.39c0-0.7598-0.1475-1.4348-0.4421-2.025
			c-0.2948-0.5899-0.7169-1.0523-1.2662-1.3875c-0.5495-0.3349-1.1987-0.5025-1.9479-0.5025c-0.7394,0-1.3886,0.1852-1.948,0.555
			c-0.5595,0.3701-0.9915,0.8651-1.2961,1.485c-0.3049,0.6202-0.457,1.3001-0.457,2.04c0,0.7702,0.1622,1.4625,0.4869,2.0775
			c0.3246,0.615,0.7767,1.0976,1.3561,1.4475C60.8754,93.3864,61.5298,93.5614,62.2591,93.5614L62.2591,93.5614z M59.8016,88.6864
			c0.1298-0.63,0.402-1.1374,0.8167-1.5225c0.4144-0.3848,0.9215-0.5775,1.5209-0.5775c0.5193,0,0.9515,0.1102,1.2961,0.33
			c0.3447,0.2201,0.5968,0.4901,0.7567,0.81c0.1597,0.3202,0.2496,0.6401,0.2698,0.96H59.8016z"/>
		<path class="st5" d="M70.5782,93.5614c0.7492,0,1.4235-0.18,2.0229-0.54c0.5993-0.36,1.0662-0.8498,1.401-1.47
			c0.3346-0.6199,0.502-1.305,0.502-2.055s-0.1674-1.4348-0.502-2.055c-0.3348-0.6199-0.8017-1.11-1.401-1.47
			c-0.5994-0.36-1.2737-0.54-2.0229-0.54c-0.7492,0-1.4235,0.18-2.0229,0.54s-1.0665,0.8501-1.401,1.47
			c-0.3348,0.6202-0.502,1.305-0.502,2.055s0.1672,1.4351,0.502,2.055c0.3345,0.6202,0.8016,1.11,1.401,1.47
			S69.829,93.5614,70.5782,93.5614L70.5782,93.5614z M70.5782,92.4064c-0.4697,0-0.9091-0.1174-1.3186-0.3525
			c-0.4098-0.2348-0.7368-0.5723-0.9815-1.0125c-0.2449-0.4399-0.3671-0.9548-0.3671-1.545c0-0.5899,0.1222-1.1048,0.3671-1.545
			c0.2447-0.4399,0.5717-0.7774,0.9815-1.0125c0.4095-0.2348,0.8489-0.3525,1.3186-0.3525c0.4694,0,0.9065,0.1177,1.3111,0.3525
			c0.4046,0.2351,0.7291,0.5726,0.974,1.0125c0.2447,0.4402,0.3671,0.9551,0.3671,1.545c0,0.5902-0.1224,1.1051-0.3671,1.545
			c-0.2449,0.4402-0.5694,0.7777-0.974,1.0125C71.4847,92.289,71.0476,92.4064,70.5782,92.4064L70.5782,92.4064z"/>
		<path class="st5" d="M82.6254,93.5614c0.819,0,1.5157-0.195,2.0903-0.585c0.5743-0.39,0.9913-0.9,1.2512-1.53l-1.1388-0.48
			c-0.1899,0.4601-0.4795,0.8152-0.8691,1.065c-0.3896,0.2501-0.8541,0.375-1.3936,0.375c-0.4495,0-0.869-0.1223-1.2586-0.3675
			c-0.3896-0.2449-0.702-0.5873-0.9366-1.0275c-0.2348-0.4399-0.3521-0.945-0.3521-1.515s0.1173-1.0748,0.3521-1.515
			c0.2346-0.4399,0.547-0.7823,0.9366-1.0275c0.3896-0.2449,0.8091-0.3675,1.2586-0.3675c0.5294,0,0.9815,0.1226,1.3561,0.3675
			c0.3746,0.2452,0.6568,0.6026,0.8466,1.0725l1.1538-0.48c-0.2397-0.6398-0.6419-1.1524-1.2062-1.5375
			c-0.5645-0.3848-1.2613-0.5775-2.0903-0.5775c-0.7394,0-1.4036,0.1751-1.9929,0.525c-0.5896,0.3502-1.0489,0.8351-1.3786,1.455
			c-0.3296,0.6202-0.4945,1.3151-0.4945,2.085c0,0.7702,0.1649,1.4625,0.4945,2.0775c0.3297,0.615,0.789,1.1002,1.3786,1.455
			C81.2218,93.3838,81.886,93.5614,82.6254,93.5614L82.6254,93.5614z"/>
		<path class="st5" d="M89.6214,93.5614c0.5493,0,1.0438-0.13,1.4835-0.39c0.4394-0.2599,0.7691-0.5749,0.9889-0.945h0.06v1.095
			h1.2137v-4.845c0-0.9398-0.2974-1.6823-0.8916-2.2275c-0.5944-0.5449-1.4111-0.8175-2.4499-0.8175
			c-0.6394,0-1.2212,0.1301-1.7457,0.39c-0.5244,0.2602-0.9365,0.6202-1.2362,1.08l0.959,0.72
			c0.2098-0.33,0.4945-0.5873,0.8541-0.7725c0.3596-0.1849,0.7541-0.2775,1.1838-0.2775c0.6092,0,1.1137,0.1725,1.5134,0.5175
			c0.3994,0.345,0.5994,0.8025,0.5994,1.3725v0.465c-0.2098-0.1298-0.5121-0.2449-0.9066-0.345
			c-0.3947-0.0998-0.8218-0.15-1.2812-0.15c-0.929,0-1.6983,0.2276-2.3075,0.6825c-0.6095,0.4552-0.9141,1.0875-0.9141,1.8975
			c0,0.4901,0.1199,0.9277,0.3596,1.3125c0.2398,0.3851,0.5793,0.6877,1.019,0.9075
			C88.5624,93.4513,89.0618,93.5614,89.6214,93.5614L89.6214,93.5614z M89.7413,92.4364c-0.4896,0-0.8942-0.1298-1.2137-0.39
			c-0.3199-0.2599-0.4795-0.6-0.4795-1.02c0-0.4598,0.1772-0.8348,0.5319-1.125c0.3545-0.2899,0.8815-0.435,1.5808-0.435
			c0.3896,0,0.7591,0.0502,1.1089,0.15c0.3495,0.1001,0.6443,0.2302,0.8841,0.39c0,0.4402-0.1101,0.8452-0.3297,1.215
			c-0.2198,0.3701-0.5146,0.6652-0.8841,0.885C90.5703,92.3265,90.1707,92.4364,89.7413,92.4364L89.7413,92.4364z"/>
		<path class="st5" d="M94.9422,93.3214h1.2737v-10.74h-1.2737V93.3214z"/>
		<path class="st5" d="M97.8551,93.3214h1.2737v-10.74h-1.2737V93.3214z"/>
		<path class="st5" d="M101.6326,93.3214c0.2597,0,0.4819-0.0881,0.6668-0.2643c0.1848-0.1763,0.2772-0.3928,0.2772-0.6502
			c0-0.2477-0.0924-0.4598-0.2772-0.6361c-0.1849-0.1762-0.4071-0.2644-0.6668-0.2644c-0.2697,0-0.497,0.0882-0.6818,0.2644
			c-0.1849,0.1763-0.2772,0.3884-0.2772,0.6361c0,0.2574,0.0923,0.4739,0.2772,0.6502
			C101.1356,93.2333,101.3629,93.3214,101.6326,93.3214L101.6326,93.3214z"/>
	</g>
</g>
</svg>
