<?xml version="1.0" encoding="utf-8"?>
<!-- Generator: Adobe Illustrator 22.0.1, SVG Export Plug-In . SVG Version: 6.00 Build 0)  -->
<svg version="1.1" id="Layer_1" xmlns="http://www.w3.org/2000/svg" xmlns:xlink="http://www.w3.org/1999/xlink" x="0px" y="0px"
	 viewBox="0 0 300 250" style="enable-background:new 0 0 300 250;" xml:space="preserve">
<style type="text/css">
	.st0{fill:#1A73E8;}
	.st1{fill:#FFFFFF;}
</style>
<g id="cta">
	<path id="ctaShape" class="st0" d="M104.5,160h-80c-0.8,0-1.5-0.7-1.5-1.5v-22c0-0.8,0.7-1.5,1.5-1.5h80c0.8,0,1.5,0.7,1.5,1.5v22
		C106,159.3,105.3,160,104.5,160z"/>
	<g id="ctaCopy">
		<path class="st1" d="M46.6,150.7c-0.6-0.3-1-0.8-1.3-1.3c-0.3-0.6-0.5-1.2-0.5-1.9s0.2-1.3,0.5-1.9c0.3-0.6,0.8-1,1.3-1.3
			s1.2-0.5,1.9-0.5c0.5,0,1,0.1,1.5,0.3c0.4,0.2,0.8,0.5,1.2,0.9l-0.8,0.8c-0.2-0.3-0.5-0.5-0.8-0.7s-0.6-0.2-1-0.2
			c-0.5,0-0.9,0.1-1.3,0.3c-0.4,0.2-0.7,0.5-0.9,0.9s-0.4,0.9-0.4,1.4s0.1,1,0.4,1.4s0.5,0.7,0.9,0.9c0.4,0.2,0.8,0.3,1.3,0.3
			c0.8,0,1.5-0.3,2-1l0.8,0.8c-0.3,0.4-0.8,0.7-1.3,1c-0.5,0.2-1,0.3-1.6,0.3C47.8,151.2,47.2,151,46.6,150.7z"/>
		<path class="st1" d="M52.9,150.9c-0.3-0.1-0.5-0.3-0.7-0.6c-0.2-0.3-0.2-0.6-0.2-0.9c0-0.5,0.2-0.9,0.6-1.3
			c0.4-0.3,0.9-0.5,1.5-0.5c0.3,0,0.6,0,0.8,0.1c0.2,0.1,0.4,0.1,0.6,0.2v-0.3c0-0.3-0.1-0.6-0.4-0.8c-0.2-0.2-0.5-0.3-0.9-0.3
			c-0.3,0-0.5,0.1-0.7,0.2c-0.2,0.1-0.4,0.3-0.6,0.5l-0.8-0.6c0.2-0.3,0.5-0.6,0.9-0.7c0.4-0.2,0.8-0.3,1.2-0.3
			c0.7,0,1.3,0.2,1.7,0.5s0.6,0.9,0.6,1.5v3.2h-1.1v-0.6h-0.1c-0.1,0.2-0.4,0.4-0.6,0.6c-0.3,0.1-0.6,0.2-0.9,0.2
			C53.5,151.2,53.2,151.1,52.9,150.9z M54.8,150.1c0.2-0.1,0.4-0.3,0.5-0.5c0.1-0.2,0.2-0.4,0.2-0.7c-0.2-0.1-0.3-0.2-0.5-0.2
			c-0.2-0.1-0.4-0.1-0.6-0.1c-0.4,0-0.7,0.1-0.9,0.2c-0.2,0.2-0.3,0.4-0.3,0.6c0,0.2,0.1,0.4,0.3,0.6c0.2,0.1,0.4,0.2,0.7,0.2
			C54.3,150.3,54.5,150.2,54.8,150.1z"/>
		<path class="st1" d="M57.7,143.8h1.1v7.2h-1.1V143.8z"/>
		<path class="st1" d="M60.1,143.8h1.1v7.2h-1.1V143.8z"/>
		<path class="st1" d="M64.8,145.9h1v0.7h0.1c0.1-0.2,0.4-0.4,0.7-0.6c0.3-0.2,0.6-0.2,0.9-0.2c0.6,0,1.1,0.2,1.4,0.5
			s0.5,0.9,0.5,1.5v3.2h-1.1v-3.1c0-0.4-0.1-0.7-0.3-0.9c-0.2-0.2-0.5-0.3-0.8-0.3c-0.2,0-0.5,0.1-0.7,0.2s-0.3,0.3-0.5,0.5
			s-0.2,0.5-0.2,0.7v2.8h-1.1V145.9z"/>
		<path class="st1" d="M71.7,150.8c-0.4-0.2-0.7-0.6-0.9-1c-0.2-0.4-0.3-0.9-0.3-1.4s0.1-1,0.3-1.4c0.2-0.4,0.5-0.7,0.9-1
			c0.4-0.2,0.9-0.4,1.4-0.4c0.5,0,1,0.1,1.4,0.4c0.4,0.2,0.7,0.6,0.9,1s0.3,0.9,0.3,1.4c0,0.5-0.1,1-0.3,1.4s-0.5,0.7-0.9,1
			c-0.4,0.2-0.9,0.4-1.4,0.4C72.5,151.2,72.1,151,71.7,150.8z M73.8,149.9c0.2-0.1,0.4-0.3,0.6-0.6c0.1-0.3,0.2-0.6,0.2-0.9
			s-0.1-0.6-0.2-0.9c-0.1-0.3-0.3-0.4-0.6-0.6c-0.2-0.1-0.5-0.2-0.8-0.2c-0.3,0-0.5,0.1-0.8,0.2s-0.4,0.3-0.6,0.6
			c-0.1,0.3-0.2,0.6-0.2,0.9s0.1,0.6,0.2,0.9c0.1,0.3,0.3,0.5,0.6,0.6s0.5,0.2,0.8,0.2C73.3,150.2,73.6,150.1,73.8,149.9z"/>
		<path class="st1" d="M76.1,145.9h1.2l1,3.6h0l1.1-3.6h1.1l1.1,3.6h0l1-3.6H84l-1.6,5.1h-1.2l-1.2-3.7h0l-1.2,3.7h-1.1L76.1,145.9z
			"/>
	</g>
</g>
</svg>
