<?xml version="1.0" encoding="utf-8"?>
<!-- Generator: Adobe Illustrator 22.1.0, SVG Export Plug-In . SVG Version: 6.00 Build 0)  -->
<svg version="1.1" xmlns="http://www.w3.org/2000/svg" xmlns:xlink="http://www.w3.org/1999/xlink" x="0px" y="0px"
	 viewBox="0 0 728 90" style="enable-background:new 0 0 728 90;" xml:space="preserve">
<style type="text/css">
	.st0{fill:#4D4D4D;}
</style>
<g id="Layer_2_1_">
	<g id="copy">
		<g id="copy01_ln01">
			<path class="st0" d="M172.418,51.032h1.53v-11.43h3.6v-1.458H168.8v1.458h3.618V51.032z"/>
			<path class="st0" d="M179.7654,40.178c0.3119,0,0.5729-0.108,0.783-0.324c0.2098-0.216,0.315-0.4739,0.315-0.774
				c0-0.2998-0.108-0.5549-0.324-0.765c-0.216-0.2098-0.4742-0.315-0.774-0.315c-0.3001,0-0.558,0.1052-0.774,0.315
				c-0.216,0.2101-0.324,0.4652-0.324,0.765c0,0.3001,0.108,0.558,0.324,0.774C179.2074,40.07,179.4653,40.178,179.7654,40.178
				L179.7654,40.178z M179.0094,51.032h1.512v-9.18h-1.512V51.032z"/>
			<path class="st0" d="M185.7341,51.32c0.6719,0,1.2839-0.1141,1.836-0.342c0.5519-0.2278,0.99-0.5549,1.314-0.981
				c0.324-0.4258,0.486-0.9208,0.486-1.485c0-0.648-0.2281-1.197-0.684-1.647c-0.4561-0.45-1.134-0.7889-2.034-1.017l-1.332-0.342
				c-0.5281-0.1319-0.9241-0.3029-1.188-0.513c-0.2641-0.2098-0.396-0.4829-0.396-0.819c0-0.36,0.189-0.657,0.567-0.891
				c0.378-0.234,0.819-0.351,1.323-0.351c1.044,0,1.7699,0.4081,2.178,1.224l1.332-0.612c-0.2641-0.6238-0.711-1.1098-1.341-1.458
				c-0.63-0.3479-1.3471-0.522-2.151-0.522c-0.612,0-1.1821,0.108-1.71,0.324c-0.5281,0.216-0.9511,0.5251-1.269,0.927
				c-0.3181,0.4022-0.477,0.8671-0.477,1.395c0,0.684,0.234,1.242,0.702,1.674c0.468,0.432,1.0679,0.738,1.8,0.918l1.116,0.288
				c0.6959,0.1682,1.206,0.369,1.53,0.603c0.324,0.234,0.486,0.5431,0.486,0.927c0,0.432-0.2041,0.765-0.612,0.999
				c-0.4081,0.234-0.9,0.351-1.476,0.351c-0.54,0-1.035-0.1499-1.485-0.45c-0.45-0.2998-0.7891-0.7259-1.017-1.278l-1.368,0.612
				c0.2759,0.72,0.7439,1.3112,1.404,1.773C183.928,51.0889,184.75,51.32,185.7341,51.32L185.7341,51.32z"/>
			<path class="st0" d="M198.3879,51.32c0.288,0,0.5248-0.018,0.711-0.054c0.1859-0.036,0.369-0.0961,0.549-0.18v-1.494
				c-0.324,0.2042-0.6601,0.306-1.008,0.306c-0.432,0-0.7622-0.1347-0.99-0.4047c-0.1921-0.2452-0.288-0.6255-0.288-1.1407V43.238
				h2.232v-1.386h-2.232V39.26h-1.53v2.592h-1.602v1.386h1.602v5.4796c0,0.4399,0.0599,0.8126,0.18,1.118
				c0.1198,0.3054,0.2998,0.5743,0.54,0.8063c0.216,0.2079,0.4829,0.373,0.801,0.495
				C197.6707,51.2587,198.0158,51.32,198.3879,51.32L198.3879,51.32z"/>
			<path class="st0" d="M200.8844,51.032h1.5301V45.92c0-0.4919,0.1169-0.9658,0.3509-1.422
				c0.2341-0.4559,0.5519-0.828,0.9541-1.116c0.4019-0.288,0.8429-0.432,1.3229-0.432c0.672,0,1.2179,0.198,1.6381,0.594
				c0.4199,0.396,0.6299,1.008,0.6299,1.836v5.652h1.5301v-5.886c0-1.08-0.2942-1.9468-0.882-2.601
				c-0.5881-0.6539-1.4401-0.981-2.556-0.981c-0.6481,0-1.2451,0.1561-1.791,0.468c-0.5462,0.3122-0.945,0.702-1.197,1.17h-0.0721
				l0.0721-1.26v-3.798h-1.5301V51.032z"/>
			<path class="st0" d="M214.8218,51.32c0.9599,0,1.7789-0.216,2.457-0.648c0.6778-0.432,1.215-1.0198,1.611-1.764l-1.296-0.63
				c-0.6362,1.1042-1.5421,1.656-2.718,1.656c-0.504,0-0.9872-0.1198-1.449-0.36c-0.4621-0.2399-0.8432-0.5999-1.143-1.08
				c-0.3001-0.4798-0.468-1.0679-0.504-1.764h7.254c0.036-0.1319,0.054-0.288,0.054-0.468c0-0.9118-0.1772-1.7218-0.531-2.43
				c-0.3541-0.7079-0.8612-1.2628-1.521-1.665c-0.6601-0.4019-1.44-0.603-2.34-0.603c-0.8882,0-1.6681,0.2222-2.34,0.666
				c-0.6722,0.4441-1.1911,1.0381-1.557,1.782c-0.3662,0.7442-0.549,1.5601-0.549,2.448c0,0.9242,0.1949,1.755,0.585,2.493
				c0.3898,0.738,0.9329,1.3171,1.629,1.737C213.1596,51.1099,213.9457,51.32,214.8218,51.32L214.8218,51.32z M211.8698,45.47
				c0.1558-0.756,0.4829-1.3649,0.981-1.827c0.4978-0.4618,1.107-0.693,1.827-0.693c0.6238,0,1.143,0.1322,1.557,0.396
				c0.414,0.2641,0.7169,0.5881,0.909,0.972c0.1918,0.3842,0.2998,0.7681,0.324,1.152H211.8698z"/>
			<path class="st0" d="M227.8895,51.32c0.6719,0,1.2839-0.1141,1.836-0.342c0.5518-0.2278,0.99-0.5549,1.314-0.981
				c0.324-0.4258,0.486-0.9208,0.486-1.485c0-0.648-0.2281-1.197-0.684-1.647c-0.4562-0.45-1.134-0.7889-2.034-1.017l-1.332-0.342
				c-0.5282-0.1319-0.9242-0.3029-1.188-0.513c-0.2641-0.2098-0.396-0.4829-0.396-0.819c0-0.36,0.189-0.657,0.567-0.891
				c0.378-0.234,0.819-0.351,1.323-0.351c1.044,0,1.7699,0.4081,2.178,1.224l1.332-0.612c-0.2641-0.6238-0.711-1.1098-1.341-1.458
				c-0.63-0.3479-1.3472-0.522-2.151-0.522c-0.612,0-1.1821,0.108-1.71,0.324c-0.5282,0.216-0.9512,0.5251-1.269,0.927
				c-0.3181,0.4022-0.477,0.8671-0.477,1.395c0,0.684,0.234,1.242,0.702,1.674s1.0679,0.738,1.8,0.918l1.116,0.288
				c0.6958,0.1682,1.206,0.369,1.53,0.603c0.324,0.234,0.486,0.5431,0.486,0.927c0,0.432-0.2042,0.765-0.612,0.999
				c-0.4081,0.234-0.9,0.351-1.476,0.351c-0.54,0-1.035-0.1499-1.485-0.45c-0.45-0.2998-0.7892-0.7259-1.017-1.278l-1.368,0.612
				c0.2759,0.72,0.7439,1.3112,1.404,1.773C226.0833,51.0889,226.9054,51.32,227.8895,51.32L227.8895,51.32z"/>
			<path class="st0" d="M236.9469,51.32c0.9599,0,1.7789-0.216,2.457-0.648c0.6778-0.432,1.215-1.0198,1.611-1.764l-1.296-0.63
				c-0.6362,1.1042-1.5421,1.656-2.718,1.656c-0.504,0-0.9872-0.1198-1.449-0.36c-0.4621-0.2399-0.8432-0.5999-1.143-1.08
				c-0.3001-0.4798-0.468-1.0679-0.504-1.764h7.254c0.036-0.1319,0.054-0.288,0.054-0.468c0-0.9118-0.1772-1.7218-0.531-2.43
				c-0.3541-0.7079-0.8612-1.2628-1.521-1.665c-0.6601-0.4019-1.44-0.603-2.34-0.603c-0.8882,0-1.6681,0.2222-2.34,0.666
				c-0.6722,0.4441-1.1911,1.0381-1.557,1.782c-0.3662,0.7442-0.549,1.5601-0.549,2.448c0,0.9242,0.1949,1.755,0.585,2.493
				c0.3898,0.738,0.9329,1.3171,1.629,1.737C235.2847,51.1099,236.0708,51.32,236.9469,51.32L236.9469,51.32z M233.9949,45.47
				c0.1558-0.756,0.4829-1.3649,0.981-1.827c0.4978-0.4618,1.107-0.693,1.827-0.693c0.6238,0,1.143,0.1322,1.557,0.396
				c0.414,0.2641,0.7169,0.5881,0.909,0.972c0.1918,0.3842,0.2998,0.7681,0.324,1.152H233.9949z"/>
			<path class="st0" d="M245.5345,51.32c0.6598,0,1.2538-0.1561,1.782-0.468c0.5279-0.3119,0.9239-0.6899,1.188-1.134h0.072v1.314
				h1.458v-5.814c0-1.1278-0.3572-2.0188-1.071-2.673c-0.7141-0.6539-1.6951-0.981-2.943-0.981c-0.7681,0-1.467,0.1561-2.097,0.468
				c-0.63,0.3122-1.125,0.7442-1.485,1.296l1.152,0.864c0.252-0.396,0.594-0.7048,1.026-0.927
				c0.432-0.2219,0.9059-0.333,1.422-0.333c0.7318,0,1.3379,0.207,1.818,0.621c0.4798,0.414,0.72,0.963,0.72,1.647v0.558
				c-0.252-0.1558-0.6151-0.2939-1.089-0.414c-0.4742-0.1198-0.9872-0.18-1.539-0.18c-1.116,0-2.0402,0.2731-2.772,0.819
				c-0.7321,0.5462-1.098,1.305-1.098,2.277c0,0.5881,0.144,1.1132,0.432,1.575c0.288,0.4621,0.6958,0.8252,1.224,1.089
				C244.2624,51.1879,244.8623,51.32,245.5345,51.32L245.5345,51.32z M245.6785,49.97c-0.5881,0-1.0741-0.1558-1.458-0.468
				c-0.3842-0.3119-0.576-0.72-0.576-1.224c0-0.5518,0.2129-1.0018,0.639-1.35c0.4258-0.3479,1.0589-0.522,1.899-0.522
				c0.468,0,0.9118,0.0602,1.332,0.18c0.4199,0.1201,0.774,0.2762,1.062,0.468c0,0.5282-0.1322,1.0142-0.396,1.458
				c-0.2641,0.4441-0.6182,0.7982-1.062,1.062C246.6744,49.8381,246.1943,49.97,245.6785,49.97L245.6785,49.97z"/>
			<path class="st0" d="M255.0509,51.32c0.6719,0,1.2839-0.1141,1.836-0.342c0.5518-0.2278,0.99-0.5549,1.314-0.981
				c0.324-0.4258,0.486-0.9208,0.486-1.485c0-0.648-0.2281-1.197-0.684-1.647c-0.4562-0.45-1.134-0.7889-2.034-1.017l-1.332-0.342
				c-0.5282-0.1319-0.9242-0.3029-1.188-0.513c-0.2641-0.2098-0.396-0.4829-0.396-0.819c0-0.36,0.189-0.657,0.567-0.891
				c0.378-0.234,0.819-0.351,1.323-0.351c1.044,0,1.7699,0.4081,2.178,1.224l1.332-0.612c-0.2641-0.6238-0.711-1.1098-1.341-1.458
				c-0.63-0.3479-1.3472-0.522-2.151-0.522c-0.612,0-1.1821,0.108-1.71,0.324c-0.5282,0.216-0.9512,0.5251-1.269,0.927
				c-0.3181,0.4022-0.477,0.8671-0.477,1.395c0,0.684,0.234,1.242,0.702,1.674s1.0679,0.738,1.8,0.918l1.116,0.288
				c0.6958,0.1682,1.206,0.369,1.53,0.603c0.324,0.234,0.486,0.5431,0.486,0.927c0,0.432-0.2042,0.765-0.612,0.999
				c-0.4081,0.234-0.9,0.351-1.476,0.351c-0.54,0-1.035-0.1499-1.485-0.45c-0.45-0.2998-0.7892-0.7259-1.017-1.278l-1.368,0.612
				c0.2759,0.72,0.7439,1.3112,1.404,1.773C253.2447,51.0889,254.0668,51.32,255.0509,51.32L255.0509,51.32z"/>
			<path class="st0" d="M264.2524,51.32c0.9,0,1.71-0.216,2.43-0.648c0.72-0.432,1.2808-1.0198,1.683-1.764
				c0.4019-0.7439,0.603-1.566,0.603-2.466c0-0.9-0.2011-1.7218-0.603-2.466c-0.4022-0.7439-0.963-1.332-1.683-1.764
				c-0.72-0.432-1.53-0.648-2.43-0.648c-0.9,0-1.71,0.216-2.43,0.648c-0.72,0.432-1.2811,1.0201-1.683,1.764
				c-0.4022,0.7442-0.603,1.566-0.603,2.466c0,0.9,0.2008,1.7221,0.603,2.466c0.4019,0.7442,0.963,1.332,1.683,1.764
				C262.5424,51.104,263.3524,51.32,264.2524,51.32L264.2524,51.32z M264.2524,49.934c-0.5642,0-1.0921-0.1409-1.584-0.423
				c-0.4922-0.2818-0.8851-0.6868-1.179-1.215c-0.2942-0.5279-0.441-1.1458-0.441-1.854c0-0.7079,0.1468-1.3258,0.441-1.854
				c0.2939-0.5279,0.6868-0.9329,1.179-1.215c0.4919-0.2818,1.0198-0.423,1.584-0.423c0.5639,0,1.089,0.1412,1.575,0.423
				c0.486,0.2821,0.8758,0.6871,1.17,1.215c0.2939,0.5282,0.441,1.1461,0.441,1.854c0,0.7082-0.1471,1.3261-0.441,1.854
				c-0.2942,0.5282-0.684,0.9332-1.17,1.215C265.3414,49.7931,264.8163,49.934,264.2524,49.934L264.2524,49.934z"/>
			<path class="st0" d="M270.4425,51.032h1.53v-5.166c0-0.4919,0.108-0.963,0.324-1.413c0.216-0.45,0.5189-0.8128,0.909-1.089
				c0.3898-0.2759,0.8308-0.414,1.323-0.414c0.7079,0,1.2659,0.1921,1.674,0.576c0.4078,0.3842,0.612,1.0021,0.612,1.854v5.652h1.53
				v-5.886c0-1.1039-0.2911-1.9769-0.873-2.619c-0.5822-0.6418-1.4251-0.963-2.529-0.963c-0.6241,0-1.2122,0.1592-1.764,0.477
				c-0.5521,0.3181-0.954,0.7051-1.206,1.161h-0.072v-1.35h-1.458V51.032z"/>
			<path class="st0" d="M287.8842,51.32c0.288,0,0.5248-0.018,0.711-0.054c0.1859-0.036,0.369-0.0961,0.549-0.18v-1.494
				c-0.324,0.2042-0.6601,0.306-1.008,0.306c-0.432,0-0.7622-0.1347-0.99-0.4047c-0.1921-0.2452-0.288-0.6255-0.288-1.1407V43.238
				h2.232v-1.386h-2.232V39.26h-1.53v2.592h-1.602v1.386h1.602v5.4796c0,0.4399,0.0599,0.8126,0.18,1.118
				c0.1198,0.3054,0.2998,0.5743,0.54,0.8063c0.216,0.2079,0.4829,0.373,0.801,0.495C287.167,51.2587,287.5121,51.32,287.8842,51.32
				L287.8842,51.32z"/>
			<path class="st0" d="M294.3947,51.32c0.9,0,1.71-0.216,2.43-0.648c0.72-0.432,1.2808-1.0198,1.683-1.764
				c0.4019-0.7439,0.603-1.566,0.603-2.466c0-0.9-0.2011-1.7218-0.603-2.466c-0.4022-0.7439-0.963-1.332-1.683-1.764
				c-0.72-0.432-1.53-0.648-2.43-0.648c-0.9,0-1.71,0.216-2.43,0.648c-0.72,0.432-1.2811,1.0201-1.683,1.764
				c-0.4022,0.7442-0.603,1.566-0.603,2.466c0,0.9,0.2008,1.7221,0.603,2.466c0.4019,0.7442,0.963,1.332,1.683,1.764
				C292.6847,51.104,293.4947,51.32,294.3947,51.32L294.3947,51.32z M294.3947,49.934c-0.5642,0-1.0921-0.1409-1.584-0.423
				c-0.4922-0.2818-0.8851-0.6868-1.179-1.215c-0.2942-0.5279-0.441-1.1458-0.441-1.854c0-0.7079,0.1468-1.3258,0.441-1.854
				c0.2939-0.5279,0.6868-0.9329,1.179-1.215c0.4919-0.2818,1.0198-0.423,1.584-0.423c0.5639,0,1.089,0.1412,1.575,0.423
				c0.486,0.2821,0.8758,0.6871,1.17,1.215c0.2939,0.5282,0.441,1.1461,0.441,1.854c0,0.7082-0.1471,1.3261-0.441,1.854
				c-0.2942,0.5282-0.684,0.9332-1.17,1.215C295.4837,49.7931,294.9586,49.934,294.3947,49.934L294.3947,49.934z"/>
			<path class="st0" d="M307.4085,51.032h1.548l3.744-9.18h-1.602l-2.88,7.38h-0.036l-2.844-7.38h-1.638L307.4085,51.032z"/>
			<path class="st0" d="M314.5022,40.178c0.3119,0,0.5729-0.108,0.783-0.324c0.2098-0.216,0.315-0.4739,0.315-0.774
				c0-0.2998-0.108-0.5549-0.324-0.765c-0.216-0.2098-0.4742-0.315-0.774-0.315c-0.3001,0-0.558,0.1052-0.774,0.315
				c-0.216,0.2101-0.324,0.4652-0.324,0.765c0,0.3001,0.108,0.558,0.324,0.774C313.9442,40.07,314.2021,40.178,314.5022,40.178
				L314.5022,40.178z M313.7462,51.032h1.512v-9.18h-1.512V51.032z"/>
			<path class="st0" d="M321.1477,51.32c0.7079,0,1.3379-0.1591,1.89-0.477c0.5518-0.3178,0.972-0.7048,1.26-1.161h0.072v1.35h1.458
				V38.144h-1.53v3.798l0.072,1.278h-0.072c-0.288-0.468-0.7082-0.8609-1.26-1.179c-0.5521-0.3178-1.1821-0.477-1.89-0.477
				c-0.8162,0-1.557,0.2101-2.223,0.63c-0.666,0.4202-1.1911,1.0021-1.575,1.746c-0.3842,0.7442-0.576,1.5781-0.576,2.502
				c0,0.936,0.1918,1.773,0.576,2.511c0.3839,0.738,0.909,1.3171,1.575,1.737C319.5907,51.1099,320.3315,51.32,321.1477,51.32
				L321.1477,51.32z M321.3277,49.934c-0.5282,0-1.026-0.144-1.494-0.432c-0.468-0.288-0.8432-0.6989-1.125-1.233
				c-0.2821-0.5338-0.423-1.143-0.423-1.827c0-0.684,0.1409-1.2929,0.423-1.827c0.2818-0.5338,0.657-0.945,1.125-1.233
				c0.468-0.288,0.9658-0.432,1.494-0.432c0.54,0,1.0409,0.144,1.503,0.432c0.4618,0.288,0.8339,0.6961,1.116,1.224
				c0.2818,0.5282,0.423,1.1402,0.423,1.836c0,0.6961-0.1412,1.3081-0.423,1.836c-0.2821,0.5282-0.6542,0.936-1.116,1.224
				C322.3686,49.79,321.8677,49.934,321.3277,49.934L321.3277,49.934z"/>
			<path class="st0" d="M331.8827,51.32c0.9599,0,1.7789-0.216,2.457-0.648c0.6779-0.432,1.215-1.0198,1.611-1.764l-1.296-0.63
				c-0.6362,1.1042-1.5421,1.656-2.718,1.656c-0.504,0-0.9871-0.1198-1.449-0.36c-0.4621-0.2399-0.8431-0.5999-1.143-1.08
				c-0.3-0.4798-0.468-1.0679-0.504-1.764h7.254c0.036-0.1319,0.054-0.288,0.054-0.468c0-0.9118-0.1772-1.7218-0.531-2.43
				c-0.3541-0.7079-0.8611-1.2628-1.521-1.665c-0.66-0.4019-1.44-0.603-2.34-0.603c-0.8881,0-1.6681,0.2222-2.34,0.666
				c-0.6721,0.4441-1.191,1.0381-1.557,1.782c-0.3661,0.7442-0.549,1.5601-0.549,2.448c0,0.9242,0.195,1.755,0.585,2.493
				c0.3899,0.738,0.933,1.3171,1.629,1.737C330.2206,51.1099,331.0066,51.32,331.8827,51.32L331.8827,51.32z M328.9307,45.47
				c0.1559-0.756,0.4829-1.3649,0.981-1.827c0.4979-0.4618,1.107-0.693,1.827-0.693c0.6239,0,1.143,0.1322,1.557,0.396
				c0.414,0.2641,0.7169,0.5881,0.909,0.972c0.1919,0.3842,0.2999,0.7681,0.324,1.152H328.9307z"/>
			<path class="st0" d="M341.8491,51.32c0.9,0,1.71-0.216,2.43-0.648c0.72-0.432,1.2808-1.0198,1.683-1.764
				c0.4019-0.7439,0.603-1.566,0.603-2.466c0-0.9-0.2011-1.7218-0.603-2.466c-0.4022-0.7439-0.963-1.332-1.683-1.764
				c-0.72-0.432-1.53-0.648-2.43-0.648s-1.71,0.216-2.43,0.648c-0.72,0.432-1.2811,1.0201-1.683,1.764
				c-0.4022,0.7442-0.603,1.566-0.603,2.466c0,0.9,0.2008,1.7221,0.603,2.466c0.4019,0.7442,0.963,1.332,1.683,1.764
				C340.1391,51.104,340.9491,51.32,341.8491,51.32L341.8491,51.32z M341.8491,49.934c-0.5642,0-1.0921-0.1409-1.584-0.423
				c-0.4922-0.2818-0.8851-0.6868-1.179-1.215c-0.2942-0.5279-0.441-1.1458-0.441-1.854c0-0.7079,0.1468-1.3258,0.441-1.854
				c0.2939-0.5279,0.6868-0.9329,1.179-1.215c0.4919-0.2818,1.0198-0.423,1.584-0.423c0.5639,0,1.089,0.1412,1.575,0.423
				c0.486,0.2821,0.8758,0.6871,1.17,1.215c0.2939,0.5282,0.441,1.1461,0.441,1.854c0,0.7082-0.1471,1.3261-0.441,1.854
				c-0.2942,0.5282-0.684,0.9332-1.17,1.215C342.9381,49.7931,342.413,49.934,341.8491,49.934L341.8491,49.934z"/>
			<path class="st0" d="M356.3209,51.32c0.9838,0,1.8208-0.234,2.511-0.702c0.6899-0.468,1.1908-1.08,1.503-1.836l-1.368-0.576
				c-0.2281,0.5521-0.576,0.9782-1.044,1.278c-0.468,0.3001-1.026,0.45-1.674,0.45c-0.54,0-1.044-0.1468-1.512-0.441
				c-0.468-0.2939-0.8432-0.7048-1.125-1.233c-0.2821-0.5279-0.423-1.134-0.423-1.818c0-0.684,0.1409-1.2898,0.423-1.818
				c0.2818-0.5279,0.657-0.9388,1.125-1.233c0.468-0.2939,0.972-0.441,1.512-0.441c0.6359,0,1.179,0.1471,1.629,0.441
				c0.45,0.2942,0.7889,0.7231,1.017,1.287l1.386-0.576c-0.288-0.7678-0.7712-1.3829-1.449-1.845
				c-0.6781-0.4618-1.5151-0.693-2.511-0.693c-0.8882,0-1.6861,0.2101-2.394,0.63c-0.7082,0.4202-1.26,1.0021-1.656,1.746
				c-0.396,0.7442-0.594,1.5781-0.594,2.502c0,0.9242,0.198,1.755,0.594,2.493c0.396,0.738,0.9478,1.3202,1.656,1.746
				C354.6348,51.1069,355.4327,51.32,356.3209,51.32L356.3209,51.32z"/>
			<path class="st0" d="M364.6979,51.32c0.6598,0,1.2538-0.1561,1.782-0.468c0.5279-0.3119,0.9239-0.6899,1.188-1.134h0.072v1.314
				h1.458v-5.814c0-1.1278-0.3572-2.0188-1.071-2.673c-0.7141-0.6539-1.6951-0.981-2.943-0.981c-0.7681,0-1.467,0.1561-2.097,0.468
				c-0.63,0.3122-1.125,0.7442-1.485,1.296l1.152,0.864c0.252-0.396,0.594-0.7048,1.026-0.927
				c0.432-0.2219,0.9059-0.333,1.422-0.333c0.7318,0,1.3379,0.207,1.818,0.621c0.4798,0.414,0.72,0.963,0.72,1.647v0.558
				c-0.252-0.1558-0.6151-0.2939-1.089-0.414c-0.4742-0.1198-0.9872-0.18-1.539-0.18c-1.116,0-2.0402,0.2731-2.772,0.819
				c-0.7321,0.5462-1.098,1.305-1.098,2.277c0,0.5881,0.144,1.1132,0.432,1.575c0.288,0.4621,0.6958,0.8252,1.224,1.089
				C363.4258,51.1879,364.0257,51.32,364.6979,51.32L364.6979,51.32z M364.8419,49.97c-0.5881,0-1.0741-0.1558-1.458-0.468
				c-0.3842-0.3119-0.576-0.72-0.576-1.224c0-0.5518,0.2129-1.0018,0.639-1.35c0.4258-0.3479,1.0589-0.522,1.899-0.522
				c0.468,0,0.9118,0.0602,1.332,0.18c0.4199,0.1201,0.774,0.2762,1.062,0.468c0,0.5282-0.1322,1.0142-0.396,1.458
				c-0.2641,0.4441-0.6182,0.7982-1.062,1.062C365.8378,49.8381,365.3577,49.97,364.8419,49.97L364.8419,49.97z"/>
			<path class="st0" d="M371.0626,51.032h1.53V38.144h-1.53V51.032z"/>
			<path class="st0" d="M374.5347,51.032h1.53V38.144h-1.53V51.032z"/>
			<path class="st0" d="M379.0455,51.032c0.3119,0,0.5788-0.1057,0.801-0.3172c0.2219-0.2115,0.333-0.4714,0.333-0.7802
				c0-0.2973-0.1111-0.5518-0.333-0.7633c-0.2222-0.2115-0.4891-0.3173-0.801-0.3173c-0.324,0-0.5971,0.1058-0.819,0.3173
				c-0.2222,0.2115-0.333,0.466-0.333,0.7633c0,0.3088,0.1108,0.5687,0.333,0.7802
				C378.4484,50.9263,378.7215,51.032,379.0455,51.032L379.0455,51.032z"/>
		</g>
	</g>
</g>
</svg>
