<?xml version="1.0" encoding="utf-8"?>
<!-- Generator: Adobe Illustrator 22.0.1, SVG Export Plug-In . SVG Version: 6.00 Build 0)  -->
<svg version="1.1" xmlns="http://www.w3.org/2000/svg" xmlns:xlink="http://www.w3.org/1999/xlink" x="0px" y="0px"
	 viewBox="0 0 728 90" enable-background="new 0 0 728 90" xml:space="preserve">
<g id="logo">
	<g>
		<path fill="#5F6368" d="M117,51.1V38.8h3.8c1.9,0,3.4,0.6,4.5,1.7c1.1,1.1,1.7,2.6,1.7,4.4c0,1.8-0.6,3.3-1.7,4.5
			c-1.1,1.1-2.6,1.7-4.5,1.7H117z M118.6,40.3v9.3h2.2c1.4,0,2.6-0.4,3.4-1.2c0.8-0.8,1.2-2,1.2-3.4c0-1.4-0.4-2.6-1.2-3.4
			c-0.8-0.8-2-1.2-3.4-1.2H118.6z"/>
		<path fill="#5F6368" d="M136,51.1h-1.5V50h-0.1c-0.2,0.4-0.6,0.8-1.1,1c-0.5,0.3-1,0.4-1.6,0.4c-1,0-1.8-0.3-2.4-0.9
			c-0.6-0.6-0.8-1.4-0.8-2.5v-5.3h1.6v5.2c0,1.4,0.7,2.1,2.1,2.1c0.6,0,1.2-0.3,1.6-0.8c0.4-0.5,0.6-1.1,0.6-1.8v-4.7h1.6V51.1z"/>
		<path fill="#5F6368" d="M137.3,46.9c0-1.3,0.4-2.4,1.2-3.2c0.8-0.8,1.9-1.3,3.1-1.3c1.2,0,2.3,0.4,3.1,1.3
			c0.8,0.8,1.2,1.9,1.2,3.2c0,1.3-0.4,2.4-1.2,3.2c-0.8,0.8-1.8,1.3-3.1,1.3c-1.2,0-2.3-0.4-3.1-1.3
			C137.7,49.3,137.3,48.2,137.3,46.9z M138.9,46.9c0,0.9,0.3,1.6,0.8,2.2c0.5,0.6,1.2,0.8,2,0.8c0.8,0,1.4-0.3,2-0.8
			c0.5-0.6,0.8-1.3,0.8-2.2c0-0.9-0.3-1.6-0.8-2.2c-0.5-0.6-1.2-0.9-2-0.9c-0.8,0-1.4,0.3-2,0.9C139.2,45.3,138.9,46,138.9,46.9z"/>
	</g>
	<g id="Art">
		<g>
			<path id="Teardrop" fill="#1A73E8" d="M46.4,45.1c-0.3,6.3-5.6,11.3-12,11.3c-6.6,0-12-5.4-12-12s5.4-12,12-12l0,0l0,0h10.1
				c1,0,1.9,0.9,1.9,1.9V45.1z"/>
		</g>
		<path id="Highlight" opacity="0.2" fill="#FFFFFF" enable-background="new    " d="M44.5,32.5H34.4l0,0c-6.6,0-12,5.4-12,12
			c0,0,0,0,0,0c0-6.6,5.4-11.8,12-11.8l0,0h10.1c1,0,1.9,0.9,1.9,1.9v-0.1C46.4,33.3,45.5,32.5,44.5,32.5z"/>
		<g id="Shadow">
			<g>
				<path fill="#1A237E" fill-opacity="0.2" d="M46.4,45.1v-0.3c-0.3,6.3-5.6,11.4-12,11.4c-6.6,0-11.9-5.4-12-12c0,0,0,0.1,0,0.1
					c0,6.6,5.4,12,12,12c6.5,0,11.7-5,12-11.4"/>
			</g>
		</g>
		<path id="Camera_Body_Shadow" fill="#185ABC" d="M39.3,46.8c0,1.2-0.9,1.9-2,1.9h-6.8c-1.1,0-2-0.7-2-1.9v0.7c0,1.2,0.9,2,2,2h6.8
			c1.1,0,2-0.9,2-2L39.3,46.8L39.3,46.8z"/>
		<path id="Camera_Lens_Shadow" fill="#185ABC" d="M42.6,47.3c0,0.3-0.5,0.5-0.7,0.3L39.3,45l0,0.7l2.6,2.6c0.3,0.3,0.7,0.1,0.7-0.3
			V47.3z"/>
		<g id="Camera">
			<path id="lens" fill="#F1F3F4" d="M41.9,40.8l-2.6,2.6l0,1.6l2.6,2.6c0.2,0.3,0.7,0.1,0.7-0.3l0-6.3
				C42.6,40.7,42.1,40.5,41.9,40.8z"/>
			<path id="body" fill="#FFFFFF" d="M37.3,39.5h-6.8c-1.1,0-2,0.9-2,2v5.2c0,1.1,0.9,2,2,2l6.8,0c1.1,0,2-0.9,2-2v-5.2
				C39.3,40.5,38.4,39.5,37.3,39.5z"/>
			<g id="inner_shadow__x28_clipped_to_lens_x29_">
				<polygon id="inner_shadow" fill="#BDC1C6" points="39.3,45.1 39.3,45 39.8,45.5 39.8,42.8 39.3,43.4 				"/>
			</g>
		</g>
	</g>
	<path fill="#5F6368" d="M62.8,51.4c-3.8,0-7.1-3.1-7.1-7c0-3.8,3.2-7,7.1-7c2.1,0,3.6,0.8,4.8,1.9l-1.3,1.3
		c-0.8-0.8-1.9-1.4-3.4-1.4c-2.8,0-5,2.3-5,5.1c0,2.8,2.2,5.1,5,5.1c1.8,0,2.9-0.7,3.5-1.4c0.5-0.5,0.9-1.3,1-2.4h-4.6v-1.9h6.4
		c0.1,0.3,0.1,0.7,0.1,1.2c0,1.4-0.4,3.2-1.7,4.4C66.5,50.7,64.9,51.4,62.8,51.4z"/>
	<path fill="#5F6368" d="M79.3,46.9c0,2.6-2,4.5-4.4,4.5c-2.4,0-4.4-1.9-4.4-4.5c0-2.6,2-4.5,4.4-4.5C77.3,42.4,79.3,44.3,79.3,46.9
		z M77.3,46.9c0-1.6-1.2-2.7-2.5-2.7s-2.5,1.1-2.5,2.7c0,1.6,1.2,2.7,2.5,2.7S77.3,48.5,77.3,46.9z"/>
	<path fill="#5F6368" d="M89.2,46.9c0,2.6-2,4.5-4.4,4.5c-2.4,0-4.4-1.9-4.4-4.5c0-2.6,2-4.5,4.4-4.5C87.2,42.4,89.2,44.3,89.2,46.9
		z M87.3,46.9c0-1.6-1.2-2.7-2.5-2.7c-1.3,0-2.5,1.1-2.5,2.7c0,1.6,1.2,2.7,2.5,2.7C86.1,49.6,87.3,48.5,87.3,46.9z"/>
	<path fill="#5F6368" d="M98.9,42.7v8c0,3.3-2,4.7-4.3,4.7c-2.2,0-3.5-1.5-4-2.6l1.7-0.7c0.3,0.7,1.1,1.6,2.3,1.6
		c1.5,0,2.4-0.9,2.4-2.6v-0.6h-0.1c-0.4,0.5-1.3,1-2.4,1c-2.2,0-4.3-2-4.3-4.5c0-2.5,2.1-4.5,4.3-4.5c1.1,0,1.9,0.5,2.4,1H97v-0.7
		H98.9z M97.2,46.9c0-1.6-1.1-2.7-2.4-2.7c-1.4,0-2.5,1.2-2.5,2.7c0,1.6,1.1,2.7,2.5,2.7C96.1,49.6,97.2,48.5,97.2,46.9z"/>
	<path fill="#5F6368" d="M102.4,38v13.2h-2V38H102.4z"/>
	<path fill="#5F6368" d="M110.1,48.4l1.5,1c-0.5,0.7-1.7,2-3.7,2c-2.6,0-4.4-2-4.4-4.5c0-2.7,1.9-4.5,4.2-4.5c2.3,0,3.5,1.8,3.8,2.8
		l0.2,0.5l-6,2.5c0.5,0.9,1.2,1.4,2.2,1.4C108.9,49.6,109.6,49.1,110.1,48.4z M105.4,46.8l4-1.7c-0.2-0.6-0.9-0.9-1.7-0.9
		C106.7,44.2,105.4,45.1,105.4,46.8z"/>
</g>
</svg>
