<?xml version="1.0" encoding="utf-8"?>
<!-- Generator: Adobe Illustrator 22.1.0, SVG Export Plug-In . SVG Version: 6.00 Build 0)  -->
<svg version="1.1" xmlns="http://www.w3.org/2000/svg" xmlns:xlink="http://www.w3.org/1999/xlink" x="0px" y="0px"
	 viewBox="0 0 970 250" style="enable-background:new 0 0 970 250;" xml:space="preserve">
<style type="text/css">
	.st0{fill:#4D4D4D;}
</style>
<g id="copy">
	<g id="copy01_ln01">
		<path class="st0" d="M68.605,144.8534h2.38v-17.78h5.6v-2.268H62.977v2.268h5.628V144.8534z"/>
		<path class="st0" d="M79.8634,127.9694c0.4852,0,0.8912-0.168,1.218-0.504c0.3264-0.336,0.49-0.7372,0.49-1.204
			c0-0.4664-0.168-0.8632-0.504-1.19c-0.336-0.3264-0.7376-0.49-1.204-0.49c-0.4668,0-0.868,0.1636-1.204,0.49
			c-0.336,0.3268-0.504,0.7236-0.504,1.19c0,0.4668,0.168,0.868,0.504,1.204S79.3966,127.9694,79.8634,127.9694L79.8634,127.9694z
			 M78.6874,144.8534h2.352v-14.28h-2.352V144.8534z"/>
		<path class="st0" d="M88.983,145.3014c1.0452,0,1.9972-0.1776,2.856-0.532c0.8584-0.3544,1.54-0.8632,2.044-1.526
			c0.504-0.6624,0.756-1.4324,0.756-2.31c0-1.008-0.3548-1.862-1.064-2.562c-0.7096-0.7-1.764-1.2272-3.164-1.582l-2.072-0.532
			c-0.8216-0.2052-1.4376-0.4712-1.848-0.798c-0.4108-0.3264-0.616-0.7512-0.616-1.274c0-0.56,0.294-1.022,0.882-1.386
			c0.588-0.364,1.274-0.546,2.058-0.546c1.624,0,2.7532,0.6348,3.388,1.904l2.072-0.952c-0.4108-0.9704-1.106-1.7264-2.086-2.268
			c-0.98-0.5412-2.0956-0.812-3.346-0.812c-0.952,0-1.8388,0.168-2.66,0.504c-0.8216,0.336-1.4796,0.8168-1.974,1.442
			c-0.4948,0.6256-0.742,1.3488-0.742,2.17c0,1.064,0.364,1.932,1.092,2.604c0.728,0.672,1.6612,1.148,2.8,1.428l1.736,0.448
			c1.0824,0.2616,1.876,0.574,2.38,0.938s0.756,0.8448,0.756,1.442c0,0.672-0.3176,1.19-0.952,1.554
			c-0.6348,0.364-1.4,0.546-2.296,0.546c-0.84,0-1.61-0.2332-2.31-0.7c-0.7-0.4664-1.2276-1.1292-1.582-1.988l-2.128,0.952
			c0.4292,1.12,1.1572,2.0396,2.184,2.758C86.1734,144.9418,87.4522,145.3014,88.983,145.3014L88.983,145.3014z"/>
		<path class="st0" d="M108.6666,145.3014c0.448,0,0.8164-0.028,1.106-0.084c0.2892-0.056,0.574-0.1496,0.854-0.28v-2.324
			c-0.504,0.3176-1.0268,0.476-1.568,0.476c-0.672,0-1.1856-0.2095-1.54-0.6295c-0.2988-0.3815-0.448-0.973-0.448-1.7745v-7.956
			h3.472v-2.156h-3.472v-4.032h-2.38v4.032h-2.492v2.156h2.492v8.5238c0,0.6843,0.0932,1.264,0.28,1.7391
			c0.1864,0.4751,0.4664,0.8934,0.84,1.2543c0.336,0.3233,0.7512,0.5801,1.246,0.77
			C107.551,145.206,108.0878,145.3014,108.6666,145.3014L108.6666,145.3014z"/>
		<path class="st0" d="M112.3765,144.8534h2.38v-7.952c0-0.7652,0.182-1.5024,0.546-2.212c0.364-0.7092,0.8584-1.288,1.484-1.736
			c0.6252-0.448,1.3112-0.672,2.058-0.672c1.0452,0,1.8944,0.308,2.548,0.924c0.6532,0.616,0.98,1.568,0.98,2.856v8.792h2.38v-9.156
			c0-1.68-0.4576-3.0284-1.372-4.046c-0.9148-1.0172-2.24-1.526-3.976-1.526c-1.008,0-1.9368,0.2428-2.786,0.728
			c-0.8496,0.4856-1.47,1.092-1.862,1.82h-0.112l0.112-1.96v-5.908h-2.38V144.8534z"/>
		<path class="st0" d="M133.8944,145.3014c1.4932,0,2.7672-0.336,3.822-1.008c1.0544-0.672,1.89-1.5864,2.506-2.744l-2.016-0.98
			c-0.9896,1.7176-2.3988,2.576-4.228,2.576c-0.784,0-1.5356-0.1864-2.254-0.56c-0.7188-0.3732-1.3116-0.9332-1.778-1.68
			c-0.4668-0.7464-0.728-1.6612-0.784-2.744h11.284c0.056-0.2052,0.084-0.448,0.084-0.728c0-1.4184-0.2756-2.6784-0.826-3.78
			c-0.5508-1.1012-1.3396-1.9644-2.366-2.59c-1.0268-0.6252-2.24-0.938-3.64-0.938c-1.3816,0-2.5948,0.3456-3.64,1.036
			c-1.0456,0.6908-1.8528,1.6148-2.422,2.772c-0.5696,1.1576-0.854,2.4268-0.854,3.808c0,1.4376,0.3032,2.73,0.91,3.878
			c0.6064,1.148,1.4512,2.0488,2.534,2.702C131.3088,144.9746,132.5316,145.3014,133.8944,145.3014L133.8944,145.3014z
			 M129.3024,136.2014c0.2424-1.176,0.7512-2.1232,1.526-2.842c0.7744-0.7184,1.722-1.078,2.842-1.078
			c0.9704,0,1.778,0.2056,2.422,0.616c0.644,0.4108,1.1152,0.9148,1.414,1.512c0.2984,0.5976,0.4664,1.1948,0.504,1.792H129.3024z"
			/>
		<path class="st0" d="M154.2219,145.3014c1.0452,0,1.9972-0.1776,2.856-0.532c0.8584-0.3544,1.54-0.8632,2.044-1.526
			c0.504-0.6624,0.756-1.4324,0.756-2.31c0-1.008-0.3548-1.862-1.064-2.562c-0.7096-0.7-1.764-1.2272-3.164-1.582l-2.072-0.532
			c-0.8216-0.2052-1.4376-0.4712-1.848-0.798c-0.4108-0.3264-0.616-0.7512-0.616-1.274c0-0.56,0.294-1.022,0.882-1.386
			s1.274-0.546,2.058-0.546c1.624,0,2.7532,0.6348,3.388,1.904l2.072-0.952c-0.4108-0.9704-1.106-1.7264-2.086-2.268
			c-0.98-0.5412-2.0956-0.812-3.346-0.812c-0.952,0-1.8388,0.168-2.66,0.504c-0.8216,0.336-1.4796,0.8168-1.974,1.442
			c-0.4948,0.6256-0.742,1.3488-0.742,2.17c0,1.064,0.364,1.932,1.092,2.604c0.728,0.672,1.6612,1.148,2.8,1.428l1.736,0.448
			c1.0824,0.2616,1.876,0.574,2.38,0.938s0.756,0.8448,0.756,1.442c0,0.672-0.3176,1.19-0.952,1.554
			c-0.6348,0.364-1.4,0.546-2.296,0.546c-0.84,0-1.61-0.2332-2.31-0.7c-0.7-0.4664-1.2276-1.1292-1.582-1.988l-2.128,0.952
			c0.4292,1.12,1.1572,2.0396,2.184,2.758C151.4123,144.9418,152.6911,145.3014,154.2219,145.3014L154.2219,145.3014z"/>
		<path class="st0" d="M168.1461,145.3014c1.4932,0,2.7672-0.336,3.822-1.008c1.0544-0.672,1.89-1.5864,2.506-2.744l-2.016-0.98
			c-0.9896,1.7176-2.3988,2.576-4.228,2.576c-0.784,0-1.5356-0.1864-2.254-0.56c-0.7188-0.3732-1.3116-0.9332-1.778-1.68
			c-0.4668-0.7464-0.728-1.6612-0.784-2.744h11.284c0.056-0.2052,0.084-0.448,0.084-0.728c0-1.4184-0.2756-2.6784-0.826-3.78
			c-0.5508-1.1012-1.3396-1.9644-2.366-2.59c-1.0268-0.6252-2.24-0.938-3.64-0.938c-1.3816,0-2.5948,0.3456-3.64,1.036
			c-1.0456,0.6908-1.8528,1.6148-2.422,2.772c-0.5696,1.1576-0.854,2.4268-0.854,3.808c0,1.4376,0.3032,2.73,0.91,3.878
			c0.6064,1.148,1.4512,2.0488,2.534,2.702C165.5605,144.9746,166.7833,145.3014,168.1461,145.3014L168.1461,145.3014z
			 M163.5541,136.2014c0.2424-1.176,0.7512-2.1232,1.526-2.842c0.7744-0.7184,1.722-1.078,2.842-1.078
			c0.9704,0,1.778,0.2056,2.422,0.616c0.644,0.4108,1.1152,0.9148,1.414,1.512c0.2984,0.5976,0.4664,1.1948,0.504,1.792H163.5541z"
			/>
		<path class="st0" d="M181.3366,145.3014c1.0263,0,1.9503-0.2428,2.772-0.728c0.8212-0.4852,1.4372-1.0732,1.848-1.764h0.112v2.044
			h2.268v-9.044c0-1.7544-0.5557-3.1404-1.666-4.158c-1.1108-1.0172-2.6368-1.526-4.578-1.526c-1.1948,0-2.282,0.2428-3.262,0.728
			c-0.98,0.4856-1.75,1.1576-2.31,2.016l1.792,1.344c0.392-0.616,0.924-1.0964,1.596-1.442c0.672-0.3452,1.4092-0.518,2.212-0.518
			c1.1383,0,2.0812,0.322,2.828,0.966c0.7463,0.644,1.12,1.498,1.12,2.562v0.868c-0.392-0.2424-0.9568-0.4572-1.694-0.644
			c-0.7377-0.1864-1.5357-0.28-2.394-0.28c-1.736,0-3.1737,0.4248-4.312,1.274c-1.1388,0.8496-1.708,2.03-1.708,3.542
			c0,0.9148,0.224,1.7316,0.672,2.45c0.448,0.7188,1.0823,1.2836,1.904,1.694
			C179.3578,145.0958,180.2909,145.3014,181.3366,145.3014L181.3366,145.3014z M181.5606,143.2014
			c-0.9148,0-1.6708-0.2424-2.268-0.728c-0.5977-0.4852-0.896-1.12-0.896-1.904c0-0.8584,0.3312-1.5584,0.994-2.1
			c0.6623-0.5412,1.6472-0.812,2.954-0.812c0.728,0,1.4183,0.0936,2.072,0.28c0.6532,0.1868,1.204,0.4296,1.652,0.728
			c0,0.8216-0.2057,1.5776-0.616,2.268c-0.4108,0.6908-0.9617,1.2416-1.652,1.652
			C183.1098,142.9962,182.3629,143.2014,181.5606,143.2014L181.5606,143.2014z"/>
		<path class="st0" d="M195.9747,145.3014c1.0452,0,1.9972-0.1776,2.856-0.532c0.8584-0.3544,1.54-0.8632,2.044-1.526
			c0.504-0.6624,0.756-1.4324,0.756-2.31c0-1.008-0.3548-1.862-1.064-2.562c-0.7096-0.7-1.764-1.2272-3.164-1.582l-2.072-0.532
			c-0.8216-0.2052-1.4376-0.4712-1.848-0.798c-0.4108-0.3264-0.616-0.7512-0.616-1.274c0-0.56,0.294-1.022,0.882-1.386
			s1.274-0.546,2.058-0.546c1.624,0,2.7532,0.6348,3.388,1.904l2.072-0.952c-0.4108-0.9704-1.106-1.7264-2.086-2.268
			c-0.98-0.5412-2.0956-0.812-3.346-0.812c-0.952,0-1.8388,0.168-2.66,0.504c-0.8216,0.336-1.4796,0.8168-1.974,1.442
			c-0.4948,0.6256-0.742,1.3488-0.742,2.17c0,1.064,0.364,1.932,1.092,2.604c0.728,0.672,1.6612,1.148,2.8,1.428l1.736,0.448
			c1.0824,0.2616,1.876,0.574,2.38,0.938s0.756,0.8448,0.756,1.442c0,0.672-0.3176,1.19-0.952,1.554
			c-0.6348,0.364-1.4,0.546-2.296,0.546c-0.84,0-1.61-0.2332-2.31-0.7c-0.7-0.4664-1.2276-1.1292-1.582-1.988l-2.128,0.952
			c0.4292,1.12,1.1572,2.0396,2.184,2.758C193.1651,144.9418,194.4439,145.3014,195.9747,145.3014L195.9747,145.3014z"/>
		<path class="st0" d="M210.1229,145.3014c1.4,0,2.66-0.336,3.78-1.008c1.12-0.672,1.9923-1.5864,2.618-2.744
			c0.6252-1.1572,0.938-2.436,0.938-3.836s-0.3128-2.6784-0.938-3.836c-0.6257-1.1572-1.498-2.072-2.618-2.744
			c-1.12-0.672-2.38-1.008-3.78-1.008c-1.4,0-2.66,0.336-3.78,1.008c-1.12,0.672-1.9928,1.5868-2.618,2.744
			c-0.6257,1.1576-0.938,2.436-0.938,3.836s0.3123,2.6788,0.938,3.836c0.6252,1.1576,1.498,2.072,2.618,2.744
			C207.4629,144.9654,208.7229,145.3014,210.1229,145.3014L210.1229,145.3014z M210.1229,143.1454
			c-0.8777,0-1.6988-0.2192-2.464-0.658c-0.7657-0.4384-1.3768-1.0684-1.834-1.89c-0.4577-0.8212-0.686-1.7824-0.686-2.884
			c0-1.1012,0.2283-2.0624,0.686-2.884c0.4572-0.8212,1.0683-1.4512,1.834-1.89c0.7652-0.4384,1.5863-0.658,2.464-0.658
			c0.8772,0,1.694,0.2196,2.45,0.658c0.756,0.4388,1.3623,1.0688,1.82,1.89c0.4572,0.8216,0.686,1.7828,0.686,2.884
			c0,1.1016-0.2288,2.0628-0.686,2.884c-0.4577,0.8216-1.064,1.4516-1.82,1.89
			C211.8169,142.9262,211.0001,143.1454,210.1229,143.1454L210.1229,143.1454z"/>
		<path class="st0" d="M219.5923,144.8534h2.38v-8.036c0-0.7652,0.168-1.498,0.504-2.198c0.336-0.7,0.8072-1.2644,1.414-1.694
			c0.6064-0.4292,1.2923-0.644,2.058-0.644c1.1012,0,1.9692,0.2988,2.604,0.896c0.6343,0.5976,0.952,1.5588,0.952,2.884v8.792h2.38
			v-9.156c0-1.7172-0.4528-3.0752-1.358-4.074c-0.9056-0.9984-2.2168-1.498-3.934-1.498c-0.9708,0-1.8857,0.2476-2.744,0.742
			c-0.8588,0.4948-1.484,1.0968-1.876,1.806h-0.112v-2.1h-2.268V144.8534z"/>
	</g>
	<g id="copy01_ln02">
		<path class="st0" d="M69.501,178.3014c0.448,0,0.8164-0.028,1.106-0.084c0.2892-0.056,0.574-0.1496,0.854-0.28v-2.324
			c-0.504,0.3176-1.0268,0.476-1.568,0.476c-0.672,0-1.1856-0.2095-1.54-0.6295c-0.2988-0.3815-0.448-0.973-0.448-1.7745v-7.956
			h3.472v-2.156h-3.472v-4.032h-2.38v4.032h-2.492v2.156h2.492v8.5238c0,0.6843,0.0932,1.264,0.28,1.7391
			c0.1864,0.4751,0.4664,0.8934,0.84,1.2543c0.336,0.3233,0.7512,0.5801,1.246,0.77
			C68.3854,178.206,68.9222,178.3014,69.501,178.3014L69.501,178.3014z"/>
		<path class="st0" d="M79.4465,178.3014c1.4,0,2.66-0.336,3.78-1.008c1.12-0.672,1.9924-1.5864,2.618-2.744
			c0.6252-1.1572,0.938-2.436,0.938-3.836c0-1.4-0.3128-2.6784-0.938-3.836c-0.6256-1.1572-1.498-2.072-2.618-2.744
			c-1.12-0.672-2.38-1.008-3.78-1.008c-1.4,0-2.66,0.336-3.78,1.008c-1.12,0.672-1.9928,1.5868-2.618,2.744
			c-0.6256,1.1576-0.938,2.436-0.938,3.836c0,1.4,0.3124,2.6788,0.938,3.836c0.6252,1.1576,1.498,2.072,2.618,2.744
			C76.7865,177.9654,78.0465,178.3014,79.4465,178.3014L79.4465,178.3014z M79.4465,176.1454c-0.8776,0-1.6988-0.2192-2.464-0.658
			c-0.7656-0.4384-1.3768-1.0684-1.834-1.89c-0.4576-0.8212-0.686-1.7824-0.686-2.884c0-1.1012,0.2284-2.0624,0.686-2.884
			c0.4572-0.8212,1.0684-1.4512,1.834-1.89c0.7652-0.4384,1.5864-0.658,2.464-0.658c0.8772,0,1.694,0.2196,2.45,0.658
			c0.756,0.4388,1.3624,1.0688,1.82,1.89c0.4572,0.8216,0.686,1.7828,0.686,2.884c0,1.1016-0.2288,2.0628-0.686,2.884
			c-0.4576,0.8216-1.064,1.4516-1.82,1.89C81.1405,175.9262,80.3237,176.1454,79.4465,176.1454L79.4465,176.1454z"/>
		<path class="st0" d="M99.6902,177.8534h2.408l5.824-14.28h-2.492l-4.48,11.48h-0.056l-4.424-11.48h-2.548L99.6902,177.8534z"/>
		<path class="st0" d="M110.5624,160.9694c0.4852,0,0.8912-0.168,1.218-0.504c0.3264-0.336,0.49-0.7372,0.49-1.204
			c0-0.4664-0.168-0.8632-0.504-1.19c-0.336-0.3264-0.7376-0.49-1.204-0.49c-0.4668,0-0.868,0.1636-1.204,0.49
			c-0.336,0.3268-0.504,0.7236-0.504,1.19c0,0.4668,0.168,0.868,0.504,1.204S110.0956,160.9694,110.5624,160.9694L110.5624,160.9694
			z M109.3864,177.8534h2.352v-14.28h-2.352V177.8534z"/>
		<path class="st0" d="M120.7347,178.3014c1.1012,0,2.0812-0.2476,2.94-0.742c0.8584-0.4944,1.512-1.0964,1.96-1.806h0.112v2.1
			h2.268v-20.048h-2.38v5.908l0.112,1.988h-0.112c-0.448-0.728-1.1016-1.3392-1.96-1.834c-0.8588-0.4944-1.8388-0.742-2.94-0.742
			c-1.2696,0-2.422,0.3268-3.458,0.98c-1.036,0.6536-1.8528,1.5588-2.45,2.716c-0.5976,1.1576-0.896,2.4548-0.896,3.892
			c0,1.456,0.2984,2.758,0.896,3.906c0.5972,1.148,1.414,2.0488,2.45,2.702C118.3127,177.9746,119.4651,178.3014,120.7347,178.3014
			L120.7347,178.3014z M121.0147,176.1454c-0.8216,0-1.596-0.224-2.324-0.672c-0.728-0.448-1.3116-1.0872-1.75-1.918
			c-0.4388-0.8304-0.658-1.778-0.658-2.842s0.2192-2.0112,0.658-2.842c0.4384-0.8304,1.022-1.47,1.75-1.918
			c0.728-0.448,1.5024-0.672,2.324-0.672c0.84,0,1.6192,0.224,2.338,0.672c0.7184,0.448,1.2972,1.0828,1.736,1.904
			c0.4384,0.8216,0.658,1.7736,0.658,2.856c0,1.0828-0.2196,2.0348-0.658,2.856c-0.4388,0.8216-1.0176,1.456-1.736,1.904
			C122.6339,175.9214,121.8547,176.1454,121.0147,176.1454L121.0147,176.1454z"/>
		<path class="st0" d="M137.274,178.3014c1.4932,0,2.7672-0.336,3.822-1.008c1.0544-0.672,1.89-1.5864,2.506-2.744l-2.016-0.98
			c-0.9896,1.7176-2.3988,2.576-4.228,2.576c-0.784,0-1.5356-0.1864-2.254-0.56c-0.7188-0.3732-1.3116-0.9332-1.778-1.68
			c-0.4668-0.7464-0.728-1.6612-0.784-2.744h11.284c0.056-0.2052,0.084-0.448,0.084-0.728c0-1.4184-0.2756-2.6784-0.826-3.78
			c-0.5508-1.1012-1.3396-1.9644-2.366-2.59c-1.0268-0.6252-2.24-0.938-3.64-0.938c-1.3816,0-2.5948,0.3456-3.64,1.036
			c-1.0456,0.6908-1.8528,1.6148-2.422,2.772c-0.5696,1.1576-0.854,2.4268-0.854,3.808c0,1.4376,0.3032,2.73,0.91,3.878
			c0.6064,1.148,1.4512,2.0488,2.534,2.702C134.6884,177.9746,135.9112,178.3014,137.274,178.3014L137.274,178.3014z
			 M132.682,169.2014c0.2424-1.176,0.7512-2.1232,1.526-2.842c0.7744-0.7184,1.722-1.078,2.842-1.078
			c0.9704,0,1.778,0.2056,2.422,0.616c0.644,0.4108,1.1152,0.9148,1.414,1.512c0.2984,0.5976,0.4664,1.1948,0.504,1.792H132.682z"/>
		<path class="st0" d="M152.6177,178.3014c1.4,0,2.66-0.336,3.78-1.008c1.12-0.672,1.9924-1.5864,2.618-2.744
			c0.6252-1.1572,0.938-2.436,0.938-3.836c0-1.4-0.3128-2.6784-0.938-3.836c-0.6256-1.1572-1.498-2.072-2.618-2.744
			c-1.12-0.672-2.38-1.008-3.78-1.008c-1.4,0-2.66,0.336-3.78,1.008c-1.12,0.672-1.9928,1.5868-2.618,2.744
			c-0.6256,1.1576-0.938,2.436-0.938,3.836c0,1.4,0.3124,2.6788,0.938,3.836c0.6252,1.1576,1.498,2.072,2.618,2.744
			C149.9577,177.9654,151.2177,178.3014,152.6177,178.3014L152.6177,178.3014z M152.6177,176.1454
			c-0.8776,0-1.6988-0.2192-2.464-0.658c-0.7656-0.4384-1.3768-1.0684-1.834-1.89c-0.4576-0.8212-0.686-1.7824-0.686-2.884
			c0-1.1012,0.2284-2.0624,0.686-2.884c0.4572-0.8212,1.0684-1.4512,1.834-1.89c0.7652-0.4384,1.5864-0.658,2.464-0.658
			c0.8772,0,1.694,0.2196,2.45,0.658c0.756,0.4388,1.3624,1.0688,1.82,1.89c0.4572,0.8216,0.686,1.7828,0.686,2.884
			c0,1.1016-0.2288,2.0628-0.686,2.884c-0.4576,0.8216-1.064,1.4516-1.82,1.89
			C154.3117,175.9262,153.4949,176.1454,152.6177,176.1454L152.6177,176.1454z"/>
		<path class="st0" d="M175.1294,178.3014c1.5303,0,2.8323-0.364,3.906-1.092c1.0732-0.728,1.8523-1.68,2.338-2.856l-2.128-0.896
			c-0.3548,0.8588-0.896,1.5216-1.624,1.988c-0.728,0.4668-1.596,0.7-2.604,0.7c-0.84,0-1.624-0.2284-2.352-0.686
			c-0.728-0.4572-1.3117-1.0964-1.75-1.918c-0.4388-0.8212-0.658-1.764-0.658-2.828s0.2192-2.0064,0.658-2.828
			c0.4383-0.8212,1.022-1.4604,1.75-1.918c0.728-0.4572,1.512-0.686,2.352-0.686c0.9892,0,1.834,0.2288,2.534,0.686
			c0.7,0.4576,1.2272,1.1248,1.582,2.002l2.156-0.896c-0.448-1.1944-1.1997-2.1512-2.254-2.87
			c-1.0548-0.7184-2.3568-1.078-3.906-1.078c-1.3817,0-2.6228,0.3268-3.724,0.98c-1.1017,0.6536-1.96,1.5588-2.576,2.716
			c-0.616,1.1576-0.924,2.4548-0.924,3.892c0,1.4376,0.308,2.73,0.924,3.878c0.616,1.148,1.4743,2.0536,2.576,2.716
			C172.5066,177.9698,173.7477,178.3014,175.1294,178.3014L175.1294,178.3014z"/>
		<path class="st0" d="M188.0035,178.3014c1.0264,0,1.9504-0.2428,2.772-0.728c0.8212-0.4852,1.4372-1.0732,1.848-1.764h0.112v2.044
			h2.268v-9.044c0-1.7544-0.5556-3.1404-1.666-4.158c-1.1108-1.0172-2.6368-1.526-4.578-1.526c-1.1948,0-2.282,0.2428-3.262,0.728
			c-0.98,0.4856-1.75,1.1576-2.31,2.016l1.792,1.344c0.392-0.616,0.924-1.0964,1.596-1.442c0.672-0.3452,1.4092-0.518,2.212-0.518
			c1.1384,0,2.0812,0.322,2.828,0.966c0.7464,0.644,1.12,1.498,1.12,2.562v0.868c-0.392-0.2424-0.9568-0.4572-1.694-0.644
			c-0.7376-0.1864-1.5356-0.28-2.394-0.28c-1.736,0-3.1736,0.4248-4.312,1.274c-1.1388,0.8496-1.708,2.03-1.708,3.542
			c0,0.9148,0.224,1.7316,0.672,2.45c0.448,0.7188,1.0824,1.2836,1.904,1.694
			C186.0247,178.0958,186.9579,178.3014,188.0035,178.3014L188.0035,178.3014z M188.2275,176.2014
			c-0.9148,0-1.6708-0.2424-2.268-0.728c-0.5976-0.4852-0.896-1.12-0.896-1.904c0-0.8584,0.3312-1.5584,0.994-2.1
			c0.6624-0.5412,1.6472-0.812,2.954-0.812c0.728,0,1.4184,0.0936,2.072,0.28c0.6532,0.1868,1.204,0.4296,1.652,0.728
			c0,0.8216-0.2056,1.5776-0.616,2.268c-0.4108,0.6908-0.9616,1.2416-1.652,1.652
			C189.7767,175.9962,189.0299,176.2014,188.2275,176.2014L188.2275,176.2014z"/>
		<path class="st0" d="M197.7444,177.8534h2.38v-20.048h-2.38V177.8534z"/>
		<path class="st0" d="M202.9832,177.8534h2.38v-20.048h-2.38V177.8534z"/>
		<path class="st0" d="M209.8291,177.8534c0.4852,0,0.9004-0.1645,1.246-0.4935c0.3452-0.329,0.518-0.7332,0.518-1.2136
			c0-0.4624-0.1728-0.8584-0.518-1.1874c-0.3456-0.329-0.7608-0.4935-1.246-0.4935c-0.504,0-0.9288,0.1645-1.274,0.4935
			c-0.3456,0.329-0.518,0.725-0.518,1.1874c0,0.4804,0.1724,0.8846,0.518,1.2136
			C208.9003,177.6889,209.3251,177.8534,209.8291,177.8534L209.8291,177.8534z"/>
	</g>
</g>
</svg>
