<?xml version="1.0" encoding="utf-8"?>
<!-- Generator: Adobe Illustrator 22.0.1, SVG Export Plug-In . SVG Version: 6.00 Build 0)  -->
<svg version="1.1" id="Layer_1" xmlns="http://www.w3.org/2000/svg" xmlns:xlink="http://www.w3.org/1999/xlink" x="0px" y="0px"
	 viewBox="0 0 970 250" style="enable-background:new 0 0 970 250;" xml:space="preserve">
<style type="text/css">
	.st9{fill:#1A73E8;}
	.st1{fill:#FFFFFF;}
</style>
<g id="cta">
	<path id="ctaShape" class="st9" d="M906.3,146H773.7c-0.9,0-1.7-0.8-1.7-1.7v-38.6c0-0.9,0.8-1.7,1.7-1.7h132.6
		c0.9,0,1.7,0.8,1.7,1.7v38.6C908,145.2,907.2,146,906.3,146z"/>
	<g id="ctaCopy">
		<path class="st1" d="M812.8,129.2c-0.9-0.5-1.5-1.2-2-2c-0.5-0.9-0.7-1.8-0.7-2.8s0.2-2,0.7-2.9c0.5-0.9,1.2-1.5,2-2
			c0.9-0.5,1.8-0.7,2.8-0.7c0.8,0,1.5,0.1,2.2,0.5c0.7,0.3,1.3,0.7,1.8,1.3l-1.2,1.2c-0.4-0.4-0.8-0.8-1.2-1c-0.5-0.2-1-0.3-1.5-0.3
			c-0.7,0-1.4,0.2-2,0.5s-1.1,0.8-1.4,1.4c-0.4,0.6-0.5,1.3-0.5,2.1s0.2,1.5,0.5,2.1c0.3,0.6,0.8,1.1,1.4,1.4s1.3,0.5,2,0.5
			c1.2,0,2.2-0.5,3.1-1.5l1.2,1.2c-0.5,0.6-1.1,1.1-1.9,1.4c-0.7,0.3-1.5,0.5-2.4,0.5C814.6,129.9,813.6,129.7,812.8,129.2z"/>
		<path class="st1" d="M822.1,129.6c-0.4-0.2-0.8-0.5-1-0.9c-0.2-0.4-0.4-0.8-0.4-1.3c0-0.8,0.3-1.4,0.9-1.9
			c0.6-0.5,1.3-0.7,2.3-0.7c0.5,0,0.9,0,1.2,0.1c0.4,0.1,0.6,0.2,0.9,0.3v-0.4c0-0.5-0.2-0.9-0.5-1.1c-0.3-0.3-0.8-0.4-1.3-0.4
			c-0.4,0-0.8,0.1-1.1,0.3c-0.3,0.2-0.6,0.4-0.8,0.7l-1.2-0.9c0.3-0.5,0.8-0.8,1.3-1.1c0.5-0.3,1.1-0.4,1.8-0.4c1.1,0,2,0.3,2.6,0.8
			c0.6,0.5,0.9,1.3,0.9,2.3v4.8H826v-0.9h-0.1c-0.2,0.3-0.5,0.6-0.9,0.8c-0.4,0.2-0.9,0.3-1.4,0.3
			C823,129.9,822.5,129.8,822.1,129.6z M824.9,128.3c0.3-0.2,0.6-0.4,0.8-0.8c0.2-0.3,0.3-0.7,0.3-1c-0.2-0.1-0.5-0.2-0.8-0.3
			s-0.6-0.1-1-0.1c-0.6,0-1.1,0.1-1.4,0.4s-0.4,0.6-0.4,1c0,0.4,0.1,0.6,0.4,0.9c0.3,0.2,0.6,0.3,1,0.3
			C824.3,128.6,824.6,128.5,824.9,128.3z"/>
		<path class="st1" d="M829.4,119h1.7v10.7h-1.7V119z"/>
		<path class="st1" d="M833,119h1.7v10.7H833V119z"/>
		<path class="st1" d="M840.1,122.1h1.6v1h0.1c0.2-0.4,0.5-0.7,1-0.9c0.4-0.2,0.9-0.4,1.4-0.4c0.9,0,1.6,0.3,2.1,0.8
			s0.7,1.3,0.7,2.2v4.8h-1.7v-4.6c0-0.6-0.1-1-0.4-1.3s-0.7-0.4-1.2-0.4c-0.4,0-0.7,0.1-1,0.3c-0.3,0.2-0.5,0.5-0.7,0.8
			s-0.2,0.7-0.2,1.1v4.1h-1.7V122.1z"/>
		<path class="st1" d="M850.3,129.4c-0.6-0.4-1.1-0.8-1.4-1.5s-0.5-1.3-0.5-2.1s0.2-1.4,0.5-2.1s0.8-1.1,1.4-1.5
			c0.6-0.4,1.3-0.5,2.1-0.5c0.8,0,1.5,0.2,2.1,0.5c0.6,0.4,1.1,0.9,1.4,1.5s0.5,1.3,0.5,2.1c0,0.8-0.2,1.5-0.5,2.1s-0.8,1.1-1.4,1.5
			c-0.6,0.4-1.3,0.5-2.1,0.5C851.6,129.9,850.9,129.8,850.3,129.4z M853.5,128.1c0.4-0.2,0.6-0.5,0.9-0.9s0.3-0.8,0.3-1.4
			c0-0.5-0.1-1-0.3-1.3s-0.5-0.7-0.9-0.9c-0.4-0.2-0.8-0.3-1.2-0.3s-0.8,0.1-1.2,0.3c-0.4,0.2-0.6,0.5-0.9,0.9
			c-0.2,0.4-0.3,0.8-0.3,1.3c0,0.5,0.1,1,0.3,1.4c0.2,0.4,0.5,0.7,0.9,0.9c0.4,0.2,0.8,0.3,1.2,0.3S853.2,128.3,853.5,128.1z"/>
		<path class="st1" d="M856.9,122.1h1.8l1.5,5.5h0.1l1.7-5.5h1.7l1.7,5.5h0.1l1.5-5.5h1.8l-2.4,7.6h-1.7l-1.8-5.5h0l-1.7,5.5h-1.7
			L856.9,122.1z"/>
	</g>
</g>
</svg>
