<?xml version="1.0" encoding="utf-8"?>
<!-- Generator: Adobe Illustrator 22.0.1, SVG Export Plug-In . SVG Version: 6.00 Build 0)  -->
<svg version="1.1" xmlns="http://www.w3.org/2000/svg" xmlns:xlink="http://www.w3.org/1999/xlink" x="0px" y="0px"
	 viewBox="0 0 300 50" enable-background="new 0 0 300 50" xml:space="preserve">
<g id="logo">
	<g>
		<path fill="#5F6368" d="M64.2,28.3v-7h2.1c1.1,0,1.9,0.3,2.6,1c0.7,0.6,1,1.5,1,2.5c0,1.1-0.3,1.9-1,2.5c-0.7,0.6-1.5,1-2.6,1
			H64.2z M65.1,22.2v5.3h1.2c0.8,0,1.5-0.2,1.9-0.7c0.5-0.5,0.7-1.1,0.7-1.9c0-0.8-0.2-1.5-0.7-1.9c-0.5-0.5-1.1-0.7-1.9-0.7H65.1z"
			/>
		<path fill="#5F6368" d="M75.1,28.3h-0.9v-0.7h0c-0.1,0.2-0.3,0.4-0.6,0.6c-0.3,0.2-0.6,0.2-0.9,0.2c-0.6,0-1-0.2-1.4-0.5
			c-0.3-0.3-0.5-0.8-0.5-1.4v-3h0.9v3c0,0.8,0.4,1.2,1.2,1.2c0.4,0,0.7-0.1,0.9-0.4c0.2-0.3,0.4-0.6,0.4-1v-2.7h0.9V28.3z"/>
		<path fill="#5F6368" d="M75.8,25.9c0-0.7,0.2-1.4,0.7-1.8c0.5-0.5,1.1-0.7,1.8-0.7c0.7,0,1.3,0.2,1.8,0.7c0.5,0.5,0.7,1.1,0.7,1.8
			c0,0.7-0.2,1.4-0.7,1.8c-0.5,0.5-1.1,0.7-1.8,0.7c-0.7,0-1.3-0.2-1.8-0.7C76.1,27.3,75.8,26.7,75.8,25.9z M76.8,25.9
			c0,0.5,0.2,0.9,0.5,1.3c0.3,0.3,0.7,0.5,1.1,0.5c0.4,0,0.8-0.2,1.1-0.5c0.3-0.3,0.5-0.7,0.5-1.3c0-0.5-0.2-0.9-0.5-1.2
			c-0.3-0.3-0.7-0.5-1.1-0.5s-0.8,0.2-1.1,0.5C76.9,25,76.8,25.4,76.8,25.9z"/>
	</g>
	<g id="Art">
		<g>
			<path id="Teardrop" fill="#1A73E8" d="M23.9,24.9c-0.2,3.6-3.2,6.5-6.8,6.5c-3.8,0-6.8-3.1-6.8-6.8s3.1-6.8,6.8-6.8l0,0l0,0h5.8
				c0.6,0,1.1,0.5,1.1,1.1V24.9z"/>
		</g>
		<path id="Highlight" opacity="0.2" fill="#FFFFFF" enable-background="new    " d="M22.8,17.7h-5.8l0,0c-3.8,0-6.8,3.1-6.8,6.8
			c0,0,0,0,0,0c0-3.8,3.1-6.8,6.8-6.8l0,0L22.8,17.7c0.6,0.1,1.1,0.6,1.1,1.2v-0.1C23.9,18.1,23.4,17.7,22.8,17.7z"/>
		<g id="Shadow">
			<g>
				<path fill="#1A237E" fill-opacity="0.2" d="M23.9,24.9v-0.2c-0.2,3.6-3.2,6.5-6.8,6.5c-3.8,0-6.8-3.1-6.8-6.8c0,0,0,0.1,0,0.1
					c0,3.8,3.1,6.9,6.8,6.8C20.8,31.3,23.7,28.5,23.9,24.9"/>
			</g>
		</g>
		<path id="Camera_Body_Shadow" fill="#185ABC" d="M19.8,25.8c0,0.7-0.5,1.1-1.2,1.1h-3.9c-0.7,0-1.2-0.4-1.2-1.1v0.4
			c0,0.7,0.5,1.2,1.2,1.2h3.9c0.7,0,1.2-0.5,1.2-1.2L19.8,25.8L19.8,25.8z"/>
		<path id="Camera_Lens_Shadow" fill="#185ABC" d="M21.7,26.1c0,0.2-0.3,0.3-0.4,0.2l-1.5-1.5l0,0.4l1.5,1.5
			c0.2,0.1,0.4,0.1,0.4-0.2V26.1z"/>
		<g id="Camera">
			<path id="lens" fill="#F1F3F4" d="M21.3,22.4l-1.5,1.5v0.9l1.5,1.5c0.1,0.1,0.4,0,0.4-0.2l0-3.6C21.7,22.4,21.5,22.3,21.3,22.4z"
				/>
			<path id="body" fill="#FFFFFF" d="M18.7,21.7h-3.9c-0.7,0-1.2,0.5-1.2,1.2v3c0,0.6,0.5,1.2,1.2,1.2l3.9,0c0.7,0,1.2-0.5,1.2-1.2
				v-3C19.8,22.2,19.3,21.7,18.7,21.7z"/>
			<g id="inner_shadow__x28_clipped_to_lens_x29_">
				<polygon id="inner_shadow" fill="#BDC1C6" points="19.9,24.9 19.9,24.8 20.2,25.1 20.2,23.6 19.9,23.9 				"/>
			</g>
		</g>
	</g>
	<path fill="#5F6368" d="M33.3,28.5c-2.2,0-4-1.8-4-4c0-2.2,1.8-4,4-4c1.2,0,2.1,0.5,2.7,1.1l-0.8,0.8c-0.5-0.4-1.1-0.8-2-0.8
		c-1.6,0-2.9,1.3-2.9,2.9c0,1.6,1.3,2.9,2.9,2.9c1,0,1.6-0.4,2-0.8c0.3-0.3,0.5-0.8,0.6-1.4h-2.6v-1.1h3.7c0,0.2,0.1,0.4,0.1,0.7
		c0,0.8-0.2,1.8-0.9,2.5C35.4,28.1,34.5,28.5,33.3,28.5z"/>
	<path fill="#5F6368" d="M42.7,25.9c0,1.5-1.1,2.6-2.5,2.6c-1.4,0-2.5-1.1-2.5-2.6c0-1.5,1.1-2.6,2.5-2.6
		C41.5,23.4,42.7,24.4,42.7,25.9z M41.6,25.9c0-0.9-0.7-1.5-1.4-1.5s-1.4,0.6-1.4,1.5c0,0.9,0.7,1.5,1.4,1.5S41.6,26.8,41.6,25.9z"
		/>
	<path fill="#5F6368" d="M48.4,25.9c0,1.5-1.1,2.6-2.5,2.6c-1.4,0-2.5-1.1-2.5-2.6c0-1.5,1.1-2.6,2.5-2.6
		C47.2,23.4,48.4,24.4,48.4,25.9z M47.2,25.9c0-0.9-0.7-1.5-1.4-1.5c-0.8,0-1.4,0.6-1.4,1.5c0,0.9,0.7,1.5,1.4,1.5
		C46.6,27.5,47.2,26.8,47.2,25.9z"/>
	<path fill="#5F6368" d="M53.9,23.5v4.6c0,1.9-1.1,2.7-2.4,2.7c-1.2,0-2-0.8-2.3-1.5l1-0.4c0.2,0.4,0.6,0.9,1.3,0.9
		c0.8,0,1.4-0.5,1.4-1.5v-0.4h0c-0.3,0.3-0.7,0.6-1.4,0.6c-1.3,0-2.5-1.1-2.5-2.5c0-1.4,1.2-2.6,2.5-2.6c0.6,0,1.1,0.3,1.4,0.6h0
		v-0.4H53.9z M52.9,25.9c0-0.9-0.6-1.6-1.4-1.6c-0.8,0-1.4,0.7-1.4,1.6c0,0.9,0.7,1.5,1.4,1.5C52.3,27.5,52.9,26.8,52.9,25.9z"/>
	<path fill="#5F6368" d="M55.9,20.8v7.5h-1.1v-7.5H55.9z"/>
	<path fill="#5F6368" d="M60.3,26.8l0.9,0.6c-0.3,0.4-1,1.1-2.1,1.1c-1.5,0-2.5-1.1-2.5-2.6c0-1.5,1.1-2.6,2.4-2.6
		c1.3,0,2,1.1,2.2,1.6l0.1,0.3l-3.4,1.4c0.3,0.5,0.7,0.8,1.2,0.8S60,27.2,60.3,26.8z M57.6,25.8l2.3-0.9c-0.1-0.3-0.5-0.5-1-0.5
		C58.4,24.3,57.6,24.9,57.6,25.8z"/>
</g>
</svg>
