<?xml version="1.0" encoding="utf-8"?>
<!-- Generator: Adobe Illustrator 22.1.0, SVG Export Plug-In . SVG Version: 6.00 Build 0)  -->
<svg version="1.1" xmlns="http://www.w3.org/2000/svg" xmlns:xlink="http://www.w3.org/1999/xlink" x="0px" y="0px"
	 viewBox="0 0 300 50" style="enable-background:new 0 0 300 50;" xml:space="preserve">
<style type="text/css">
	.st0{fill:#4B4B4B;}
</style>
<g id="copy">
	<g id="copy01_ln01">
		<path class="st0" d="M93.0521,28.0275h0.8848V21.36h2.0819v-0.8505h-5.059V21.36h2.0923V28.0275z"/>
		<path class="st0" d="M97.324,21.696c0.1804,0,0.3313-0.063,0.4528-0.189c0.1214-0.126,0.1822-0.2765,0.1822-0.4515
			c0-0.1749-0.0624-0.3237-0.1874-0.4463c-0.1249-0.1224-0.2742-0.1837-0.4476-0.1837c-0.1735,0-0.3226,0.0613-0.4476,0.1837
			c-0.1249,0.1226-0.1873,0.2714-0.1873,0.4463c0,0.175,0.0624,0.3255,0.1873,0.4515C97.0014,21.633,97.1505,21.696,97.324,21.696
			L97.324,21.696z M96.8867,28.0275h0.8744v-5.355h-0.8744V28.0275z"/>
		<path class="st0" d="M100.7976,28.1955c0.3886,0,0.7425-0.0666,1.0617-0.1995c0.3192-0.1329,0.5726-0.3237,0.7599-0.5723
			c0.1874-0.2484,0.2811-0.5371,0.2811-0.8662c0-0.378-0.1319-0.6983-0.3956-0.9608c-0.2638-0.2625-0.6558-0.4602-1.1762-0.5932
			l-0.7703-0.1995c-0.3055-0.077-0.5345-0.1767-0.687-0.2993c-0.1528-0.1224-0.229-0.2817-0.229-0.4777
			c0-0.21,0.1093-0.3833,0.3279-0.5198c0.2186-0.1365,0.4736-0.2047,0.765-0.2047c0.6038,0,1.0236,0.238,1.2596,0.714l0.7702-0.357
			c-0.1527-0.3639-0.4111-0.6474-0.7754-0.8505c-0.3644-0.203-0.7791-0.3045-1.244-0.3045c-0.3539,0-0.6836,0.063-0.9888,0.189
			c-0.3055,0.126-0.5501,0.3063-0.7339,0.5407c-0.1839,0.2346-0.2758,0.5058-0.2758,0.8138c0,0.399,0.1353,0.7245,0.4059,0.9765
			c0.2707,0.252,0.6176,0.4305,1.041,0.5355l0.6453,0.168c0.4024,0.0981,0.6975,0.2152,0.8848,0.3517
			c0.1874,0.1365,0.2811,0.3168,0.2811,0.5408c0,0.252-0.1181,0.4462-0.3539,0.5827c-0.236,0.1365-0.5205,0.2048-0.8536,0.2048
			c-0.3123,0-0.5985-0.0875-0.8588-0.2625c-0.2602-0.1749-0.4564-0.4235-0.5881-0.7455l-0.7911,0.357
			c0.1595,0.42,0.4302,0.7648,0.8119,1.0342C99.7531,28.0606,100.2284,28.1955,100.7976,28.1955L100.7976,28.1955z"/>
		<path class="st0" d="M108.1152,28.1955c0.1665,0,0.3035-0.0105,0.4111-0.0315c0.1076-0.021,0.2134-0.0561,0.3175-0.105v-0.8715
			c-0.1873,0.1191-0.3817,0.1785-0.5829,0.1785c-0.2498,0-0.4408-0.0786-0.5725-0.2361c-0.1111-0.1431-0.1665-0.3649-0.1665-0.6654
			V23.481h1.2907v-0.8085h-1.2907v-1.512h-0.8848v1.512h-0.9265v0.8085h0.9265v3.1964c0,0.2566,0.0346,0.474,0.1041,0.6522
			c0.0692,0.1781,0.1733,0.335,0.3122,0.4703c0.1249,0.1213,0.2793,0.2176,0.4632,0.2888
			C107.7003,28.1597,107.8999,28.1955,108.1152,28.1955L108.1152,28.1955z"/>
		<path class="st0" d="M109.5817,28.0275h0.8848v-2.982c0-0.287,0.0677-0.5634,0.203-0.8295c0.1353-0.266,0.3191-0.483,0.5517-0.651
			c0.2324-0.168,0.4874-0.252,0.7651-0.252c0.3885,0,0.7042,0.1155,0.9472,0.3465c0.2428,0.231,0.3643,0.588,0.3643,1.071v3.297
			h0.8848V24.594c0-0.63-0.1701-1.1357-0.51-1.5173c-0.3401-0.3814-0.8328-0.5722-1.4781-0.5722
			c-0.3748,0-0.7201,0.091-1.0358,0.273c-0.3158,0.1821-0.5465,0.4095-0.6922,0.6825h-0.0416l0.0416-0.735v-2.2155h-0.8848V28.0275z
			"/>
		<path class="st0" d="M117.6615,28.1955c0.5551,0,1.0287-0.126,1.4208-0.378c0.392-0.252,0.7027-0.5949,0.9317-1.029
			l-0.7495-0.3675c-0.3679,0.6441-0.8918,0.966-1.5718,0.966c-0.2915,0-0.5709-0.0699-0.838-0.21
			c-0.2672-0.14-0.4876-0.35-0.6609-0.63c-0.1736-0.2799-0.2707-0.623-0.2915-1.029h4.1949c0.0209-0.077,0.0313-0.168,0.0313-0.273
			c0-0.5319-0.1025-1.0044-0.3071-1.4175c-0.2048-0.413-0.498-0.7367-0.8796-0.9713c-0.3817-0.2344-0.8327-0.3517-1.3532-0.3517
			c-0.5136,0-0.9647,0.1296-1.3532,0.3885c-0.3887,0.259-0.6888,0.6055-0.9004,1.0395c-0.2118,0.4341-0.3175,0.91-0.3175,1.428
			c0,0.5391,0.1127,1.0237,0.3383,1.4542c0.2254,0.4305,0.5395,0.7683,0.942,1.0133
			C116.7001,28.0729,117.1547,28.1955,117.6615,28.1955L117.6615,28.1955z M115.9542,24.783
			c0.0901-0.441,0.2793-0.7962,0.5673-1.0658c0.2879-0.2694,0.6402-0.4042,1.0566-0.4042c0.3607,0,0.661,0.0771,0.9004,0.231
			c0.2394,0.154,0.4146,0.343,0.5257,0.567c0.1109,0.2241,0.1733,0.448,0.1873,0.672H115.9542z"/>
		<path class="st0" d="M125.2184,28.1955c0.3886,0,0.7425-0.0666,1.0618-0.1995c0.3191-0.1329,0.5725-0.3237,0.7599-0.5723
			c0.1873-0.2484,0.281-0.5371,0.281-0.8662c0-0.378-0.1319-0.6983-0.3955-0.9608c-0.2639-0.2625-0.6558-0.4602-1.1763-0.5932
			l-0.7703-0.1995c-0.3054-0.077-0.5344-0.1767-0.687-0.2993c-0.1527-0.1224-0.229-0.2817-0.229-0.4777
			c0-0.21,0.1093-0.3833,0.3279-0.5198c0.2186-0.1365,0.4736-0.2047,0.7651-0.2047c0.6037,0,1.0235,0.238,1.2595,0.714l0.7703-0.357
			c-0.1527-0.3639-0.4112-0.6474-0.7755-0.8505c-0.3643-0.203-0.7791-0.3045-1.2439-0.3045c-0.3539,0-0.6836,0.063-0.9889,0.189
			c-0.3055,0.126-0.5501,0.3063-0.7339,0.5407c-0.1839,0.2346-0.2758,0.5058-0.2758,0.8138c0,0.399,0.1353,0.7245,0.406,0.9765
			c0.2706,0.252,0.6175,0.4305,1.0409,0.5355l0.6454,0.168c0.4023,0.0981,0.6974,0.2152,0.8848,0.3517
			c0.1873,0.1365,0.281,0.3168,0.281,0.5408c0,0.252-0.1181,0.4462-0.3539,0.5827c-0.236,0.1365-0.5205,0.2048-0.8536,0.2048
			c-0.3123,0-0.5985-0.0875-0.8587-0.2625c-0.2603-0.1749-0.4564-0.4235-0.5882-0.7455l-0.7911,0.357
			c0.1596,0.42,0.4302,0.7648,0.812,1.0342C124.1739,28.0606,124.6492,28.1955,125.2184,28.1955L125.2184,28.1955z"/>
		<path class="st0" d="M130.4771,28.1955c0.5551,0,1.0288-0.126,1.4209-0.378c0.392-0.252,0.7026-0.5949,0.9316-1.029
			l-0.7494-0.3675c-0.368,0.6441-0.8918,0.966-1.5719,0.966c-0.2914,0-0.5708-0.0699-0.8379-0.21
			c-0.2672-0.14-0.4876-0.35-0.661-0.63c-0.1735-0.2799-0.2706-0.623-0.2915-1.029h4.195c0.0208-0.077,0.0312-0.168,0.0312-0.273
			c0-0.5319-0.1024-1.0044-0.3071-1.4175c-0.2047-0.413-0.498-0.7367-0.8795-0.9713c-0.3818-0.2344-0.8328-0.3517-1.3532-0.3517
			c-0.5137,0-0.9647,0.1296-1.3533,0.3885c-0.3887,0.259-0.6888,0.6055-0.9004,1.0395c-0.2117,0.4341-0.3174,0.91-0.3174,1.428
			c0,0.5391,0.1127,1.0237,0.3383,1.4542c0.2254,0.4305,0.5395,0.7683,0.942,1.0133
			C129.5159,28.0729,129.9704,28.1955,130.4771,28.1955L130.4771,28.1955z M128.7699,24.783
			c0.0901-0.441,0.2793-0.7962,0.5673-1.0658c0.2879-0.2694,0.6402-0.4042,1.0565-0.4042c0.3608,0,0.661,0.0771,0.9004,0.231
			c0.2395,0.154,0.4146,0.343,0.5257,0.567c0.1109,0.2241,0.1734,0.448,0.1874,0.672H128.7699z"/>
		<path class="st0" d="M135.4641,28.1955c0.3816,0,0.7251-0.0911,1.0305-0.273c0.3053-0.182,0.5343-0.4025,0.687-0.6615h0.0417
			v0.7665h0.8431V24.636c0-0.6579-0.2065-1.1777-0.6193-1.5593c-0.413-0.3814-0.9803-0.5722-1.702-0.5722
			c-0.4441,0-0.8483,0.091-1.2126,0.273c-0.3644,0.1821-0.6506,0.4341-0.8588,0.756l0.6662,0.504
			c0.1457-0.231,0.3435-0.4112,0.5933-0.5408c0.2498-0.1294,0.5239-0.1942,0.8224-0.1942c0.4232,0,0.7737,0.1207,1.0513,0.3622
			c0.2775,0.2415,0.4164,0.5618,0.4164,0.9608v0.3255c-0.1458-0.0909-0.3557-0.1715-0.6298-0.2415
			c-0.2742-0.0699-0.5709-0.105-0.89-0.105c-0.6454,0-1.1798,0.1593-1.603,0.4777c-0.4234,0.3186-0.635,0.7613-0.635,1.3283
			c0,0.343,0.0833,0.6493,0.2498,0.9187c0.1666,0.2696,0.4024,0.4814,0.7079,0.6353
			C134.7283,28.1184,135.0753,28.1955,135.4641,28.1955L135.4641,28.1955z M135.5473,27.408c-0.3401,0-0.6212-0.0909-0.8432-0.273
			c-0.2222-0.182-0.3331-0.42-0.3331-0.714c0-0.3219,0.1231-0.5844,0.3695-0.7875c0.2463-0.203,0.6124-0.3045,1.0982-0.3045
			c0.2707,0,0.5273,0.0351,0.7703,0.105c0.2428,0.07,0.4476,0.1611,0.6142,0.273c0,0.3081-0.0765,0.5916-0.229,0.8505
			c-0.1528,0.259-0.3575,0.4656-0.6142,0.6195C136.1232,27.331,135.8456,27.408,135.5473,27.408L135.5473,27.408z"/>
		<path class="st0" d="M140.9872,28.1955c0.3885,0,0.7424-0.0666,1.0617-0.1995c0.3191-0.1329,0.5725-0.3237,0.7599-0.5723
			c0.1874-0.2484,0.281-0.5371,0.281-0.8662c0-0.378-0.1319-0.6983-0.3955-0.9608c-0.2638-0.2625-0.6558-0.4602-1.1763-0.5932
			l-0.7703-0.1995c-0.3054-0.077-0.5344-0.1767-0.687-0.2993c-0.1527-0.1224-0.229-0.2817-0.229-0.4777
			c0-0.21,0.1093-0.3833,0.3279-0.5198s0.4736-0.2047,0.7651-0.2047c0.6037,0,1.0235,0.238,1.2595,0.714l0.7703-0.357
			c-0.1527-0.3639-0.4111-0.6474-0.7755-0.8505c-0.3643-0.203-0.779-0.3045-1.2439-0.3045c-0.3539,0-0.6836,0.063-0.9889,0.189
			c-0.3054,0.126-0.55,0.3063-0.7338,0.5407c-0.184,0.2346-0.2759,0.5058-0.2759,0.8138c0,0.399,0.1354,0.7245,0.406,0.9765
			c0.2706,0.252,0.6176,0.4305,1.0409,0.5355l0.6454,0.168c0.4024,0.0981,0.6974,0.2152,0.8848,0.3517
			c0.1874,0.1365,0.281,0.3168,0.281,0.5408c0,0.252-0.118,0.4462-0.3539,0.5827c-0.236,0.1365-0.5204,0.2048-0.8535,0.2048
			c-0.3123,0-0.5986-0.0875-0.8588-0.2625c-0.2602-0.1749-0.4564-0.4235-0.5881-0.7455l-0.7911,0.357
			c0.1595,0.42,0.4302,0.7648,0.8119,1.0342C139.9426,28.0606,140.418,28.1955,140.9872,28.1955L140.9872,28.1955z"/>
		<path class="st0" d="M146.3291,28.1955c0.5205,0,0.9889-0.126,1.4053-0.378c0.4164-0.252,0.7407-0.5949,0.9732-1.029
			c0.2325-0.434,0.3488-0.9135,0.3488-1.4385s-0.1163-1.0044-0.3488-1.4385c-0.2325-0.434-0.5568-0.777-0.9732-1.029
			c-0.4164-0.252-0.8848-0.378-1.4053-0.378c-0.5204,0-0.9889,0.126-1.4052,0.378c-0.4164,0.252-0.7409,0.595-0.9733,1.029
			c-0.2326,0.4341-0.3487,0.9135-0.3487,1.4385s0.1161,1.0045,0.3487,1.4385c0.2324,0.4341,0.5569,0.777,0.9733,1.029
			C145.3401,28.0695,145.8087,28.1955,146.3291,28.1955L146.3291,28.1955z M146.3291,27.387c-0.3262,0-0.6315-0.0822-0.916-0.2468
			c-0.2846-0.1644-0.5118-0.4006-0.6818-0.7087c-0.1701-0.308-0.255-0.6684-0.255-1.0815c0-0.413,0.0849-0.7734,0.255-1.0815
			c0.17-0.308,0.3972-0.5442,0.6818-0.7088c0.2845-0.1644,0.5898-0.2467,0.916-0.2467c0.3261,0,0.6298,0.0823,0.9108,0.2467
			c0.2811,0.1646,0.5065,0.4008,0.6766,0.7088c0.17,0.3081,0.2551,0.6685,0.2551,1.0815c0,0.4131-0.0851,0.7735-0.2551,1.0815
			c-0.1701,0.3081-0.3955,0.5443-0.6766,0.7087C146.9588,27.3048,146.6552,27.387,146.3291,27.387L146.3291,27.387z"/>
		<path class="st0" d="M149.9296,28.0275h0.8848V25.014c0-0.287,0.0625-0.5618,0.1874-0.8243
			c0.1249-0.2625,0.3001-0.4741,0.5256-0.6352c0.2255-0.161,0.4805-0.2415,0.7651-0.2415c0.4094,0,0.7321,0.112,0.9681,0.336
			c0.2358,0.2241,0.3539,0.5845,0.3539,1.0815v3.297h0.8848V24.594c0-0.644-0.1683-1.1532-0.5049-1.5278
			c-0.3366-0.3744-0.8241-0.5617-1.4625-0.5617c-0.3609,0-0.701,0.0928-1.0201,0.2782c-0.3192,0.1856-0.5517,0.4113-0.6974,0.6773
			h-0.0416v-0.7875h-0.8432V28.0275z"/>
		<path class="st0" d="M160.0161,28.1955c0.1665,0,0.3035-0.0105,0.4111-0.0315c0.1075-0.021,0.2134-0.0561,0.3175-0.105v-0.8715
			c-0.1874,0.1191-0.3817,0.1785-0.5829,0.1785c-0.2498,0-0.4408-0.0786-0.5725-0.2361c-0.1111-0.1431-0.1666-0.3649-0.1666-0.6654
			V23.481h1.2908v-0.8085h-1.2908v-1.512h-0.8848v1.512h-0.9264v0.8085h0.9264v3.1964c0,0.2566,0.0347,0.474,0.1041,0.6522
			c0.0693,0.1781,0.1734,0.335,0.3123,0.4703c0.1249,0.1213,0.2793,0.2176,0.4632,0.2888
			C159.6012,28.1597,159.8008,28.1955,160.0161,28.1955L160.0161,28.1955z"/>
		<path class="st0" d="M163.8049,28.1955c0.5205,0,0.9889-0.126,1.4053-0.378c0.4163-0.252,0.7407-0.5949,0.9732-1.029
			c0.2325-0.434,0.3487-0.9135,0.3487-1.4385s-0.1162-1.0044-0.3487-1.4385c-0.2325-0.434-0.5569-0.777-0.9732-1.029
			c-0.4164-0.252-0.8848-0.378-1.4053-0.378c-0.5205,0-0.9889,0.126-1.4052,0.378c-0.4164,0.252-0.7409,0.595-0.9733,1.029
			c-0.2326,0.4341-0.3487,0.9135-0.3487,1.4385s0.1161,1.0045,0.3487,1.4385c0.2324,0.4341,0.5569,0.777,0.9733,1.029
			C162.8161,28.0695,163.2845,28.1955,163.8049,28.1955L163.8049,28.1955z M163.8049,27.387c-0.3263,0-0.6315-0.0822-0.916-0.2468
			c-0.2846-0.1644-0.5118-0.4006-0.6818-0.7087c-0.1701-0.308-0.255-0.6684-0.255-1.0815c0-0.413,0.0849-0.7734,0.255-1.0815
			c0.17-0.308,0.3972-0.5442,0.6818-0.7088c0.2845-0.1644,0.5897-0.2467,0.916-0.2467c0.3261,0,0.6298,0.0823,0.9108,0.2467
			c0.2811,0.1646,0.5065,0.4008,0.6766,0.7088c0.17,0.3081,0.2551,0.6685,0.2551,1.0815c0,0.4131-0.0851,0.7735-0.2551,1.0815
			c-0.1701,0.3081-0.3955,0.5443-0.6766,0.7087C164.4348,27.3048,164.131,27.387,163.8049,27.387L163.8049,27.387z"/>
		<path class="st0" d="M171.3307,28.0275h0.8952l2.1651-5.355h-0.9264l-1.6655,4.305h-0.0208l-1.6447-4.305h-0.9472
			L171.3307,28.0275z"/>
		<path class="st0" d="M175.4538,21.696c0.1804,0,0.3313-0.063,0.4528-0.189c0.1214-0.126,0.1822-0.2765,0.1822-0.4515
			c0-0.1749-0.0625-0.3237-0.1874-0.4463c-0.1249-0.1224-0.2742-0.1837-0.4476-0.1837c-0.1735,0-0.3227,0.0613-0.4476,0.1837
			c-0.1249,0.1226-0.1873,0.2714-0.1873,0.4463c0,0.175,0.0624,0.3255,0.1873,0.4515
			C175.131,21.633,175.2802,21.696,175.4538,21.696L175.4538,21.696z M175.0166,28.0275h0.8744v-5.355h-0.8744V28.0275z"/>
		<path class="st0" d="M179.3187,28.1955c0.4094,0,0.7737-0.0929,1.093-0.2783c0.3191-0.1854,0.5621-0.4111,0.7286-0.6772h0.0416
			v0.7875h0.8432v-7.518h-0.8848v2.2155l0.0416,0.7455h-0.0416c-0.1665-0.273-0.4095-0.5022-0.7286-0.6878
			c-0.3193-0.1854-0.6836-0.2782-1.093-0.2782c-0.472,0-0.9004,0.1225-1.2856,0.3675c-0.3851,0.2451-0.6888,0.5845-0.9108,1.0185
			c-0.2222,0.4341-0.3331,0.9205-0.3331,1.4595c0,0.546,0.1109,1.0342,0.3331,1.4647c0.222,0.4305,0.5257,0.7683,0.9108,1.0133
			C178.4184,28.0729,178.8467,28.1955,179.3187,28.1955L179.3187,28.1955z M179.4229,27.387c-0.3055,0-0.5934-0.084-0.864-0.252
			c-0.2706-0.168-0.4876-0.4077-0.6506-0.7193c-0.1631-0.3114-0.2446-0.6667-0.2446-1.0657s0.0815-0.7542,0.2446-1.0658
			c0.163-0.3114,0.38-0.5512,0.6506-0.7192c0.2706-0.168,0.5585-0.252,0.864-0.252c0.3123,0,0.6019,0.084,0.8691,0.252
			c0.2671,0.168,0.4823,0.406,0.6454,0.714c0.163,0.3081,0.2446,0.6651,0.2446,1.071c0,0.406-0.0816,0.763-0.2446,1.071
			c-0.1631,0.3081-0.3783,0.546-0.6454,0.714C180.0247,27.303,179.7352,27.387,179.4229,27.387L179.4229,27.387z"/>
		<path class="st0" d="M185.5475,28.1955c0.5551,0,1.0287-0.126,1.4208-0.378c0.392-0.252,0.7027-0.5949,0.9317-1.029
			l-0.7495-0.3675c-0.3679,0.6441-0.8918,0.966-1.5718,0.966c-0.2915,0-0.5709-0.0699-0.8379-0.21
			c-0.2673-0.14-0.4877-0.35-0.661-0.63c-0.1736-0.2799-0.2707-0.623-0.2915-1.029h4.195c0.0208-0.077,0.0312-0.168,0.0312-0.273
			c0-0.5319-0.1025-1.0044-0.3071-1.4175c-0.2048-0.413-0.498-0.7367-0.8796-0.9713c-0.3817-0.2344-0.8327-0.3517-1.3532-0.3517
			c-0.5136,0-0.9646,0.1296-1.3532,0.3885c-0.3887,0.259-0.6888,0.6055-0.9004,1.0395c-0.2118,0.4341-0.3175,0.91-0.3175,1.428
			c0,0.5391,0.1127,1.0237,0.3383,1.4542c0.2255,0.4305,0.5395,0.7683,0.9421,1.0133
			C184.5862,28.0729,185.0408,28.1955,185.5475,28.1955L185.5475,28.1955z M183.8405,24.783
			c0.0901-0.441,0.2792-0.7962,0.5673-1.0658c0.2878-0.2694,0.6401-0.4042,1.0565-0.4042c0.3607,0,0.661,0.0771,0.9004,0.231
			c0.2394,0.154,0.4146,0.343,0.5257,0.567c0.1109,0.2241,0.1734,0.448,0.1873,0.672H183.8405z"/>
		<path class="st0" d="M191.3318,28.1955c0.5205,0,0.9889-0.126,1.4053-0.378c0.4163-0.252,0.7407-0.5949,0.9732-1.029
			c0.2325-0.434,0.3487-0.9135,0.3487-1.4385s-0.1162-1.0044-0.3487-1.4385c-0.2325-0.434-0.5569-0.777-0.9732-1.029
			c-0.4164-0.252-0.8848-0.378-1.4053-0.378c-0.5205,0-0.9889,0.126-1.4052,0.378c-0.4164,0.252-0.7409,0.595-0.9733,1.029
			c-0.2326,0.4341-0.3487,0.9135-0.3487,1.4385s0.1161,1.0045,0.3487,1.4385c0.2324,0.4341,0.5569,0.777,0.9733,1.029
			C190.3429,28.0695,190.8113,28.1955,191.3318,28.1955L191.3318,28.1955z M191.3318,27.387c-0.3263,0-0.6315-0.0822-0.916-0.2468
			c-0.2846-0.1644-0.5119-0.4006-0.6818-0.7087c-0.1702-0.308-0.255-0.6684-0.255-1.0815c0-0.413,0.0848-0.7734,0.255-1.0815
			c0.1699-0.308,0.3972-0.5442,0.6818-0.7088c0.2845-0.1644,0.5897-0.2467,0.916-0.2467c0.3261,0,0.6298,0.0823,0.9108,0.2467
			c0.2811,0.1646,0.5065,0.4008,0.6766,0.7088c0.17,0.3081,0.2551,0.6685,0.2551,1.0815c0,0.4131-0.0851,0.7735-0.2551,1.0815
			c-0.1701,0.3081-0.3955,0.5443-0.6766,0.7087C191.9617,27.3048,191.6579,27.387,191.3318,27.387L191.3318,27.387z"/>
		<path class="st0" d="M199.7007,28.1955c0.569,0,1.053-0.1365,1.4521-0.4095c0.399-0.273,0.6887-0.63,0.8692-1.071l-0.7911-0.336
			c-0.1319,0.322-0.3331,0.5706-0.6037,0.7455c-0.2707,0.175-0.5934,0.2625-0.9681,0.2625c-0.3123,0-0.6037-0.0857-0.8744-0.2573
			c-0.2706-0.1714-0.4876-0.4111-0.6506-0.7192c-0.1631-0.308-0.2446-0.6615-0.2446-1.0605s0.0815-0.7524,0.2446-1.0605
			c0.163-0.308,0.38-0.5477,0.6506-0.7193c0.2707-0.1714,0.5621-0.2572,0.8744-0.2572c0.3677,0,0.6818,0.0858,0.942,0.2572
			c0.2603,0.1716,0.4563,0.4218,0.5882,0.7508l0.8015-0.336c-0.1666-0.4479-0.446-0.8067-0.838-1.0763
			c-0.3921-0.2694-0.8761-0.4042-1.4521-0.4042c-0.5136,0-0.975,0.1225-1.3844,0.3675c-0.4095,0.2451-0.7286,0.5845-0.9576,1.0185
			c-0.2291,0.4341-0.3436,0.9205-0.3436,1.4595c0,0.5391,0.1145,1.0237,0.3436,1.4542c0.229,0.4305,0.5481,0.7701,0.9576,1.0185
			C198.7258,28.0711,199.1871,28.1955,199.7007,28.1955L199.7007,28.1955z"/>
		<path class="st0" d="M204.5659,28.1955c0.3816,0,0.7251-0.0911,1.0306-0.273c0.3052-0.182,0.5342-0.4025,0.687-0.6615h0.0416
			v0.7665h0.8432V24.636c0-0.6579-0.2066-1.1777-0.6194-1.5593c-0.4129-0.3814-0.9802-0.5722-1.7019-0.5722
			c-0.4442,0-0.8484,0.091-1.2127,0.273c-0.3643,0.1821-0.6506,0.4341-0.8588,0.756l0.6662,0.504
			c0.1458-0.231,0.3435-0.4112,0.5934-0.5408c0.2498-0.1294,0.5238-0.1942,0.8223-0.1942c0.4232,0,0.7737,0.1207,1.0513,0.3622
			c0.2775,0.2415,0.4164,0.5618,0.4164,0.9608v0.3255c-0.1457-0.0909-0.3557-0.1715-0.6297-0.2415
			c-0.2743-0.0699-0.5709-0.105-0.89-0.105c-0.6454,0-1.1799,0.1593-1.6031,0.4777c-0.4233,0.3186-0.6349,0.7613-0.6349,1.3283
			c0,0.343,0.0832,0.6493,0.2498,0.9187c0.1665,0.2696,0.4024,0.4814,0.7078,0.6353
			C203.8304,28.1184,204.1772,28.1955,204.5659,28.1955L204.5659,28.1955z M204.6492,27.408c-0.3401,0-0.6211-0.0909-0.8431-0.273
			c-0.2222-0.182-0.3331-0.42-0.3331-0.714c0-0.3219,0.1231-0.5844,0.3695-0.7875c0.2462-0.203,0.6124-0.3045,1.0982-0.3045
			c0.2706,0,0.5273,0.0351,0.7703,0.105c0.2428,0.07,0.4476,0.1611,0.6141,0.273c0,0.3081-0.0764,0.5916-0.229,0.8505
			c-0.1527,0.259-0.3575,0.4656-0.6141,0.6195C205.2251,27.331,204.9475,27.408,204.6492,27.408L204.6492,27.408z"/>
		<path class="st0" d="M208.2674,28.0275h0.8848v-7.518h-0.8848V28.0275z"/>
		<path class="st0" d="M210.2972,28.0275h0.8848v-7.518h-0.8848V28.0275z"/>
		<path class="st0" d="M212.9286,28.0275c0.1804,0,0.3348-0.0617,0.4633-0.1851c0.1283-0.1234,0.1925-0.275,0.1925-0.4551
			c0-0.1734-0.0642-0.3219-0.1925-0.4453c-0.1285-0.1233-0.2829-0.185-0.4633-0.185c-0.1873,0-0.3453,0.0617-0.4736,0.185
			c-0.1285,0.1234-0.1926,0.2719-0.1926,0.4453c0,0.1801,0.0641,0.3317,0.1926,0.4551
			C212.5833,27.9658,212.7413,28.0275,212.9286,28.0275L212.9286,28.0275z"/>
	</g>
</g>
</svg>
