<?xml version="1.0" encoding="utf-8"?>
<!-- Generator: Adobe Illustrator 22.0.1, SVG Export Plug-In . SVG Version: 6.00 Build 0)  -->
<svg version="1.1" xmlns="http://www.w3.org/2000/svg" xmlns:xlink="http://www.w3.org/1999/xlink" x="0px" y="0px"
	 viewBox="0 0 300 50" enable-background="new 0 0 300 50" xml:space="preserve">
<g id="copy">
	<g id="copy01_ln01">
		<path fill="#5F6268" d="M91.9,14.9h0.8V18h3.7v-3.1h0.8V22h-0.8v-3.3h-3.7V22h-0.8V14.9z"/>
		<path fill="#5F6268" d="M98.8,15.8c-0.1-0.1-0.2-0.3-0.2-0.4c0-0.2,0.1-0.3,0.2-0.4c0.1-0.1,0.3-0.2,0.4-0.2s0.3,0.1,0.4,0.2
			s0.2,0.3,0.2,0.4c0,0.2-0.1,0.3-0.2,0.4S99.4,16,99.2,16C99,16,98.9,15.9,98.8,15.8z M98.8,16.9h0.8V22h-0.8V16.9z"/>
		<path fill="#5F6268" d="M101.7,23.9c-0.4-0.3-0.7-0.6-0.8-1l0.8-0.3c0.1,0.3,0.3,0.5,0.6,0.7c0.3,0.2,0.6,0.3,0.9,0.3
			c0.5,0,0.9-0.1,1.2-0.4c0.3-0.3,0.4-0.7,0.4-1.3v-0.6h0c-0.2,0.3-0.4,0.5-0.7,0.6c-0.3,0.2-0.6,0.2-1,0.2c-0.4,0-0.8-0.1-1.2-0.3
			c-0.4-0.2-0.7-0.5-0.9-1c-0.2-0.4-0.3-0.9-0.3-1.4c0-0.5,0.1-1,0.3-1.4c0.2-0.4,0.5-0.7,0.9-1c0.4-0.2,0.8-0.3,1.2-0.3
			c0.4,0,0.7,0.1,1,0.2c0.3,0.2,0.5,0.4,0.7,0.6h0v-0.7h0.8v4.9c0,0.8-0.2,1.4-0.7,1.9c-0.5,0.4-1.1,0.6-1.8,0.6
			C102.6,24.3,102.1,24.2,101.7,23.9z M104,21.2c0.3-0.2,0.4-0.4,0.6-0.7c0.1-0.3,0.2-0.6,0.2-1c0-0.4-0.1-0.8-0.2-1
			c-0.2-0.3-0.4-0.5-0.6-0.7s-0.5-0.2-0.8-0.2s-0.6,0.1-0.8,0.2s-0.5,0.4-0.6,0.7c-0.1,0.3-0.2,0.6-0.2,1s0.1,0.7,0.2,1
			c0.2,0.3,0.4,0.5,0.6,0.7s0.5,0.2,0.8,0.2S103.7,21.3,104,21.2z"/>
		<path fill="#5F6268" d="M106.9,14.9h0.9V17l0,0.7h0c0.1-0.3,0.4-0.5,0.7-0.6s0.6-0.3,1-0.3c0.6,0,1.1,0.2,1.4,0.5s0.5,0.8,0.5,1.4
			V22h-0.8v-3.1c0-0.5-0.1-0.8-0.4-1c-0.2-0.2-0.5-0.3-0.9-0.3c-0.3,0-0.5,0.1-0.7,0.2c-0.2,0.2-0.4,0.4-0.5,0.6
			c-0.1,0.3-0.2,0.5-0.2,0.8V22h-0.9V14.9z"/>
		<path fill="#5F6268" d="M118.8,22l0-0.7h0c-0.2,0.3-0.4,0.5-0.7,0.6s-0.7,0.3-1,0.3c-0.5,0-0.9-0.1-1.2-0.4
			c-0.4-0.2-0.7-0.6-0.9-1c-0.2-0.4-0.3-0.9-0.3-1.4c0-0.5,0.1-1,0.3-1.4c0.2-0.4,0.5-0.7,0.9-1c0.4-0.2,0.8-0.3,1.2-0.3
			c0.4,0,0.7,0.1,1,0.3c0.3,0.2,0.5,0.4,0.7,0.7h0v-0.8h0.8v7.3h-0.9V22z M118,21.2c0.3-0.2,0.5-0.4,0.6-0.7c0.2-0.3,0.2-0.6,0.2-1
			s-0.1-0.7-0.2-1c-0.2-0.3-0.4-0.5-0.6-0.7c-0.3-0.2-0.5-0.2-0.8-0.2c-0.3,0-0.6,0.1-0.8,0.2c-0.3,0.2-0.5,0.4-0.6,0.7
			c-0.2,0.3-0.2,0.6-0.2,1c0,0.4,0.1,0.7,0.2,1c0.2,0.3,0.4,0.5,0.6,0.7c0.3,0.2,0.5,0.2,0.8,0.2C117.5,21.4,117.7,21.3,118,21.2z"
			/>
		<path fill="#5F6268" d="M121.3,21.6c-0.3-0.4-0.5-0.9-0.5-1.5v-3.2h0.9V20c0,0.5,0.1,0.8,0.3,1.1c0.2,0.2,0.5,0.3,0.9,0.3
			c0.3,0,0.5-0.1,0.8-0.2c0.2-0.2,0.4-0.4,0.5-0.6c0.1-0.2,0.2-0.5,0.2-0.8v-2.9h0.9V22h-0.8v-0.7h0c-0.1,0.3-0.4,0.5-0.7,0.6
			s-0.6,0.3-1,0.3C122.1,22.2,121.7,22,121.3,21.6z"/>
		<path fill="#5F6268" d="M127.1,22c-0.3-0.1-0.5-0.3-0.7-0.6c-0.2-0.3-0.2-0.5-0.2-0.9c0-0.5,0.2-1,0.6-1.3
			c0.4-0.3,0.9-0.5,1.5-0.5c0.3,0,0.6,0,0.9,0.1c0.3,0.1,0.5,0.1,0.6,0.2v-0.3c0-0.4-0.1-0.7-0.4-0.9s-0.6-0.3-1-0.3
			c-0.3,0-0.5,0.1-0.8,0.2s-0.4,0.3-0.6,0.5l-0.6-0.5c0.2-0.3,0.5-0.5,0.8-0.7c0.3-0.2,0.7-0.3,1.2-0.3c0.7,0,1.2,0.2,1.6,0.5
			c0.4,0.4,0.6,0.9,0.6,1.5V22h-0.8v-0.7h0c-0.1,0.2-0.4,0.5-0.7,0.6s-0.6,0.3-1,0.3C127.7,22.2,127.4,22.1,127.1,22z M129,21.2
			c0.2-0.1,0.4-0.3,0.6-0.6s0.2-0.5,0.2-0.8c-0.2-0.1-0.4-0.2-0.6-0.3c-0.2-0.1-0.5-0.1-0.7-0.1c-0.5,0-0.8,0.1-1.1,0.3
			s-0.4,0.4-0.4,0.8c0,0.3,0.1,0.5,0.3,0.7s0.5,0.3,0.8,0.3C128.5,21.4,128.7,21.4,129,21.2z"/>
		<path fill="#5F6268" d="M131.8,14.9h0.9V22h-0.9V14.9z"/>
		<path fill="#5F6268" d="M134,15.8c-0.1-0.1-0.2-0.3-0.2-0.4c0-0.2,0.1-0.3,0.2-0.4c0.1-0.1,0.3-0.2,0.4-0.2s0.3,0.1,0.4,0.2
			s0.2,0.3,0.2,0.4c0,0.2-0.1,0.3-0.2,0.4s-0.3,0.2-0.4,0.2C134.3,16,134.1,15.9,134,15.8z M134,16.9h0.8V22H134V16.9z"/>
		<path fill="#5F6268" d="M137.6,22.1c-0.2-0.1-0.3-0.2-0.4-0.3c-0.1-0.1-0.2-0.3-0.3-0.4c-0.1-0.2-0.1-0.4-0.1-0.6v-3h-0.9v-0.8
			h0.9v-1.4h0.9v1.4h1.2v0.8h-1.2v2.8c0,0.3,0.1,0.5,0.2,0.6c0.1,0.1,0.3,0.2,0.5,0.2c0.2,0,0.4-0.1,0.6-0.2v0.8
			c-0.1,0-0.2,0.1-0.3,0.1s-0.2,0-0.4,0C137.9,22.2,137.7,22.2,137.6,22.1z"/>
		<path fill="#5F6268" d="M141.5,21.7l-2.1-4.8h0.9l1.6,3.8h0l1.5-3.8h0.9l-3.1,7.3h-0.9L141.5,21.7z"/>
		<path fill="#5F6268" d="M146.9,16.9h0.9l1.6,4.1h0l1.6-4.1h0.9l-2.1,5.1h-0.9L146.9,16.9z"/>
		<path fill="#5F6268" d="M152.7,15.8c-0.1-0.1-0.2-0.3-0.2-0.4c0-0.2,0.1-0.3,0.2-0.4s0.3-0.2,0.4-0.2s0.3,0.1,0.4,0.2
			c0.1,0.1,0.2,0.3,0.2,0.4c0,0.2-0.1,0.3-0.2,0.4c-0.1,0.1-0.3,0.2-0.4,0.2C152.9,16,152.8,15.9,152.7,15.8z M152.7,16.9h0.8V22
			h-0.8V16.9z"/>
		<path fill="#5F6268" d="M155.7,21.8c-0.4-0.2-0.7-0.6-0.9-1c-0.2-0.4-0.3-0.9-0.3-1.4c0-0.5,0.1-1,0.3-1.4c0.2-0.4,0.5-0.7,0.9-1
			c0.4-0.2,0.8-0.3,1.2-0.3c0.4,0,0.7,0.1,1,0.3c0.3,0.2,0.5,0.4,0.7,0.7h0l0-0.7v-2.1h0.8V22h-0.8v-0.8h0c-0.2,0.3-0.4,0.5-0.7,0.6
			s-0.7,0.3-1,0.3C156.5,22.2,156.1,22.1,155.7,21.8z M157.9,21.2c0.3-0.2,0.5-0.4,0.6-0.7c0.2-0.3,0.2-0.6,0.2-1s-0.1-0.7-0.2-1
			c-0.2-0.3-0.4-0.5-0.6-0.7c-0.3-0.2-0.5-0.2-0.8-0.2c-0.3,0-0.6,0.1-0.8,0.2c-0.3,0.2-0.5,0.4-0.6,0.7c-0.2,0.3-0.2,0.6-0.2,1
			c0,0.4,0.1,0.7,0.2,1c0.2,0.3,0.4,0.5,0.6,0.7c0.3,0.2,0.5,0.2,0.8,0.2C157.4,21.4,157.6,21.3,157.9,21.2z"/>
		<path fill="#5F6268" d="M161.8,21.8c-0.4-0.2-0.7-0.6-0.9-1c-0.2-0.4-0.3-0.9-0.3-1.4c0-0.5,0.1-0.9,0.3-1.4s0.5-0.7,0.9-1
			c0.4-0.2,0.8-0.4,1.3-0.4c0.5,0,0.9,0.1,1.3,0.3c0.4,0.2,0.6,0.5,0.8,0.9c0.2,0.4,0.3,0.8,0.3,1.4c0,0.1,0,0.2,0,0.3h-4
			c0,0.4,0.1,0.7,0.3,1c0.2,0.3,0.4,0.5,0.6,0.6s0.5,0.2,0.8,0.2c0.7,0,1.2-0.3,1.5-0.9l0.7,0.3c-0.2,0.4-0.5,0.7-0.9,1
			c-0.4,0.2-0.8,0.4-1.4,0.4C162.6,22.2,162.1,22.1,161.8,21.8z M164.5,18.9c0-0.2-0.1-0.4-0.2-0.6c-0.1-0.2-0.3-0.4-0.5-0.5
			c-0.2-0.1-0.5-0.2-0.9-0.2c-0.4,0-0.7,0.1-1,0.4c-0.3,0.3-0.5,0.6-0.5,1H164.5z"/>
		<path fill="#5F6268" d="M167.5,21.8c-0.4-0.2-0.7-0.6-0.9-1c-0.2-0.4-0.3-0.9-0.3-1.4s0.1-1,0.3-1.4c0.2-0.4,0.5-0.7,0.9-1
			c0.4-0.2,0.9-0.4,1.4-0.4s0.9,0.1,1.3,0.4c0.4,0.2,0.7,0.6,0.9,1c0.2,0.4,0.3,0.9,0.3,1.4s-0.1,1-0.3,1.4c-0.2,0.4-0.5,0.7-0.9,1
			c-0.4,0.2-0.8,0.4-1.3,0.4S167.9,22.1,167.5,21.8z M169.7,21.2c0.3-0.2,0.5-0.4,0.6-0.7s0.2-0.6,0.2-1c0-0.4-0.1-0.7-0.2-1
			c-0.2-0.3-0.4-0.5-0.6-0.7c-0.3-0.2-0.6-0.2-0.9-0.2c-0.3,0-0.6,0.1-0.9,0.2s-0.5,0.4-0.7,0.7c-0.2,0.3-0.2,0.6-0.2,1
			c0,0.4,0.1,0.7,0.2,1c0.2,0.3,0.4,0.5,0.7,0.7c0.3,0.2,0.6,0.2,0.9,0.2C169.2,21.4,169.5,21.3,169.7,21.2z"/>
		<path fill="#5F6268" d="M175.8,21.8c-0.4-0.2-0.7-0.6-0.9-1c-0.2-0.4-0.3-0.9-0.3-1.4c0-0.5,0.1-1,0.3-1.4c0.2-0.4,0.5-0.7,0.9-1
			c0.4-0.2,0.8-0.3,1.3-0.3c0.6,0,1,0.1,1.4,0.4c0.4,0.3,0.6,0.6,0.8,1l-0.8,0.3c-0.1-0.3-0.3-0.6-0.6-0.7c-0.3-0.2-0.6-0.2-0.9-0.2
			c-0.3,0-0.6,0.1-0.8,0.2c-0.3,0.2-0.5,0.4-0.6,0.7c-0.2,0.3-0.2,0.6-0.2,1c0,0.4,0.1,0.7,0.2,1c0.2,0.3,0.4,0.5,0.6,0.7
			c0.3,0.2,0.5,0.2,0.8,0.2c0.4,0,0.7-0.1,0.9-0.3s0.5-0.4,0.6-0.7l0.8,0.3c-0.2,0.4-0.5,0.8-0.8,1c-0.4,0.3-0.8,0.4-1.4,0.4
			C176.6,22.2,176.2,22.1,175.8,21.8z"/>
		<path fill="#5F6268" d="M180.9,22c-0.3-0.1-0.5-0.3-0.7-0.6c-0.2-0.3-0.2-0.5-0.2-0.9c0-0.5,0.2-1,0.6-1.3
			c0.4-0.3,0.9-0.5,1.5-0.5c0.3,0,0.6,0,0.9,0.1c0.3,0.1,0.5,0.1,0.6,0.2v-0.3c0-0.4-0.1-0.7-0.4-0.9s-0.6-0.3-1-0.3
			c-0.3,0-0.5,0.1-0.8,0.2s-0.4,0.3-0.6,0.5l-0.6-0.5c0.2-0.3,0.5-0.5,0.8-0.7c0.3-0.2,0.7-0.3,1.2-0.3c0.7,0,1.2,0.2,1.6,0.5
			s0.6,0.9,0.6,1.5V22h-0.8v-0.7h0c-0.1,0.2-0.4,0.5-0.7,0.6s-0.6,0.3-1,0.3C181.5,22.2,181.2,22.1,180.9,22z M182.8,21.2
			c0.2-0.1,0.4-0.3,0.6-0.6c0.1-0.2,0.2-0.5,0.2-0.8c-0.2-0.1-0.4-0.2-0.6-0.3c-0.2-0.1-0.5-0.1-0.7-0.1c-0.5,0-0.8,0.1-1.1,0.3
			c-0.2,0.2-0.4,0.4-0.4,0.8c0,0.3,0.1,0.5,0.3,0.7c0.2,0.2,0.5,0.3,0.8,0.3C182.2,21.4,182.5,21.4,182.8,21.2z"/>
		<path fill="#5F6268" d="M185.6,14.9h0.9V22h-0.9V14.9z"/>
		<path fill="#5F6268" d="M187.7,14.9h0.9V22h-0.9V14.9z"/>
		<path fill="#5F6268" d="M189.9,15.8c-0.1-0.1-0.2-0.3-0.2-0.4c0-0.2,0.1-0.3,0.2-0.4s0.3-0.2,0.4-0.2s0.3,0.1,0.4,0.2
			c0.1,0.1,0.2,0.3,0.2,0.4c0,0.2-0.1,0.3-0.2,0.4c-0.1,0.1-0.3,0.2-0.4,0.2C190.2,16,190,15.9,189.9,15.8z M189.9,16.9h0.8V22h-0.8
			V16.9z"/>
		<path fill="#5F6268" d="M192.1,16.9h0.8v0.8h0c0.1-0.3,0.4-0.5,0.7-0.6c0.3-0.2,0.6-0.3,1-0.3c0.6,0,1.1,0.2,1.4,0.5
			c0.3,0.4,0.5,0.8,0.5,1.5V22h-0.8v-3.1c0-0.5-0.1-0.8-0.3-1s-0.5-0.3-0.9-0.3c-0.3,0-0.5,0.1-0.7,0.2s-0.4,0.4-0.5,0.6
			s-0.2,0.5-0.2,0.8V22h-0.9V16.9z"/>
		<path fill="#5F6268" d="M198.5,23.9c-0.4-0.3-0.7-0.6-0.8-1l0.8-0.3c0.1,0.3,0.3,0.5,0.6,0.7c0.3,0.2,0.6,0.3,0.9,0.3
			c0.5,0,0.9-0.1,1.2-0.4s0.4-0.7,0.4-1.3v-0.6h0c-0.2,0.3-0.4,0.5-0.7,0.6c-0.3,0.2-0.6,0.2-1,0.2c-0.4,0-0.8-0.1-1.2-0.3
			c-0.4-0.2-0.7-0.5-0.9-1c-0.2-0.4-0.3-0.9-0.3-1.4c0-0.5,0.1-1,0.3-1.4c0.2-0.4,0.5-0.7,0.9-1c0.4-0.2,0.8-0.3,1.2-0.3
			c0.4,0,0.7,0.1,1,0.2c0.3,0.2,0.5,0.4,0.7,0.6h0v-0.7h0.8v4.9c0,0.8-0.2,1.4-0.7,1.9c-0.5,0.4-1,0.6-1.8,0.6
			C199.3,24.3,198.8,24.2,198.5,23.9z M200.8,21.2c0.3-0.2,0.5-0.4,0.6-0.7c0.2-0.3,0.2-0.6,0.2-1c0-0.4-0.1-0.8-0.2-1
			c-0.1-0.3-0.3-0.5-0.6-0.7s-0.5-0.2-0.8-0.2s-0.6,0.1-0.8,0.2c-0.3,0.2-0.5,0.4-0.6,0.7c-0.1,0.3-0.2,0.6-0.2,1s0.1,0.7,0.2,1
			c0.2,0.3,0.4,0.5,0.6,0.7c0.3,0.2,0.5,0.2,0.8,0.2S200.5,21.3,200.8,21.2z"/>
		<path fill="#5F6268" d="M203.6,22.9l0.5-0.8c-0.1,0-0.2-0.1-0.3-0.2c-0.1-0.1-0.1-0.2-0.1-0.4c0-0.2,0.1-0.3,0.2-0.4
			c0.1-0.1,0.3-0.2,0.5-0.2c0.2,0,0.3,0.1,0.5,0.2s0.2,0.3,0.2,0.4c0,0.1,0,0.2-0.1,0.3s-0.1,0.2-0.2,0.4l-0.7,1L203.6,22.9z"/>
	</g>
	<g id="copy01_ln02">
		<path fill="#5F6268" d="M93.2,34.9c-0.3-0.2-0.5-0.4-0.7-0.6h0V35h-0.8v-7.2h0.9V30l0,0.7h0c0.2-0.3,0.4-0.5,0.7-0.7
			c0.3-0.2,0.7-0.3,1-0.3c0.5,0,0.9,0.1,1.2,0.3c0.4,0.2,0.7,0.6,0.9,1c0.2,0.4,0.3,0.9,0.3,1.4c0,0.5-0.1,1-0.3,1.4s-0.5,0.7-0.9,1
			c-0.4,0.2-0.8,0.4-1.2,0.4C93.9,35.2,93.5,35.1,93.2,34.9z M95,34.2c0.3-0.2,0.5-0.4,0.6-0.7c0.2-0.3,0.2-0.6,0.2-1
			c0-0.4-0.1-0.7-0.2-1c-0.2-0.3-0.4-0.5-0.6-0.7c-0.3-0.2-0.5-0.2-0.8-0.2c-0.3,0-0.6,0.1-0.8,0.2c-0.3,0.2-0.5,0.4-0.6,0.7
			s-0.2,0.6-0.2,1s0.1,0.7,0.2,1c0.2,0.3,0.4,0.5,0.6,0.7c0.3,0.2,0.5,0.2,0.8,0.2C94.5,34.4,94.7,34.3,95,34.2z"/>
		<path fill="#5F6268" d="M99.1,34.7L97,29.9h0.9l1.6,3.8h0l1.5-3.8h0.9l-3.1,7.3h-0.9L99.1,34.7z"/>
		<path fill="#5F6268" d="M106.5,34.7c-0.6-0.3-1-0.8-1.3-1.3c-0.3-0.6-0.5-1.2-0.5-1.9s0.2-1.3,0.5-1.9c0.3-0.6,0.8-1,1.3-1.3
			c0.6-0.3,1.2-0.5,1.9-0.5c0.5,0,1,0.1,1.5,0.3c0.5,0.2,0.8,0.5,1.1,0.8l-0.6,0.6c-0.2-0.3-0.5-0.5-0.9-0.6
			c-0.4-0.2-0.7-0.2-1.1-0.2c-0.5,0-1,0.1-1.4,0.4c-0.4,0.2-0.8,0.6-1,1c-0.3,0.4-0.4,1-0.4,1.5s0.1,1.1,0.4,1.5
			c0.3,0.4,0.6,0.8,1.1,1c0.4,0.2,0.9,0.4,1.4,0.4c0.5,0,0.9-0.1,1.2-0.2s0.6-0.3,0.8-0.6c0.2-0.2,0.3-0.4,0.4-0.7
			c0.1-0.3,0.2-0.6,0.2-0.9h-2.6v-0.8h3.4c0,0.2,0,0.4,0,0.5c0,0.4-0.1,0.9-0.2,1.3c-0.1,0.4-0.4,0.8-0.7,1.1
			c-0.7,0.7-1.5,1.1-2.6,1.1C107.7,35.2,107.1,35,106.5,34.7z"/>
		<path fill="#5F6268" d="M113.9,34.8c-0.4-0.2-0.7-0.6-0.9-1c-0.2-0.4-0.3-0.9-0.3-1.4s0.1-1,0.3-1.4c0.2-0.4,0.5-0.7,0.9-1
			s0.9-0.4,1.4-0.4s1,0.1,1.4,0.4s0.7,0.6,0.9,1c0.2,0.4,0.3,0.9,0.3,1.4s-0.1,1-0.3,1.4c-0.2,0.4-0.5,0.7-0.9,1s-0.9,0.4-1.4,0.4
			S114.3,35.1,113.9,34.8z M116.2,34.2c0.3-0.2,0.5-0.4,0.6-0.7c0.2-0.3,0.2-0.6,0.2-1c0-0.4-0.1-0.7-0.2-1
			c-0.2-0.3-0.4-0.5-0.6-0.7s-0.6-0.2-0.9-0.2s-0.6,0.1-0.9,0.2c-0.3,0.2-0.5,0.4-0.7,0.7c-0.2,0.3-0.2,0.6-0.2,1
			c0,0.4,0.1,0.7,0.2,1c0.2,0.3,0.4,0.5,0.7,0.7c0.3,0.2,0.6,0.2,0.9,0.2S115.9,34.3,116.2,34.2z"/>
		<path fill="#5F6268" d="M119.9,34.8c-0.4-0.2-0.7-0.6-0.9-1c-0.2-0.4-0.3-0.9-0.3-1.4s0.1-1,0.3-1.4c0.2-0.4,0.5-0.7,0.9-1
			s0.9-0.4,1.4-0.4s1,0.1,1.4,0.4s0.7,0.6,0.9,1c0.2,0.4,0.3,0.9,0.3,1.4s-0.1,1-0.3,1.4c-0.2,0.4-0.5,0.7-0.9,1s-0.9,0.4-1.4,0.4
			S120.3,35.1,119.9,34.8z M122.1,34.2c0.3-0.2,0.5-0.4,0.6-0.7c0.2-0.3,0.2-0.6,0.2-1c0-0.4-0.1-0.7-0.2-1
			c-0.2-0.3-0.4-0.5-0.6-0.7s-0.6-0.2-0.9-0.2s-0.6,0.1-0.9,0.2c-0.3,0.2-0.5,0.4-0.7,0.7c-0.2,0.3-0.2,0.6-0.2,1
			c0,0.4,0.1,0.7,0.2,1c0.2,0.3,0.4,0.5,0.7,0.7c0.3,0.2,0.6,0.2,0.9,0.2S121.9,34.3,122.1,34.2z"/>
		<path fill="#5F6268" d="M125.7,36.9c-0.4-0.3-0.7-0.6-0.8-1l0.8-0.3c0.1,0.3,0.3,0.5,0.6,0.7c0.3,0.2,0.6,0.3,0.9,0.3
			c0.5,0,0.9-0.1,1.2-0.4c0.3-0.3,0.4-0.7,0.4-1.3v-0.6h0c-0.2,0.3-0.4,0.5-0.7,0.6c-0.3,0.2-0.6,0.2-1,0.2c-0.4,0-0.8-0.1-1.2-0.3
			c-0.4-0.2-0.7-0.6-0.9-1c-0.2-0.4-0.3-0.9-0.3-1.4c0-0.5,0.1-1,0.3-1.4c0.2-0.4,0.5-0.7,0.9-1c0.4-0.2,0.8-0.3,1.2-0.3
			c0.4,0,0.7,0.1,1,0.2c0.3,0.2,0.5,0.4,0.7,0.6h0v-0.7h0.8v4.9c0,0.8-0.2,1.4-0.7,1.9c-0.5,0.4-1.1,0.6-1.8,0.6
			C126.5,37.3,126,37.2,125.7,36.9z M128,34.2c0.3-0.2,0.4-0.4,0.6-0.7c0.1-0.3,0.2-0.6,0.2-1c0-0.4-0.1-0.8-0.2-1
			c-0.2-0.3-0.4-0.5-0.6-0.7s-0.5-0.2-0.8-0.2s-0.6,0.1-0.8,0.2c-0.3,0.2-0.5,0.4-0.6,0.7c-0.1,0.3-0.2,0.6-0.2,1
			c0,0.4,0.1,0.7,0.2,1c0.2,0.3,0.4,0.5,0.6,0.7s0.5,0.2,0.8,0.2S127.7,34.3,128,34.2z"/>
		<path fill="#5F6268" d="M130.9,27.9h0.9V35h-0.9V27.9z"/>
		<path fill="#5F6268" d="M133.9,34.8c-0.4-0.2-0.7-0.6-0.9-1c-0.2-0.4-0.3-0.9-0.3-1.4c0-0.5,0.1-0.9,0.3-1.4
			c0.2-0.4,0.5-0.7,0.9-1c0.4-0.2,0.8-0.4,1.3-0.4c0.5,0,0.9,0.1,1.3,0.3c0.4,0.2,0.6,0.5,0.8,0.9c0.2,0.4,0.3,0.8,0.3,1.3
			c0,0.1,0,0.2,0,0.3h-4c0,0.4,0.1,0.7,0.3,1c0.2,0.3,0.4,0.5,0.6,0.6c0.3,0.1,0.5,0.2,0.8,0.2c0.7,0,1.2-0.3,1.5-0.9l0.7,0.4
			c-0.2,0.4-0.5,0.7-0.9,1c-0.4,0.2-0.8,0.4-1.4,0.4C134.8,35.2,134.3,35.1,133.9,34.8z M136.7,31.9c0-0.2-0.1-0.4-0.2-0.6
			s-0.3-0.4-0.5-0.5c-0.2-0.1-0.5-0.2-0.9-0.2c-0.4,0-0.7,0.1-1,0.4c-0.3,0.3-0.5,0.6-0.5,1H136.7z"/>
		<path fill="#5F6268" d="M138.7,34.8c-0.1-0.1-0.2-0.3-0.2-0.4c0-0.2,0.1-0.3,0.2-0.4c0.1-0.1,0.3-0.2,0.5-0.2
			c0.2,0,0.3,0.1,0.4,0.2c0.1,0.1,0.2,0.3,0.2,0.4c0,0.2-0.1,0.3-0.2,0.4c-0.1,0.1-0.3,0.2-0.4,0.2C139,35,138.8,35,138.7,34.8z"/>
	</g>
</g>
</svg>
