<?xml version="1.0" encoding="utf-8"?>
<!-- Generator: Adobe Illustrator 22.0.1, SVG Export Plug-In . SVG Version: 6.00 Build 0)  -->
<svg version="1.1" id="Layer_1" xmlns="http://www.w3.org/2000/svg" xmlns:xlink="http://www.w3.org/1999/xlink" x="0px" y="0px"
	 viewBox="0 0 300 50" style="enable-background:new 0 0 300 50;" xml:space="preserve">
<style type="text/css">
	.st9{fill:#1A73E8;}
	.st1{fill:#FFFFFF;}
</style>
<g id="cta">
	<path id="ctaShape" class="st9" d="M289.2,34H233c-0.5,0-0.8-0.3-0.8-0.8V16.8c0-0.5,0.3-0.8,0.8-0.8h56.3c0.5,0,0.8,0.3,0.8,0.8
		v16.4C290,33.7,289.7,34,289.2,34z"/>
	<g id="ctaCopy">
		<path class="st1" d="M248.9,27c-0.4-0.2-0.7-0.5-0.9-0.9c-0.2-0.4-0.3-0.8-0.3-1.3c0-0.5,0.1-0.9,0.3-1.3c0.2-0.4,0.5-0.7,0.9-0.9
			c0.4-0.2,0.8-0.3,1.3-0.3c0.4,0,0.7,0.1,1,0.2c0.3,0.1,0.6,0.3,0.8,0.6l-0.5,0.5c-0.2-0.2-0.3-0.3-0.5-0.4
			c-0.2-0.1-0.4-0.1-0.7-0.1c-0.3,0-0.6,0.1-0.9,0.2c-0.3,0.1-0.5,0.4-0.6,0.6c-0.2,0.3-0.2,0.6-0.2,0.9c0,0.4,0.1,0.7,0.2,0.9
			c0.2,0.3,0.4,0.5,0.6,0.6c0.3,0.1,0.6,0.2,0.9,0.2c0.5,0,1-0.2,1.4-0.7l0.5,0.5c-0.2,0.3-0.5,0.5-0.8,0.6
			c-0.3,0.2-0.7,0.2-1.1,0.2C249.7,27.3,249.3,27.2,248.9,27z"/>
		<path class="st1" d="M253.1,27.2c-0.2-0.1-0.3-0.2-0.4-0.4c-0.1-0.2-0.2-0.4-0.2-0.6c0-0.4,0.1-0.6,0.4-0.8s0.6-0.3,1-0.3
			c0.2,0,0.4,0,0.5,0.1c0.2,0,0.3,0.1,0.4,0.1V25c0-0.2-0.1-0.4-0.2-0.5c-0.2-0.1-0.4-0.2-0.6-0.2c-0.2,0-0.3,0-0.5,0.1
			c-0.2,0.1-0.3,0.2-0.4,0.3l-0.5-0.4c0.2-0.2,0.3-0.4,0.6-0.5c0.2-0.1,0.5-0.2,0.8-0.2c0.5,0,0.9,0.1,1.1,0.4
			c0.3,0.2,0.4,0.6,0.4,1v2.1h-0.7v-0.4h0c-0.1,0.1-0.2,0.3-0.4,0.4c-0.2,0.1-0.4,0.1-0.6,0.1C253.5,27.3,253.3,27.3,253.1,27.2z
			 M254.4,26.6c0.1-0.1,0.3-0.2,0.3-0.3c0.1-0.1,0.1-0.3,0.1-0.5c-0.1-0.1-0.2-0.1-0.4-0.1c-0.1,0-0.3-0.1-0.4-0.1
			c-0.3,0-0.5,0.1-0.6,0.2c-0.1,0.1-0.2,0.3-0.2,0.4c0,0.2,0.1,0.3,0.2,0.4c0.1,0.1,0.3,0.2,0.5,0.2
			C254.1,26.7,254.2,26.7,254.4,26.6z"/>
		<path class="st1" d="M256.3,22.4h0.7v4.8h-0.7V22.4z"/>
		<path class="st1" d="M257.9,22.4h0.7v4.8h-0.7V22.4z"/>
		<path class="st1" d="M261.1,23.8h0.7v0.4h0c0.1-0.2,0.2-0.3,0.4-0.4c0.2-0.1,0.4-0.2,0.6-0.2c0.4,0,0.7,0.1,0.9,0.4
			c0.2,0.2,0.3,0.6,0.3,1v2.2h-0.7v-2.1c0-0.3-0.1-0.5-0.2-0.6s-0.3-0.2-0.5-0.2c-0.2,0-0.3,0-0.4,0.1c-0.1,0.1-0.2,0.2-0.3,0.4
			c-0.1,0.2-0.1,0.3-0.1,0.5v1.8h-0.7V23.8z"/>
		<path class="st1" d="M265.7,27.1c-0.3-0.2-0.5-0.4-0.6-0.7c-0.2-0.3-0.2-0.6-0.2-0.9c0-0.3,0.1-0.6,0.2-0.9
			c0.2-0.3,0.4-0.5,0.6-0.7c0.3-0.2,0.6-0.2,0.9-0.2s0.7,0.1,0.9,0.2s0.5,0.4,0.6,0.7c0.2,0.3,0.2,0.6,0.2,0.9
			c0,0.3-0.1,0.6-0.2,0.9c-0.2,0.3-0.4,0.5-0.6,0.7c-0.3,0.2-0.6,0.2-0.9,0.2S265.9,27.2,265.7,27.1z M267.1,26.5
			c0.2-0.1,0.3-0.2,0.4-0.4c0.1-0.2,0.1-0.4,0.1-0.6s0-0.4-0.1-0.6c-0.1-0.2-0.2-0.3-0.4-0.4c-0.2-0.1-0.3-0.1-0.5-0.1
			s-0.4,0-0.5,0.1s-0.3,0.2-0.4,0.4c-0.1,0.2-0.1,0.4-0.1,0.6s0,0.4,0.1,0.6c0.1,0.2,0.2,0.3,0.4,0.4s0.3,0.1,0.5,0.1
			S267,26.6,267.1,26.5z"/>
		<path class="st1" d="M268.6,23.8h0.8l0.7,2.4h0l0.8-2.4h0.8l0.8,2.4h0l0.7-2.4h0.8l-1.1,3.4H272l-0.8-2.4h0l-0.8,2.4h-0.8
			L268.6,23.8z"/>
	</g>
</g>
</svg>
