<?xml version="1.0" encoding="utf-8"?>
<!-- Generator: Adobe Illustrator 22.0.1, SVG Export Plug-In . SVG Version: 6.00 Build 0)  -->
<svg version="1.1" xmlns="http://www.w3.org/2000/svg" xmlns:xlink="http://www.w3.org/1999/xlink" x="0px" y="0px"
	 viewBox="0 0 300 250" style="enable-background:new 0 0 300 250;" xml:space="preserve">
<style type="text/css">
	.st0{fill:#4B4B4B;}
</style>
	<g id="copy">
		<g id="copy01_ln01">
			<path class="st0" d="M24.2,63.8h1.3v4.7H31v-4.7h1.3v10.7H31v-4.9h-5.5v4.9h-1.3V63.8z"/>
			<path class="st0" d="M34.3,65.2C34.1,65,34,64.8,34,64.6s0.1-0.5,0.3-0.6c0.2-0.2,0.4-0.3,0.6-0.3s0.5,0.1,0.6,0.3
				c0.2,0.2,0.3,0.4,0.3,0.6s-0.1,0.5-0.3,0.6c-0.2,0.2-0.4,0.3-0.7,0.3C34.7,65.5,34.4,65.4,34.3,65.2z M34.3,66.9h1.3v7.6h-1.3
				V66.9z"/>
			<path class="st0" d="M38.4,77.4c-0.6-0.4-1-0.9-1.2-1.5l1.2-0.5c0.2,0.4,0.5,0.8,0.8,1.1c0.4,0.3,0.9,0.4,1.4,0.4
				c0.8,0,1.4-0.2,1.8-0.7s0.7-1.1,0.7-1.9v-0.9H43c-0.3,0.4-0.6,0.7-1.1,1c-0.5,0.2-1,0.4-1.6,0.4c-0.7,0-1.3-0.2-1.8-0.5
				c-0.5-0.3-1-0.8-1.3-1.4c-0.3-0.6-0.5-1.3-0.5-2.1c0-0.8,0.2-1.5,0.5-2.1c0.3-0.6,0.8-1.1,1.3-1.4s1.1-0.5,1.8-0.5
				c0.6,0,1.1,0.1,1.6,0.4c0.5,0.2,0.8,0.6,1.1,1h0.1v-1.1h1.2v7.4c0,1.2-0.3,2.2-1,2.8c-0.7,0.6-1.6,1-2.7,1
				C39.7,78,38.9,77.8,38.4,77.4z M41.8,73.3c0.4-0.2,0.7-0.6,0.9-1c0.2-0.4,0.3-1,0.3-1.6c0-0.6-0.1-1.1-0.3-1.6s-0.5-0.8-0.9-1
				s-0.8-0.3-1.3-0.3c-0.5,0-0.9,0.1-1.3,0.4c-0.4,0.2-0.7,0.6-0.9,1c-0.2,0.4-0.3,1-0.3,1.6c0,0.6,0.1,1.1,0.3,1.6
				c0.2,0.4,0.5,0.8,0.9,1s0.8,0.3,1.3,0.3C41,73.6,41.5,73.5,41.8,73.3z"/>
			<path class="st0" d="M45.9,63.8h1.3V67L47.1,68h0.1c0.2-0.4,0.5-0.7,1-1c0.5-0.3,1-0.4,1.5-0.4c0.9,0,1.6,0.3,2.1,0.8
				c0.5,0.5,0.7,1.3,0.7,2.2v4.9h-1.3v-4.7c0-0.7-0.2-1.2-0.5-1.5c-0.4-0.3-0.8-0.5-1.4-0.5c-0.4,0-0.8,0.1-1.1,0.4
				c-0.3,0.2-0.6,0.6-0.8,0.9c-0.2,0.4-0.3,0.8-0.3,1.2v4.3h-1.3V63.8z"/>
			<path class="st0" d="M63.2,74.5l0.1-1h-0.1c-0.2,0.4-0.6,0.7-1.1,1c-0.5,0.3-1,0.4-1.6,0.4c-0.7,0-1.3-0.2-1.9-0.5
				c-0.6-0.3-1-0.8-1.3-1.4c-0.3-0.6-0.5-1.3-0.5-2.1c0-0.8,0.2-1.5,0.5-2.1c0.3-0.6,0.8-1.1,1.3-1.5c0.6-0.3,1.2-0.5,1.9-0.5
				c0.6,0,1.1,0.1,1.6,0.4c0.5,0.3,0.8,0.6,1.1,1h0.1v-1.1h1.2v10.9h-1.3V74.5z M62,73.3c0.4-0.2,0.7-0.6,0.9-1
				c0.2-0.4,0.4-1,0.4-1.5c0-0.6-0.1-1.1-0.4-1.5c-0.2-0.4-0.5-0.8-0.9-1s-0.8-0.4-1.3-0.4c-0.4,0-0.9,0.1-1.2,0.4
				c-0.4,0.2-0.7,0.6-0.9,1c-0.2,0.4-0.4,1-0.4,1.5c0,0.6,0.1,1.1,0.4,1.5c0.2,0.4,0.5,0.8,0.9,1c0.4,0.2,0.8,0.4,1.2,0.4
				C61.2,73.6,61.6,73.5,62,73.3z"/>
			<path class="st0" d="M66.7,74c-0.5-0.5-0.7-1.3-0.7-2.3v-4.8h1.3v4.6c0,0.7,0.2,1.3,0.5,1.6c0.3,0.3,0.8,0.5,1.3,0.5
				c0.4,0,0.8-0.1,1.1-0.3c0.3-0.2,0.6-0.5,0.8-0.9c0.2-0.4,0.3-0.8,0.3-1.2v-4.3h1.3v7.6h-1.2v-1.1h-0.1c-0.2,0.4-0.5,0.7-1,1
				c-0.5,0.3-1,0.4-1.5,0.4C67.9,74.8,67.2,74.5,66.7,74z"/>
			<path class="st0" d="M75.1,74.4c-0.4-0.2-0.8-0.5-1-0.9c-0.2-0.4-0.4-0.8-0.4-1.3c0-0.8,0.3-1.4,0.9-1.9s1.4-0.7,2.3-0.7
				c0.5,0,0.9,0.1,1.3,0.1c0.4,0.1,0.7,0.2,0.9,0.3v-0.5c0-0.6-0.2-1-0.6-1.4c-0.4-0.3-0.9-0.5-1.5-0.5c-0.4,0-0.8,0.1-1.2,0.3
				c-0.4,0.2-0.6,0.4-0.9,0.8l-1-0.7c0.3-0.5,0.7-0.8,1.2-1.1c0.5-0.3,1.1-0.4,1.7-0.4c1,0,1.9,0.3,2.5,0.8c0.6,0.5,0.9,1.3,0.9,2.2
				v4.8h-1.2v-1.1h-0.1c-0.2,0.4-0.6,0.7-1,0.9c-0.4,0.3-0.9,0.4-1.5,0.4C76,74.8,75.5,74.7,75.1,74.4z M77.9,73.3
				c0.4-0.2,0.7-0.5,0.9-0.9c0.2-0.4,0.3-0.8,0.3-1.2c-0.2-0.2-0.5-0.3-0.9-0.4c-0.4-0.1-0.7-0.1-1.1-0.1c-0.7,0-1.2,0.1-1.6,0.4
				c-0.4,0.3-0.5,0.7-0.5,1.1c0,0.4,0.2,0.8,0.5,1c0.3,0.3,0.7,0.4,1.2,0.4C77.1,73.7,77.5,73.5,77.9,73.3z"/>
			<path class="st0" d="M81.9,63.8h1.3v10.7h-1.3V63.8z"/>
			<path class="st0" d="M84.9,65.2c-0.2-0.2-0.3-0.4-0.3-0.6s0.1-0.5,0.3-0.6c0.2-0.2,0.4-0.3,0.6-0.3s0.5,0.1,0.6,0.3
				c0.2,0.2,0.3,0.4,0.3,0.6s-0.1,0.5-0.3,0.6c-0.2,0.2-0.4,0.3-0.7,0.3C85.3,65.5,85.1,65.4,84.9,65.2z M84.9,66.9h1.3v7.6h-1.3
				V66.9z"/>
			<path class="st0" d="M89.9,74.6c-0.3-0.1-0.5-0.2-0.7-0.4c-0.2-0.2-0.4-0.4-0.5-0.7s-0.1-0.6-0.1-0.9V68h-1.3v-1.2h1.3v-2.2h1.3
				v2.2h1.9V68h-1.9v4.3c0,0.4,0.1,0.7,0.2,1c0.2,0.2,0.5,0.3,0.8,0.3c0.3,0,0.6-0.1,0.8-0.3v1.2c-0.1,0.1-0.3,0.1-0.5,0.1
				c-0.2,0-0.4,0-0.6,0C90.5,74.8,90.2,74.7,89.9,74.6z"/>
			<path class="st0" d="M95.5,74.1l-3.2-7.2h1.4l2.4,5.7h0l2.3-5.7h1.4l-4.7,10.9h-1.3L95.5,74.1z"/>
		</g>
		<g id="copy01_ln02">
			<path class="st0" d="M23.1,85.9h1.4l2.4,6.1h0l2.4-6.1h1.3l-3.1,7.6h-1.3L23.1,85.9z"/>
			<path class="st0" d="M31.5,84.2c-0.2-0.2-0.3-0.4-0.3-0.6s0.1-0.5,0.3-0.6c0.2-0.2,0.4-0.3,0.6-0.3s0.5,0.1,0.6,0.3
				c0.2,0.2,0.3,0.4,0.3,0.6S33,84,32.8,84.2c-0.2,0.2-0.4,0.3-0.7,0.3C31.9,84.5,31.7,84.4,31.5,84.2z M31.5,85.9h1.3v7.6h-1.3
				V85.9z"/>
			<path class="st0" d="M35.8,93.3c-0.6-0.3-1-0.8-1.3-1.4c-0.3-0.6-0.5-1.3-0.5-2.1c0-0.8,0.2-1.5,0.5-2.1c0.3-0.6,0.8-1.1,1.3-1.5
				c0.6-0.3,1.2-0.5,1.9-0.5c0.6,0,1.1,0.1,1.6,0.4c0.5,0.3,0.8,0.6,1.1,1h0.1L40.3,86v-3.2h1.3v10.7h-1.2v-1.1h-0.1
				c-0.2,0.4-0.6,0.7-1.1,1c-0.5,0.3-1,0.4-1.6,0.4C37,93.8,36.4,93.6,35.8,93.3z M39.1,92.3c0.4-0.2,0.7-0.6,0.9-1
				c0.2-0.4,0.4-1,0.4-1.5c0-0.6-0.1-1.1-0.4-1.5c-0.2-0.4-0.5-0.8-0.9-1s-0.8-0.4-1.3-0.4c-0.4,0-0.9,0.1-1.2,0.4
				c-0.4,0.2-0.7,0.6-0.9,1c-0.2,0.4-0.4,1-0.4,1.5c0,0.6,0.1,1.1,0.4,1.5c0.2,0.4,0.5,0.8,0.9,1c0.4,0.2,0.8,0.4,1.2,0.4
				C38.3,92.6,38.7,92.5,39.1,92.3z"/>
			<path class="st0" d="M44.6,93.3c-0.6-0.3-1-0.8-1.4-1.4c-0.3-0.6-0.5-1.3-0.5-2.1c0-0.7,0.2-1.4,0.5-2c0.3-0.6,0.7-1.1,1.3-1.5
				s1.2-0.6,2-0.6c0.8,0,1.4,0.2,1.9,0.5c0.5,0.3,1,0.8,1.3,1.4c0.3,0.6,0.4,1.3,0.4,2c0,0.1,0,0.3,0,0.4h-6c0,0.6,0.2,1.1,0.4,1.5
				c0.3,0.4,0.6,0.7,1,0.9c0.4,0.2,0.8,0.3,1.2,0.3c1,0,1.7-0.5,2.3-1.4l1.1,0.5c-0.3,0.6-0.8,1.1-1.3,1.5c-0.6,0.4-1.2,0.5-2,0.5
				C45.8,93.8,45.2,93.6,44.6,93.3z M48.8,88.9c0-0.3-0.1-0.6-0.3-1c-0.2-0.3-0.4-0.6-0.8-0.8c-0.3-0.2-0.8-0.3-1.3-0.3
				c-0.6,0-1.1,0.2-1.5,0.6c-0.4,0.4-0.7,0.9-0.8,1.5H48.8z"/>
			<path class="st0" d="M52.9,93.2c-0.6-0.4-1.1-0.9-1.4-1.5S51,90.5,51,89.7s0.2-1.4,0.5-2.1s0.8-1.1,1.4-1.5
				c0.6-0.4,1.3-0.5,2-0.5s1.4,0.2,2,0.5s1.1,0.9,1.4,1.5s0.5,1.3,0.5,2.1s-0.2,1.4-0.5,2.1s-0.8,1.1-1.4,1.5
				c-0.6,0.4-1.3,0.5-2,0.5S53.5,93.6,52.9,93.2z M56.3,92.3c0.4-0.2,0.7-0.6,1-1s0.4-1,0.4-1.5c0-0.6-0.1-1.1-0.4-1.5
				c-0.2-0.4-0.6-0.8-1-1c-0.4-0.2-0.8-0.4-1.3-0.4c-0.5,0-0.9,0.1-1.3,0.4s-0.7,0.6-1,1c-0.2,0.4-0.4,1-0.4,1.5
				c0,0.6,0.1,1.1,0.4,1.5s0.6,0.8,1,1c0.4,0.2,0.9,0.4,1.3,0.4C55.4,92.6,55.9,92.5,56.3,92.3z"/>
			<path class="st0" d="M64.8,93.2c-0.6-0.4-1-0.8-1.4-1.5c-0.3-0.6-0.5-1.3-0.5-2.1c0-0.8,0.2-1.5,0.5-2.1c0.3-0.6,0.8-1.1,1.4-1.5
				c0.6-0.3,1.3-0.5,2-0.5c0.8,0,1.5,0.2,2.1,0.6c0.6,0.4,1,0.9,1.2,1.5l-1.2,0.5c-0.2-0.5-0.5-0.8-0.8-1.1
				c-0.4-0.2-0.8-0.4-1.4-0.4c-0.5,0-0.9,0.1-1.3,0.4c-0.4,0.2-0.7,0.6-0.9,1s-0.4,0.9-0.4,1.5c0,0.6,0.1,1.1,0.4,1.5
				c0.2,0.4,0.5,0.8,0.9,1c0.4,0.2,0.8,0.4,1.3,0.4c0.5,0,1-0.1,1.4-0.4c0.4-0.3,0.7-0.6,0.9-1.1l1.1,0.5c-0.3,0.6-0.7,1.1-1.3,1.5
				c-0.6,0.4-1.3,0.6-2.1,0.6C66.1,93.8,65.4,93.6,64.8,93.2z"/>
			<path class="st0" d="M72.1,93.4c-0.4-0.2-0.8-0.5-1-0.9c-0.2-0.4-0.4-0.8-0.4-1.3c0-0.8,0.3-1.4,0.9-1.9s1.4-0.7,2.3-0.7
				c0.5,0,0.9,0.1,1.3,0.1c0.4,0.1,0.7,0.2,0.9,0.3v-0.5c0-0.6-0.2-1-0.6-1.4c-0.4-0.3-0.9-0.5-1.5-0.5c-0.4,0-0.8,0.1-1.2,0.3
				c-0.4,0.2-0.6,0.4-0.9,0.8l-1-0.7c0.3-0.5,0.7-0.8,1.2-1.1c0.5-0.3,1.1-0.4,1.7-0.4c1,0,1.9,0.3,2.5,0.8c0.6,0.5,0.9,1.3,0.9,2.2
				v4.8h-1.2v-1.1h-0.1c-0.2,0.4-0.6,0.7-1,0.9c-0.4,0.3-0.9,0.4-1.5,0.4C73.1,93.8,72.6,93.7,72.1,93.4z M75,92.3
				c0.4-0.2,0.7-0.5,0.9-0.9c0.2-0.4,0.3-0.8,0.3-1.2c-0.2-0.2-0.5-0.3-0.9-0.4c-0.4-0.1-0.7-0.1-1.1-0.1c-0.7,0-1.2,0.1-1.6,0.4
				c-0.4,0.3-0.5,0.7-0.5,1.1c0,0.4,0.2,0.8,0.5,1c0.3,0.3,0.7,0.4,1.2,0.4C74.2,92.7,74.6,92.5,75,92.3z"/>
			<path class="st0" d="M78.9,82.8h1.3v10.7h-1.3V82.8z"/>
			<path class="st0" d="M81.8,82.8h1.3v10.7h-1.3V82.8z"/>
			<path class="st0" d="M84.8,84.2c-0.2-0.2-0.3-0.4-0.3-0.6s0.1-0.5,0.3-0.6c0.2-0.2,0.4-0.3,0.6-0.3s0.5,0.1,0.6,0.3
				c0.2,0.2,0.3,0.4,0.3,0.6s-0.1,0.5-0.3,0.6c-0.2,0.2-0.4,0.3-0.7,0.3C85.2,84.5,85,84.4,84.8,84.2z M84.8,85.9h1.3v7.6h-1.3V85.9
				z"/>
			<path class="st0" d="M87.9,85.9h1.2V87h0.1c0.2-0.4,0.5-0.7,1-1c0.5-0.3,0.9-0.4,1.5-0.4c0.9,0,1.6,0.3,2.1,0.8
				c0.5,0.5,0.7,1.3,0.7,2.2v4.9h-1.3v-4.7c0-0.7-0.2-1.2-0.5-1.5c-0.3-0.3-0.8-0.5-1.4-0.5c-0.4,0-0.8,0.1-1.1,0.3
				c-0.3,0.2-0.6,0.5-0.8,0.9c-0.2,0.4-0.3,0.8-0.3,1.2v4.3h-1.3V85.9z"/>
			<path class="st0" d="M97.1,96.4c-0.6-0.4-1-0.9-1.2-1.5l1.2-0.5c0.2,0.4,0.5,0.8,0.8,1.1c0.4,0.3,0.9,0.4,1.4,0.4
				c0.8,0,1.4-0.2,1.8-0.7s0.7-1.1,0.7-1.9v-0.9h-0.1c-0.3,0.4-0.6,0.7-1.1,1c-0.5,0.2-1,0.4-1.6,0.4c-0.7,0-1.3-0.2-1.8-0.5
				c-0.5-0.3-1-0.8-1.3-1.4c-0.3-0.6-0.5-1.3-0.5-2.1c0-0.8,0.2-1.5,0.5-2.1c0.3-0.6,0.8-1.1,1.3-1.4s1.1-0.5,1.8-0.5
				c0.6,0,1.1,0.1,1.6,0.4c0.5,0.2,0.8,0.6,1.1,1h0.1v-1.1h1.2v7.4c0,1.2-0.3,2.2-1,2.8c-0.7,0.6-1.6,1-2.7,1
				C98.4,97,97.7,96.8,97.1,96.4z M100.6,92.3c0.4-0.2,0.7-0.6,0.9-1c0.2-0.4,0.3-1,0.3-1.6c0-0.6-0.1-1.1-0.3-1.6s-0.5-0.8-0.9-1
				s-0.8-0.3-1.3-0.3c-0.5,0-0.9,0.1-1.3,0.4c-0.4,0.2-0.7,0.6-0.9,1c-0.2,0.4-0.3,1-0.3,1.6c0,0.6,0.1,1.1,0.3,1.6
				c0.2,0.4,0.5,0.8,0.9,1s0.8,0.3,1.3,0.3C99.8,92.6,100.2,92.5,100.6,92.3z"/>
			<path class="st0" d="M104.5,94.8l0.8-1.2c-0.2,0-0.3-0.1-0.5-0.3c-0.1-0.2-0.2-0.4-0.2-0.6c0-0.3,0.1-0.5,0.3-0.7
				c0.2-0.2,0.4-0.3,0.7-0.3s0.5,0.1,0.7,0.3c0.2,0.2,0.3,0.4,0.3,0.7c0,0.2,0,0.3-0.1,0.5c-0.1,0.2-0.2,0.3-0.3,0.5l-1,1.5
				L104.5,94.8z"/>
		</g>
		<g id="copy01_ln03">
			<path class="st0" d="M26.3,112.4c-0.5-0.3-0.8-0.6-1-1h-0.1v1.1h-1.2v-10.7h1.3v3.2l-0.1,1.1h0.1c0.2-0.4,0.6-0.7,1-1
				c0.5-0.3,1-0.4,1.6-0.4c0.7,0,1.3,0.2,1.9,0.5c0.6,0.4,1,0.8,1.3,1.5c0.3,0.6,0.5,1.3,0.5,2.1c0,0.8-0.2,1.5-0.5,2.1
				c-0.3,0.6-0.8,1.1-1.3,1.4c-0.6,0.4-1.2,0.5-1.9,0.5C27.3,112.8,26.7,112.6,26.3,112.4z M28.9,111.3c0.4-0.2,0.7-0.6,0.9-1
				c0.2-0.4,0.4-1,0.4-1.5c0-0.6-0.1-1.1-0.4-1.5c-0.2-0.4-0.5-0.8-0.9-1c-0.4-0.2-0.8-0.4-1.2-0.4c-0.4,0-0.9,0.1-1.2,0.4
				s-0.7,0.6-0.9,1s-0.3,1-0.3,1.5c0,0.6,0.1,1.1,0.3,1.5s0.5,0.8,0.9,1c0.4,0.2,0.8,0.4,1.2,0.4C28.1,111.6,28.5,111.5,28.9,111.3z
				"/>
			<path class="st0" d="M34.8,112.1l-3.2-7.2H33l2.4,5.7h0l2.3-5.7h1.4l-4.7,10.9h-1.3L34.8,112.1z"/>
			<path class="st0" d="M45.3,112c-0.9-0.5-1.5-1.2-2-2c-0.5-0.9-0.8-1.8-0.8-2.9s0.3-2,0.8-2.9c0.5-0.9,1.2-1.5,2-2
				c0.8-0.5,1.8-0.7,2.8-0.7c0.8,0,1.5,0.1,2.2,0.4c0.7,0.3,1.3,0.7,1.7,1.2l-0.9,0.9c-0.3-0.4-0.8-0.7-1.3-1
				c-0.5-0.2-1.1-0.3-1.7-0.3c-0.8,0-1.5,0.2-2.1,0.5c-0.7,0.4-1.2,0.9-1.6,1.5c-0.4,0.7-0.6,1.4-0.6,2.3s0.2,1.6,0.6,2.3
				c0.4,0.7,0.9,1.2,1.6,1.5c0.7,0.4,1.4,0.5,2.1,0.5c0.7,0,1.3-0.1,1.8-0.3c0.5-0.2,0.9-0.5,1.3-0.9c0.3-0.3,0.5-0.6,0.6-1
				c0.2-0.4,0.3-0.8,0.3-1.3h-4v-1.2h5.2c0,0.3,0.1,0.5,0.1,0.8c0,0.7-0.1,1.3-0.3,1.9s-0.5,1.2-1,1.6c-1,1.1-2.3,1.6-3.9,1.6
				C47.1,112.8,46.2,112.5,45.3,112z"/>
			<path class="st0" d="M56.2,112.2c-0.6-0.4-1.1-0.9-1.4-1.5s-0.5-1.3-0.5-2.1s0.2-1.4,0.5-2.1s0.8-1.1,1.4-1.5
				c0.6-0.4,1.3-0.5,2-0.5s1.4,0.2,2,0.5s1.1,0.9,1.4,1.5s0.5,1.3,0.5,2.1s-0.2,1.4-0.5,2.1s-0.8,1.1-1.4,1.5
				c-0.6,0.4-1.3,0.5-2,0.5S56.8,112.6,56.2,112.2z M59.5,111.3c0.4-0.2,0.7-0.6,1-1s0.4-1,0.4-1.5c0-0.6-0.1-1.1-0.4-1.5
				c-0.2-0.4-0.6-0.8-1-1c-0.4-0.2-0.8-0.4-1.3-0.4c-0.5,0-0.9,0.1-1.3,0.4s-0.7,0.6-1,1c-0.2,0.4-0.4,1-0.4,1.5
				c0,0.6,0.1,1.1,0.4,1.5s0.6,0.8,1,1c0.4,0.2,0.9,0.4,1.3,0.4C58.7,111.6,59.1,111.5,59.5,111.3z"/>
			<path class="st0" d="M64.9,112.2c-0.6-0.4-1.1-0.9-1.4-1.5s-0.5-1.3-0.5-2.1s0.2-1.4,0.5-2.1s0.8-1.1,1.4-1.5
				c0.6-0.4,1.3-0.5,2-0.5s1.4,0.2,2,0.5s1.1,0.9,1.4,1.5s0.5,1.3,0.5,2.1s-0.2,1.4-0.5,2.1s-0.8,1.1-1.4,1.5
				c-0.6,0.4-1.3,0.5-2,0.5S65.5,112.6,64.9,112.2z M68.2,111.3c0.4-0.2,0.7-0.6,1-1s0.4-1,0.4-1.5c0-0.6-0.1-1.1-0.4-1.5
				c-0.2-0.4-0.6-0.8-1-1c-0.4-0.2-0.8-0.4-1.3-0.4c-0.5,0-0.9,0.1-1.3,0.4s-0.7,0.6-1,1c-0.2,0.4-0.4,1-0.4,1.5
				c0,0.6,0.1,1.1,0.4,1.5s0.6,0.8,1,1c0.4,0.2,0.9,0.4,1.3,0.4C67.4,111.6,67.8,111.5,68.2,111.3z"/>
			<path class="st0" d="M73.2,115.4c-0.6-0.4-1-0.9-1.2-1.5l1.2-0.5c0.2,0.4,0.5,0.8,0.8,1.1c0.4,0.3,0.9,0.4,1.4,0.4
				c0.8,0,1.4-0.2,1.8-0.7c0.4-0.4,0.7-1.1,0.7-1.9v-0.9h-0.1c-0.3,0.4-0.6,0.7-1.1,1c-0.5,0.2-1,0.4-1.6,0.4
				c-0.7,0-1.3-0.2-1.8-0.5c-0.5-0.3-1-0.8-1.3-1.4c-0.3-0.6-0.5-1.3-0.5-2.1c0-0.8,0.2-1.5,0.5-2.1c0.3-0.6,0.8-1.1,1.3-1.4
				s1.1-0.5,1.8-0.5c0.6,0,1.1,0.1,1.6,0.4c0.5,0.2,0.8,0.6,1.1,1h0.1v-1.1h1.2v7.4c0,1.2-0.3,2.2-1,2.8c-0.7,0.6-1.6,1-2.7,1
				C74.5,116,73.8,115.8,73.2,115.4z M76.7,111.3c0.4-0.2,0.7-0.6,0.9-1c0.2-0.4,0.3-1,0.3-1.6c0-0.6-0.1-1.1-0.3-1.6
				s-0.5-0.8-0.9-1s-0.8-0.3-1.3-0.3c-0.5,0-0.9,0.1-1.3,0.4c-0.4,0.2-0.7,0.6-0.9,1c-0.2,0.4-0.3,1-0.3,1.6c0,0.6,0.1,1.1,0.3,1.6
				c0.2,0.4,0.5,0.8,0.9,1s0.8,0.3,1.3,0.3C75.9,111.6,76.3,111.5,76.7,111.3z"/>
			<path class="st0" d="M80.8,101.8H82v10.7h-1.3V101.8z"/>
			<path class="st0" d="M85,112.3c-0.6-0.3-1-0.8-1.4-1.4c-0.3-0.6-0.5-1.3-0.5-2.1c0-0.7,0.2-1.4,0.5-2c0.3-0.6,0.7-1.1,1.3-1.5
				s1.2-0.6,2-0.6c0.8,0,1.4,0.2,1.9,0.5c0.5,0.3,1,0.8,1.3,1.4c0.3,0.6,0.4,1.3,0.4,2c0,0.1,0,0.3,0,0.4h-6c0,0.6,0.2,1.1,0.4,1.5
				c0.3,0.4,0.6,0.7,1,0.9c0.4,0.2,0.8,0.3,1.2,0.3c1,0,1.7-0.5,2.3-1.4l1.1,0.5c-0.3,0.6-0.8,1.1-1.3,1.5c-0.6,0.4-1.2,0.5-2,0.5
				C86.3,112.8,85.6,112.6,85,112.3z M89.2,107.9c0-0.3-0.1-0.6-0.3-1c-0.2-0.3-0.4-0.6-0.8-0.8c-0.3-0.2-0.8-0.3-1.3-0.3
				c-0.6,0-1.1,0.2-1.5,0.6c-0.4,0.4-0.7,0.9-0.8,1.5H89.2z"/>
			<path class="st0" d="M91.9,112.3c-0.2-0.2-0.3-0.4-0.3-0.7c0-0.2,0.1-0.5,0.3-0.6s0.4-0.3,0.7-0.3c0.3,0,0.5,0.1,0.7,0.3
				c0.2,0.2,0.3,0.4,0.3,0.6c0,0.3-0.1,0.5-0.3,0.7c-0.2,0.2-0.4,0.3-0.7,0.3C92.4,112.5,92.1,112.4,91.9,112.3z"/>
		</g>
	</g>
</svg>
