<?xml version="1.0" encoding="utf-8"?>
<!-- Generator: Adobe Illustrator 22.0.1, SVG Export Plug-In . SVG Version: 6.00 Build 0)  -->
<svg version="1.1" xmlns="http://www.w3.org/2000/svg" xmlns:xlink="http://www.w3.org/1999/xlink" x="0px" y="0px"
	 viewBox="0 0 300 250" enable-background="new 0 0 300 250" xml:space="preserve">
<g id="logo">
	<g>
		<path fill="#5F6368" d="M113.2,40.4V28.6h3.6c1.8,0,3.3,0.5,4.3,1.6s1.6,2.5,1.6,4.3c0,1.8-0.5,3.2-1.6,4.3s-2.5,1.6-4.3,1.6
			H113.2z M114.7,30.1V39h2.1c1.4,0,2.5-0.4,3.2-1.2c0.8-0.8,1.2-1.9,1.2-3.3c0-1.4-0.4-2.5-1.2-3.3s-1.9-1.2-3.2-1.2H114.7z"/>
		<path fill="#5F6368" d="M131.5,40.4H130v-1.1h-0.1c-0.2,0.4-0.6,0.7-1.1,1c-0.5,0.3-1,0.4-1.5,0.4c-1,0-1.8-0.3-2.3-0.8
			c-0.5-0.6-0.8-1.4-0.8-2.4v-5.1h1.5v5c0,1.3,0.7,2,2,2c0.6,0,1.1-0.2,1.5-0.7c0.4-0.5,0.6-1.1,0.6-1.8v-4.5h1.5V40.4z"/>
		<path fill="#5F6368" d="M132.8,36.4c0-1.2,0.4-2.3,1.2-3.1c0.8-0.8,1.8-1.2,3-1.2c1.2,0,2.2,0.4,3,1.2c0.8,0.8,1.2,1.8,1.2,3.1
			c0,1.3-0.4,2.3-1.2,3.1c-0.8,0.8-1.8,1.2-3,1.2c-1.2,0-2.2-0.4-3-1.2C133.2,38.6,132.8,37.6,132.8,36.4z M134.3,36.4
			c0,0.9,0.3,1.6,0.8,2.1c0.5,0.5,1.1,0.8,1.9,0.8s1.4-0.3,1.9-0.8c0.5-0.5,0.8-1.2,0.8-2.1c0-0.9-0.3-1.6-0.8-2.1
			c-0.5-0.5-1.1-0.8-1.9-0.8s-1.4,0.3-1.9,0.8C134.6,34.8,134.3,35.5,134.3,36.4z"/>
	</g>
	<g id="Art">
		<g>
			<path id="Teardrop" fill="#1A73E8" d="M45.4,34.7c-0.3,6.1-5.4,10.8-11.5,10.8c-6.3,0-11.5-5.1-11.5-11.5s5.2-11.5,11.5-11.5l0,0
				l0,0h9.7c1,0,1.8,0.8,1.8,1.8V34.7z"/>
		</g>
		<path id="Highlight" opacity="0.2" fill="#FFFFFF" enable-background="new    " d="M43.6,22.5h-9.7l0,0c-6.4,0-11.5,5.1-11.5,11.5
			c0,0,0,0,0,0c0-6.3,5.2-11.4,11.5-11.4l0,0h9.7c1,0,1.8,0.8,1.8,1.8v-0.1C45.4,23.3,44.6,22.5,43.6,22.5z"/>
		<g id="Shadow">
			<g>
				<path fill="#1A237E" fill-opacity="0.2" d="M45.4,34.7v-0.3c-0.3,6.1-5.4,11-11.5,11c-6.3,0-11.5-5.2-11.5-11.5c0,0,0,0.1,0,0.1
					c0,6.4,5.1,11.5,11.5,11.5c6.2,0,11.2-4.8,11.5-11"/>
			</g>
		</g>
		<path id="Camera_Body_Shadow" fill="#185ABC" d="M38.6,36.2c0,1.1-0.9,1.8-2,1.8h-6.5c-1.1,0-2-0.7-2-1.8v0.6c0,1.1,0.9,2,2,2h6.5
			c1.1,0,2-0.9,2-2L38.6,36.2L38.6,36.2z"/>
		<path id="Camera_Lens_Shadow" fill="#185ABC" d="M41.8,36.7c0,0.3-0.4,0.5-0.7,0.3l-2.5-2.5l0,0.7l2.5,2.5
			c0.3,0.2,0.7,0.1,0.7-0.3V36.7z"/>
		<g id="Camera">
			<path id="lens" fill="#F1F3F4" d="M41.1,30.5L38.6,33v1.6l2.5,2.5c0.2,0.2,0.7,0.1,0.7-0.3l0-6C41.8,30.4,41.4,30.2,41.1,30.5z"
				/>
			<path id="body" fill="#FFFFFF" d="M36.7,29.3l-6.5,0c-1.1,0-2,0.9-2,2v5c0,1.1,0.9,2,2,2l6.5,0c1.1,0,2-0.9,2-2v-5
				C38.6,30.2,37.8,29.3,36.7,29.3z"/>
			<g id="inner_shadow__x28_clipped_to_lens_x29_">
				<polygon id="inner_shadow" fill="#BDC1C6" points="38.6,34.7 38.6,34.5 39.2,35 39.2,32.4 38.6,33 				"/>
			</g>
		</g>
	</g>
	<path fill="#5F6368" d="M61.2,40.7c-3.7,0-6.8-3-6.8-6.7c0-3.7,3.1-6.7,6.8-6.7c2,0,3.5,0.8,4.6,1.8l-1.3,1.3
		c-0.8-0.7-1.8-1.3-3.3-1.3c-2.7,0-4.8,2.2-4.8,4.9c0,2.7,2.1,4.9,4.8,4.9c1.7,0,2.7-0.7,3.4-1.3c0.5-0.5,0.9-1.3,1-2.3h-4.4v-1.8
		h6.2c0.1,0.3,0.1,0.7,0.1,1.1c0,1.4-0.4,3.1-1.6,4.3C64.7,40,63.2,40.7,61.2,40.7z"/>
	<path fill="#5F6368" d="M77,36.4c0,2.5-1.9,4.3-4.3,4.3c-2.3,0-4.3-1.8-4.3-4.3c0-2.5,1.9-4.3,4.3-4.3C75.1,32.1,77,33.9,77,36.4z
		 M75.1,36.4c0-1.5-1.1-2.6-2.4-2.6c-1.3,0-2.4,1.1-2.4,2.6c0,1.5,1.1,2.6,2.4,2.6C74,39,75.1,37.9,75.1,36.4z"/>
	<path fill="#5F6368" d="M86.5,36.4c0,2.5-1.9,4.3-4.3,4.3c-2.3,0-4.3-1.8-4.3-4.3c0-2.5,1.9-4.3,4.3-4.3
		C84.6,32.1,86.5,33.9,86.5,36.4z M84.7,36.4c0-1.5-1.1-2.6-2.4-2.6c-1.3,0-2.4,1.1-2.4,2.6c0,1.5,1.1,2.6,2.4,2.6
		C83.6,39,84.7,37.9,84.7,36.4z"/>
	<path fill="#5F6368" d="M95.8,32.3v7.7c0,3.2-1.9,4.5-4.1,4.5c-2.1,0-3.4-1.4-3.8-2.5l1.7-0.7c0.3,0.7,1,1.5,2.2,1.5
		c1.4,0,2.3-0.9,2.3-2.5v-0.6H94c-0.4,0.5-1.2,1-2.3,1c-2.2,0-4.1-1.9-4.1-4.3c0-2.4,2-4.3,4.1-4.3c1,0,1.8,0.5,2.3,1H94v-0.7H95.8z
		 M94.2,36.4c0-1.5-1-2.6-2.3-2.6c-1.3,0-2.4,1.1-2.4,2.6c0,1.5,1.1,2.6,2.4,2.6C93.1,39,94.2,37.9,94.2,36.4z"/>
	<path fill="#5F6368" d="M99.2,27.8v12.6h-1.9V27.8H99.2z"/>
	<path fill="#5F6368" d="M106.6,37.8l1.5,1c-0.5,0.7-1.6,1.9-3.6,1.9c-2.5,0-4.2-1.9-4.2-4.3c0-2.6,1.8-4.3,4-4.3
		c2.2,0,3.3,1.8,3.7,2.7l0.2,0.5l-5.8,2.4c0.4,0.9,1.1,1.3,2.1,1.3S106.1,38.5,106.6,37.8z M102.1,36.3l3.9-1.6
		c-0.2-0.5-0.9-0.9-1.6-0.9C103.4,33.7,102,34.6,102.1,36.3z"/>
</g>
</svg>
