<?xml version="1.0" encoding="utf-8"?>
<!-- Generator: Adobe Illustrator 22.0.1, SVG Export Plug-In . SVG Version: 6.00 Build 0)  -->
<svg version="1.1" id="Layer_1" xmlns="http://www.w3.org/2000/svg" xmlns:xlink="http://www.w3.org/1999/xlink" x="0px" y="0px"
	 viewBox="0 0 728 90" style="enable-background:new 0 0 728 90;" xml:space="preserve">
<style type="text/css">
	.st9{fill:#1A73E8;}
	.st1{fill:#FFFFFF;}
</style>
<g id="cta">
	<path id="ctaShape" class="st9" d="M704.1,60H609c-0.5,0-0.9-0.4-0.9-0.9V30.9c0-0.5,0.4-0.9,0.9-0.9h95.1c0.5,0,0.9,0.4,0.9,0.9
		V59C705,59.6,704.6,60,704.1,60z"/>
	<g id="ctaCopy">
		<path class="st1" d="M635.4,48.5c-0.7-0.4-1.2-0.9-1.6-1.6c-0.4-0.7-0.6-1.4-0.6-2.3c0-0.8,0.2-1.6,0.6-2.3
			c0.4-0.7,0.9-1.2,1.6-1.6c0.7-0.4,1.4-0.6,2.3-0.6c0.6,0,1.2,0.1,1.8,0.4c0.5,0.2,1,0.6,1.4,1l-1,0.9c-0.3-0.4-0.6-0.6-1-0.8
			c-0.4-0.2-0.8-0.3-1.2-0.3c-0.6,0-1.1,0.1-1.6,0.4s-0.9,0.6-1.1,1.1s-0.4,1-0.4,1.7s0.1,1.2,0.4,1.7c0.3,0.5,0.7,0.9,1.1,1.1
			s1,0.4,1.6,0.4c1,0,1.8-0.4,2.4-1.2l1,0.9c-0.4,0.5-0.9,0.9-1.5,1.1c-0.6,0.3-1.2,0.4-1.9,0.4C636.9,49.1,636.1,48.9,635.4,48.5z"
			/>
		<path class="st1" d="M642.9,48.8c-0.3-0.2-0.6-0.4-0.8-0.7c-0.2-0.3-0.3-0.7-0.3-1.1c0-0.6,0.2-1.1,0.7-1.5
			c0.5-0.4,1.1-0.6,1.8-0.6c0.4,0,0.7,0,1,0.1c0.3,0.1,0.5,0.1,0.7,0.2V45c0-0.4-0.1-0.7-0.4-0.9c-0.3-0.2-0.6-0.4-1.1-0.4
			c-0.3,0-0.6,0.1-0.9,0.2c-0.3,0.1-0.5,0.3-0.7,0.6l-0.9-0.7c0.3-0.4,0.6-0.7,1.1-0.9c0.4-0.2,0.9-0.3,1.4-0.3
			c0.9,0,1.6,0.2,2.1,0.7c0.5,0.4,0.7,1.1,0.7,1.8v3.8H646v-0.7h-0.1c-0.2,0.3-0.4,0.5-0.7,0.7s-0.7,0.3-1.1,0.3
			C643.7,49.1,643.3,49,642.9,48.8z M645.2,47.8c0.3-0.2,0.5-0.4,0.6-0.6c0.1-0.3,0.2-0.5,0.2-0.8c-0.2-0.1-0.4-0.2-0.6-0.3
			c-0.2-0.1-0.5-0.1-0.8-0.1c-0.5,0-0.9,0.1-1.1,0.3c-0.2,0.2-0.3,0.5-0.3,0.8c0,0.3,0.1,0.5,0.3,0.7c0.2,0.2,0.5,0.3,0.8,0.3
			C644.6,48,644.9,47.9,645.2,47.8z"/>
		<path class="st1" d="M648.7,40.3h1.3v8.6h-1.3V40.3z"/>
		<path class="st1" d="M651.6,40.3h1.3v8.6h-1.3V40.3z"/>
		<path class="st1" d="M657.3,42.8h1.3v0.8h0.1c0.2-0.3,0.4-0.5,0.8-0.7s0.7-0.3,1.1-0.3c0.7,0,1.3,0.2,1.7,0.7
			c0.4,0.4,0.6,1,0.6,1.8v3.9h-1.3v-3.7c0-0.5-0.1-0.8-0.4-1.1s-0.6-0.3-1-0.3c-0.3,0-0.6,0.1-0.8,0.2c-0.2,0.2-0.4,0.4-0.5,0.7
			s-0.2,0.6-0.2,0.9v3.3h-1.3V42.8z"/>
		<path class="st1" d="M665.5,48.7c-0.5-0.3-0.9-0.7-1.1-1.2c-0.3-0.5-0.4-1-0.4-1.7c0-0.6,0.1-1.2,0.4-1.7c0.3-0.5,0.7-0.9,1.1-1.2
			c0.5-0.3,1-0.4,1.7-0.4s1.2,0.1,1.7,0.4s0.9,0.7,1.1,1.2c0.3,0.5,0.4,1,0.4,1.6c0,0.6-0.1,1.2-0.4,1.7c-0.3,0.5-0.7,0.9-1.1,1.2
			s-1,0.4-1.7,0.4S666,49,665.5,48.7z M668.1,47.6c0.3-0.2,0.5-0.4,0.7-0.7c0.2-0.3,0.3-0.7,0.3-1.1s-0.1-0.8-0.3-1.1
			c-0.2-0.3-0.4-0.5-0.7-0.7s-0.6-0.2-0.9-0.2s-0.6,0.1-0.9,0.2s-0.5,0.4-0.7,0.7c-0.2,0.3-0.3,0.7-0.3,1.1s0.1,0.8,0.3,1.1
			c0.2,0.3,0.4,0.5,0.7,0.7c0.3,0.2,0.6,0.2,0.9,0.2S667.8,47.8,668.1,47.6z"/>
		<path class="st1" d="M670.7,42.8h1.4l1.2,4.4h0l1.4-4.4h1.4l1.4,4.4h0l1.2-4.4h1.4l-2,6.1h-1.4l-1.4-4.4h0l-1.4,4.4h-1.4
			L670.7,42.8z"/>
	</g>
</g>
</svg>
