<?xml version="1.0" encoding="utf-8"?>
<!-- Generator: Adobe Illustrator 22.1.0, SVG Export Plug-In . SVG Version: 6.00 Build 0)  -->
<svg version="1.1" xmlns="http://www.w3.org/2000/svg" xmlns:xlink="http://www.w3.org/1999/xlink" x="0px" y="0px"
	 viewBox="0 0 160 600" style="enable-background:new 0 0 160 600;" xml:space="preserve">
<style type="text/css">
	.st0{fill:#4B4B4B;}
</style>
<g id="Layer_2_1_">
	<g id="copy">
		<g id="copy01_ln01">
			<path class="st0" d="M19.8519,156.204h1.785v-13.335h4.2v-1.701h-10.206v1.701h4.221V156.204z"/>
			<path class="st0" d="M28.3839,143.541c0.3639,0,0.6684-0.126,0.9135-0.378c0.2448-0.252,0.3675-0.5529,0.3675-0.903
				c0-0.3498-0.126-0.6474-0.378-0.8925c-0.252-0.2448-0.5532-0.3675-0.903-0.3675c-0.3501,0-0.651,0.1227-0.903,0.3675
				c-0.252,0.2451-0.378,0.5427-0.378,0.8925c0,0.3501,0.126,0.651,0.378,0.903C27.7329,143.415,28.0338,143.541,28.3839,143.541
				L28.3839,143.541z M27.5019,156.204h1.764v-10.71h-1.764V156.204z"/>
			<path class="st0" d="M35.3118,156.54c0.7838,0,1.4978-0.1332,2.142-0.399c0.6437-0.2658,1.155-0.6474,1.533-1.1445
				c0.378-0.4968,0.567-1.0743,0.567-1.7325c0-0.756-0.2662-1.3965-0.798-1.9215c-0.5323-0.525-1.323-0.9204-2.373-1.1865
				l-1.554-0.399c-0.6163-0.1539-1.0783-0.3534-1.386-0.5985c-0.3082-0.2448-0.462-0.5634-0.462-0.9555
				c0-0.42,0.2205-0.7665,0.6615-1.0395c0.441-0.273,0.9555-0.4095,1.5435-0.4095c1.218,0,2.0648,0.4761,2.541,1.428l1.554-0.714
				c-0.3082-0.7278-0.8295-1.2948-1.5645-1.701c-0.735-0.4059-1.5718-0.609-2.5095-0.609c-0.714,0-1.3792,0.126-1.995,0.378
				c-0.6163,0.252-1.1098,0.6126-1.4805,1.0815c-0.3712,0.4692-0.5565,1.0116-0.5565,1.6275c0,0.798,0.273,1.449,0.819,1.953
				s1.2458,0.861,2.1,1.071l1.302,0.336c0.8117,0.1962,1.407,0.4305,1.785,0.7035c0.378,0.273,0.567,0.6336,0.567,1.0815
				c0,0.504-0.2383,0.8925-0.714,1.1655c-0.4762,0.273-1.05,0.4095-1.722,0.4095c-0.63,0-1.2075-0.1749-1.7325-0.525
				c-0.525-0.3498-0.9208-0.8469-1.1865-1.491l-1.596,0.714c0.3218,0.84,0.8678,1.5297,1.638,2.0685
				C33.2045,156.2703,34.1636,156.54,35.3118,156.54L35.3118,156.54z"/>
			<path class="st0" d="M50.0745,156.54c0.336,0,0.6123-0.021,0.8295-0.063c0.2169-0.042,0.4305-0.1122,0.6405-0.21v-1.743
				c-0.378,0.2382-0.7701,0.357-1.176,0.357c-0.504,0-0.8892-0.1572-1.155-0.4722c-0.2241-0.2861-0.336-0.7297-0.336-1.3308v-5.967
				h2.604v-1.617h-2.604v-3.024h-1.785v3.024h-1.869v1.617h1.869v6.3929c0,0.5132,0.0699,0.9479,0.21,1.3043
				c0.1398,0.3563,0.3498,0.67,0.63,0.9407c0.252,0.2425,0.5634,0.4351,0.9345,0.5775
				C49.2377,156.4685,49.6404,156.54,50.0745,156.54L50.0745,156.54z"/>
			<path class="st0" d="M52.9472,156.204h1.785v-5.964c0-0.5739,0.1365-1.1268,0.4095-1.659c0.273-0.5319,0.6438-0.966,1.113-1.302
				c0.4689-0.336,0.9834-0.504,1.5435-0.504c0.7839,0,1.4208,0.231,1.911,0.693c0.4899,0.462,0.735,1.176,0.735,2.142v6.594h1.785
				v-6.867c0-1.26-0.3432-2.2713-1.029-3.0345c-0.6861-0.7629-1.68-1.1445-2.982-1.1445c-0.756,0-1.4526,0.1821-2.0895,0.546
				c-0.6372,0.3642-1.1025,0.819-1.3965,1.365h-0.084l0.084-1.47v-4.431h-1.785V156.204z"/>
			<path class="st0" d="M69.1696,156.54c1.1199,0,2.0754-0.252,2.8665-0.756c0.7908-0.504,1.4175-1.1898,1.8795-2.058l-1.512-0.735
				c-0.7422,1.2882-1.7991,1.932-3.171,1.932c-0.588,0-1.1517-0.1398-1.6905-0.42c-0.5391-0.2799-0.9837-0.6999-1.3335-1.26
				c-0.3501-0.5598-0.546-1.2459-0.588-2.058h8.463c0.042-0.1539,0.063-0.336,0.063-0.546c0-1.0638-0.2067-2.0088-0.6195-2.835
				c-0.4131-0.8259-1.0047-1.4733-1.7745-1.9425c-0.7701-0.4689-1.68-0.7035-2.73-0.7035c-1.0362,0-1.9461,0.2592-2.73,0.777
				c-0.7842,0.5181-1.3896,1.2111-1.8165,2.079c-0.4272,0.8682-0.6405,1.8201-0.6405,2.856c0,1.0782,0.2274,2.0475,0.6825,2.9085
				c0.4548,0.861,1.0884,1.5366,1.9005,2.0265C67.2304,156.2949,68.1475,156.54,69.1696,156.54L69.1696,156.54z M65.7256,149.715
				c0.1818-0.882,0.5634-1.5924,1.1445-2.1315c0.5808-0.5388,1.2915-0.8085,2.1315-0.8085c0.7278,0,1.3335,0.1542,1.8165,0.462
				c0.483,0.3081,0.8364,0.6861,1.0605,1.134c0.2238,0.4482,0.3498,0.8961,0.378,1.344H65.7256z"/>
			<path class="st0" d="M84.4153,156.54c0.7839,0,1.4978-0.1332,2.142-0.399c0.6437-0.2658,1.155-0.6474,1.533-1.1445
				c0.378-0.4968,0.567-1.0743,0.567-1.7325c0-0.756-0.2662-1.3965-0.798-1.9215c-0.5323-0.525-1.323-0.9204-2.373-1.1865
				l-1.554-0.399c-0.6163-0.1539-1.0783-0.3534-1.386-0.5985c-0.3082-0.2448-0.462-0.5634-0.462-0.9555
				c0-0.42,0.2205-0.7665,0.6615-1.0395c0.441-0.273,0.9555-0.4095,1.5435-0.4095c1.218,0,2.0649,0.4761,2.541,1.428l1.554-0.714
				c-0.3081-0.7278-0.8295-1.2948-1.5645-1.701c-0.735-0.4059-1.5718-0.609-2.5095-0.609c-0.714,0-1.3792,0.126-1.995,0.378
				c-0.6163,0.252-1.1098,0.6126-1.4805,1.0815c-0.3712,0.4692-0.5565,1.0116-0.5565,1.6275c0,0.798,0.273,1.449,0.819,1.953
				c0.546,0.504,1.2458,0.861,2.1,1.071l1.302,0.336c0.8117,0.1962,1.407,0.4305,1.785,0.7035s0.567,0.6336,0.567,1.0815
				c0,0.504-0.2383,0.8925-0.714,1.1655c-0.4761,0.273-1.05,0.4095-1.722,0.4095c-0.63,0-1.2075-0.1749-1.7325-0.525
				c-0.525-0.3498-0.9208-0.8469-1.1865-1.491l-1.596,0.714c0.3218,0.84,0.8678,1.5297,1.638,2.0685
				C82.308,156.2703,83.2671,156.54,84.4153,156.54L84.4153,156.54z"/>
			<path class="st0" d="M94.9466,156.54c1.1199,0,2.0754-0.252,2.8665-0.756c0.7908-0.504,1.4175-1.1898,1.8795-2.058l-1.512-0.735
				c-0.7422,1.2882-1.7991,1.932-3.171,1.932c-0.588,0-1.1517-0.1398-1.6905-0.42c-0.5391-0.2799-0.9837-0.6999-1.3335-1.26
				c-0.3501-0.5598-0.546-1.2459-0.588-2.058h8.463c0.042-0.1539,0.063-0.336,0.063-0.546c0-1.0638-0.2067-2.0088-0.6195-2.835
				c-0.4131-0.8259-1.0047-1.4733-1.7745-1.9425c-0.7701-0.4689-1.68-0.7035-2.73-0.7035c-1.0362,0-1.9461,0.2592-2.73,0.777
				c-0.7842,0.5181-1.3896,1.2111-1.8165,2.079c-0.4272,0.8682-0.6405,1.8201-0.6405,2.856c0,1.0782,0.2274,2.0475,0.6825,2.9085
				c0.4548,0.861,1.0884,1.5366,1.9005,2.0265C93.0074,156.2949,93.9245,156.54,94.9466,156.54L94.9466,156.54z M91.5026,149.715
				c0.1818-0.882,0.5634-1.5924,1.1445-2.1315c0.5808-0.5388,1.2915-0.8085,2.1315-0.8085c0.7278,0,1.3335,0.1542,1.8165,0.462
				c0.483,0.3081,0.8364,0.6861,1.0605,1.134c0.2238,0.4482,0.3498,0.8961,0.378,1.344H91.5026z"/>
			<path class="st0" d="M104.9255,156.54c0.7698,0,1.4628-0.1821,2.079-0.546c0.6159-0.3639,1.0779-0.8049,1.386-1.323h0.084v1.533
				h1.701v-6.783c0-1.3158-0.4167-2.3553-1.2495-3.1185c-0.8331-0.7629-1.9776-1.1445-3.4335-1.1445
				c-0.8961,0-1.7115,0.1821-2.4465,0.546c-0.735,0.3642-1.3125,0.8682-1.7325,1.512l1.344,1.008
				c0.294-0.462,0.693-0.8223,1.197-1.0815c0.504-0.2589,1.0569-0.3885,1.659-0.3885c0.8538,0,1.5609,0.2415,2.121,0.7245
				c0.5598,0.483,0.84,1.1235,0.84,1.9215v0.651c-0.294-0.1818-0.7176-0.3429-1.2705-0.483c-0.5532-0.1398-1.1517-0.21-1.7955-0.21
				c-1.302,0-2.3802,0.3186-3.234,0.9555c-0.8541,0.6372-1.281,1.5225-1.281,2.6565c0,0.6861,0.168,1.2987,0.504,1.8375
				c0.336,0.5391,0.8118,0.9627,1.428,1.2705C103.4414,156.3858,104.1413,156.54,104.9255,156.54L104.9255,156.54z
				 M105.0935,154.965c-0.6861,0-1.2531-0.1818-1.701-0.546c-0.4482-0.3639-0.672-0.84-0.672-1.428
				c0-0.6438,0.2484-1.1688,0.7455-1.575c0.4968-0.4059,1.2354-0.609,2.2155-0.609c0.546,0,1.0638,0.0702,1.554,0.21
				c0.4899,0.1401,0.903,0.3222,1.239,0.546c0,0.6162-0.1542,1.1832-0.462,1.701c-0.3081,0.5181-0.7212,0.9312-1.239,1.239
				C106.2554,154.8111,105.6953,154.965,105.0935,154.965L105.0935,154.965z"/>
			<path class="st0" d="M115.9902,156.54c0.7839,0,1.4979-0.1332,2.1421-0.399c0.6437-0.2658,1.1549-0.6474,1.5329-1.1445
				c0.378-0.4968,0.567-1.0743,0.567-1.7325c0-0.756-0.2661-1.3965-0.798-1.9215c-0.5322-0.525-1.323-0.9204-2.3729-1.1865
				l-1.554-0.399c-0.6163-0.1539-1.0783-0.3534-1.3861-0.5985c-0.3081-0.2448-0.4619-0.5634-0.4619-0.9555
				c0-0.42,0.2204-0.7665,0.6614-1.0395c0.441-0.273,0.9555-0.4095,1.5435-0.4095c1.218,0,2.0649,0.4761,2.541,1.428l1.554-0.714
				c-0.3081-0.7278-0.8295-1.2948-1.5645-1.701c-0.735-0.4059-1.5717-0.609-2.5095-0.609c-0.714,0-1.3791,0.126-1.995,0.378
				c-0.6162,0.252-1.1097,0.6126-1.4805,1.0815c-0.3711,0.4692-0.5564,1.0116-0.5564,1.6275c0,0.798,0.2729,1.449,0.8189,1.953
				c0.546,0.504,1.2459,0.861,2.1,1.071l1.302,0.336c0.8118,0.1962,1.407,0.4305,1.785,0.7035s0.567,0.6336,0.567,1.0815
				c0,0.504-0.2382,0.8925-0.714,1.1655c-0.4761,0.273-1.05,0.4095-1.722,0.4095c-0.63,0-1.2075-0.1749-1.7325-0.525
				c-0.525-0.3498-0.9207-0.8469-1.1865-1.491l-1.596,0.714c0.3219,0.84,0.8679,1.5297,1.638,2.0685
				C113.883,156.2703,114.8421,156.54,115.9902,156.54L115.9902,156.54z"/>
			<path class="st0" d="M126.6896,156.54c1.05,0,1.995-0.252,2.835-0.756s1.4943-1.1898,1.9635-2.058
				c0.4689-0.8679,0.7035-1.827,0.7035-2.877s-0.2346-2.0088-0.7035-2.877c-0.4692-0.8679-1.1235-1.554-1.9635-2.058
				s-1.785-0.756-2.835-0.756c-1.05,0-1.995,0.252-2.835,0.756s-1.4946,1.1901-1.9635,2.058
				c-0.4692,0.8682-0.7035,1.827-0.7035,2.877s0.2343,2.0091,0.7035,2.877c0.4689,0.8682,1.1235,1.554,1.9635,2.058
				S125.6396,156.54,126.6896,156.54L126.6896,156.54z M126.6896,154.923c-0.6582,0-1.2741-0.1644-1.848-0.4935
				c-0.5742-0.3288-1.0326-0.8013-1.3755-1.4175c-0.3432-0.6159-0.5145-1.3368-0.5145-2.163c0-0.8259,0.1713-1.5468,0.5145-2.163
				c0.3429-0.6159,0.8013-1.0884,1.3755-1.4175c0.5739-0.3288,1.1898-0.4935,1.848-0.4935c0.6579,0,1.2705,0.1647,1.8375,0.4935
				c0.567,0.3291,1.0218,0.8016,1.365,1.4175c0.3429,0.6162,0.5145,1.3371,0.5145,2.163c0,0.8262-0.1716,1.5471-0.5145,2.163
				c-0.3432,0.6162-0.798,1.0887-1.365,1.4175C127.9601,154.7586,127.3475,154.923,126.6896,154.923L126.6896,154.923z"/>
			<path class="st0" d="M133.8735,156.204h1.785v-6.027c0-0.5739,0.126-1.1235,0.378-1.6485
				c0.252-0.525,0.6054-0.9483,1.0605-1.2705c0.4548-0.3219,0.9693-0.483,1.5435-0.483c0.8259,0,1.4769,0.2241,1.953,0.672
				c0.4758,0.4482,0.714,1.1691,0.714,2.163v6.594h1.785v-6.867c0-1.2879-0.3396-2.3064-1.0185-3.0555
				c-0.6792-0.7488-1.6626-1.1235-2.9505-1.1235c-0.7281,0-1.4142,0.1857-2.058,0.5565c-0.6441,0.3711-1.113,0.8226-1.407,1.3545
				h-0.084v-1.575h-1.701V156.204z"/>
		</g>
		<g id="copy01_ln02">
			<path class="st0" d="M28.1679,181.54c0.336,0,0.6123-0.021,0.8295-0.063c0.2169-0.042,0.4305-0.1122,0.6405-0.21v-1.743
				c-0.378,0.2382-0.7701,0.357-1.176,0.357c-0.504,0-0.8892-0.1572-1.155-0.4722c-0.2241-0.2861-0.336-0.7297-0.336-1.3308v-5.967
				h2.604v-1.617h-2.604v-3.024h-1.785v3.024h-1.869v1.617h1.869v6.3929c0,0.5132,0.0699,0.9479,0.21,1.3043
				c0.1398,0.3563,0.3498,0.67,0.63,0.9407c0.252,0.2425,0.5634,0.4351,0.9345,0.5775
				C27.3312,181.4685,27.7338,181.54,28.1679,181.54L28.1679,181.54z"/>
			<path class="st0" d="M35.7237,181.54c1.05,0,1.995-0.252,2.835-0.756s1.4943-1.1898,1.9635-2.058
				c0.4689-0.8679,0.7035-1.827,0.7035-2.877s-0.2346-2.0088-0.7035-2.877c-0.4692-0.8679-1.1235-1.554-1.9635-2.058
				s-1.785-0.756-2.835-0.756c-1.05,0-1.995,0.252-2.835,0.756s-1.4946,1.1901-1.9635,2.058
				c-0.4692,0.8682-0.7035,1.827-0.7035,2.877s0.2343,2.0091,0.7035,2.877c0.4689,0.8682,1.1235,1.554,1.9635,2.058
				S34.6737,181.54,35.7237,181.54L35.7237,181.54z M35.7237,179.923c-0.6582,0-1.2741-0.1644-1.848-0.4935
				c-0.5742-0.3288-1.0326-0.8013-1.3755-1.4175c-0.3432-0.6159-0.5145-1.3368-0.5145-2.163c0-0.8259,0.1713-1.5468,0.5145-2.163
				c0.3429-0.6159,0.8013-1.0884,1.3755-1.4175c0.5739-0.3288,1.1898-0.4935,1.848-0.4935c0.6579,0,1.2705,0.1647,1.8375,0.4935
				c0.567,0.3291,1.0218,0.8016,1.365,1.4175c0.3429,0.6162,0.5145,1.3371,0.5145,2.163c0,0.8262-0.1716,1.5471-0.5145,2.163
				c-0.3432,0.6162-0.798,1.0887-1.365,1.4175C36.9942,179.7586,36.3816,179.923,35.7237,179.923L35.7237,179.923z"/>
			<path class="st0" d="M50.9064,181.204h1.806l4.368-10.71h-1.869l-3.36,8.61h-0.042l-3.318-8.61h-1.911L50.9064,181.204z"/>
			<path class="st0" d="M59.1446,168.541c0.3638,0,0.6683-0.126,0.9135-0.378c0.2447-0.252,0.3675-0.5529,0.3675-0.903
				c0-0.3498-0.126-0.6474-0.378-0.8925c-0.252-0.2448-0.5533-0.3675-0.903-0.3675c-0.3502,0-0.651,0.1227-0.903,0.3675
				c-0.252,0.2451-0.378,0.5427-0.378,0.8925c0,0.3501,0.126,0.651,0.378,0.903C58.4936,168.415,58.7944,168.541,59.1446,168.541
				L59.1446,168.541z M58.2626,181.204h1.764v-10.71h-1.764V181.204z"/>
			<path class="st0" d="M66.862,181.54c0.8259,0,1.5609-0.1857,2.205-0.5565c0.6438-0.3708,1.134-0.8223,1.47-1.3545h0.084v1.575
				h1.701v-15.036h-1.785v4.431l0.084,1.491h-0.084c-0.336-0.546-0.8262-1.0044-1.47-1.3755
				c-0.6441-0.3708-1.3791-0.5565-2.205-0.5565c-0.9522,0-1.8165,0.2451-2.5935,0.735c-0.777,0.4902-1.3896,1.1691-1.8375,2.037
				c-0.4482,0.8682-0.672,1.8411-0.672,2.919c0,1.092,0.2238,2.0685,0.672,2.9295c0.4479,0.861,1.0605,1.5366,1.8375,2.0265
				C65.0455,181.2949,65.9098,181.54,66.862,181.54L66.862,181.54z M67.072,179.923c-0.6162,0-1.197-0.168-1.743-0.504
				c-0.546-0.336-0.9837-0.8154-1.3125-1.4385c-0.3291-0.6228-0.4935-1.3335-0.4935-2.1315s0.1644-1.5084,0.4935-2.1315
				c0.3288-0.6228,0.7665-1.1025,1.3125-1.4385c0.546-0.336,1.1268-0.504,1.743-0.504c0.63,0,1.2144,0.168,1.7535,0.504
				c0.5388,0.336,0.9729,0.8121,1.302,1.428c0.3288,0.6162,0.4935,1.3302,0.4935,2.142c0,0.8121-0.1647,1.5261-0.4935,2.142
				c-0.3291,0.6162-0.7632,1.092-1.302,1.428C68.2864,179.755,67.702,179.923,67.072,179.923L67.072,179.923z"/>
			<path class="st0" d="M79.3484,181.54c1.1199,0,2.0754-0.252,2.8665-0.756c0.7908-0.504,1.4175-1.1898,1.8795-2.058l-1.512-0.735
				c-0.7422,1.2882-1.7991,1.932-3.171,1.932c-0.588,0-1.1517-0.1398-1.6905-0.42c-0.5391-0.2799-0.9837-0.6999-1.3335-1.26
				c-0.3501-0.5598-0.546-1.2459-0.588-2.058h8.463c0.042-0.1539,0.063-0.336,0.063-0.546c0-1.0638-0.2067-2.0088-0.6195-2.835
				c-0.4131-0.8259-1.0047-1.4733-1.7745-1.9425c-0.7701-0.4689-1.68-0.7035-2.73-0.7035c-1.0362,0-1.9461,0.2592-2.73,0.777
				c-0.7842,0.5181-1.3896,1.2111-1.8165,2.079c-0.4272,0.8682-0.6405,1.8201-0.6405,2.856c0,1.0782,0.2274,2.0475,0.6825,2.9085
				c0.4548,0.861,1.0884,1.5366,1.9005,2.0265C77.4092,181.2949,78.3263,181.54,79.3484,181.54L79.3484,181.54z M75.9044,174.715
				c0.1818-0.882,0.5634-1.5924,1.1445-2.1315c0.5808-0.5388,1.2915-0.8085,2.1315-0.8085c0.7278,0,1.3335,0.1542,1.8165,0.462
				c0.483,0.3081,0.8364,0.6861,1.0605,1.134c0.2238,0.4482,0.3498,0.8961,0.378,1.344H75.9044z"/>
			<path class="st0" d="M90.9401,181.54c1.05,0,1.995-0.252,2.835-0.756c0.84-0.504,1.4943-1.1898,1.9635-2.058
				c0.4689-0.8679,0.7035-1.827,0.7035-2.877s-0.2346-2.0088-0.7035-2.877c-0.4692-0.8679-1.1235-1.554-1.9635-2.058
				c-0.84-0.504-1.785-0.756-2.835-0.756c-1.05,0-1.995,0.252-2.835,0.756c-0.84,0.504-1.4946,1.1901-1.9635,2.058
				c-0.4692,0.8682-0.7035,1.827-0.7035,2.877s0.2343,2.0091,0.7035,2.877c0.4689,0.8682,1.1235,1.554,1.9635,2.058
				C88.9451,181.288,89.8901,181.54,90.9401,181.54L90.9401,181.54z M90.9401,179.923c-0.6582,0-1.2741-0.1644-1.8479-0.4935
				c-0.5743-0.3288-1.0327-0.8013-1.3756-1.4175c-0.3432-0.6159-0.5145-1.3368-0.5145-2.163c0-0.8259,0.1713-1.5468,0.5145-2.163
				c0.3429-0.6159,0.8013-1.0884,1.3756-1.4175c0.5738-0.3288,1.1897-0.4935,1.8479-0.4935c0.6579,0,1.2705,0.1647,1.8375,0.4935
				c0.567,0.3291,1.0218,0.8016,1.365,1.4175c0.3429,0.6162,0.5145,1.3371,0.5145,2.163c0,0.8262-0.1716,1.5471-0.5145,2.163
				c-0.3432,0.6162-0.798,1.0887-1.365,1.4175C92.2106,179.7586,91.598,179.923,90.9401,179.923L90.9401,179.923z"/>
			<path class="st0" d="M107.8239,181.54c1.1478,0,2.1243-0.273,2.9295-0.819c0.8049-0.546,1.3893-1.26,1.7535-2.142l-1.596-0.672
				c-0.2661,0.6441-0.672,1.1412-1.218,1.491c-0.546,0.3501-1.197,0.525-1.953,0.525c-0.63,0-1.218-0.1713-1.764-0.5145
				c-0.546-0.3429-0.9837-0.8223-1.3125-1.4385c-0.3291-0.6159-0.4935-1.323-0.4935-2.121s0.1644-1.5048,0.4935-2.121
				c0.3288-0.6159,0.7665-1.0953,1.3125-1.4385c0.546-0.3429,1.134-0.5145,1.764-0.5145c0.7419,0,1.3755,0.1716,1.9005,0.5145
				c0.525,0.3432,0.9204,0.8436,1.1865,1.5015l1.617-0.672c-0.336-0.8958-0.8997-1.6134-1.6905-2.1525
				c-0.7911-0.5388-1.7676-0.8085-2.9295-0.8085c-1.0362,0-1.9671,0.2451-2.793,0.735c-0.8262,0.4902-1.47,1.1691-1.932,2.037
				c-0.462,0.8682-0.693,1.8411-0.693,2.919c0,1.0782,0.231,2.0475,0.693,2.9085c0.462,0.861,1.1058,1.5402,1.932,2.037
				C105.8568,181.2913,106.7877,181.54,107.8239,181.54L107.8239,181.54z"/>
			<path class="st0" d="M117.5614,181.54c0.7698,0,1.4628-0.1821,2.079-0.546c0.6159-0.3639,1.0779-0.8049,1.386-1.323h0.084v1.533
				h1.701v-6.783c0-1.3158-0.4167-2.3553-1.2495-3.1185c-0.8331-0.7629-1.9776-1.1445-3.4335-1.1445
				c-0.8961,0-1.7115,0.1821-2.4465,0.546c-0.735,0.3642-1.3125,0.8682-1.7325,1.512l1.344,1.008
				c0.294-0.462,0.693-0.8223,1.197-1.0815c0.504-0.2589,1.0569-0.3885,1.659-0.3885c0.8538,0,1.5609,0.2415,2.121,0.7245
				c0.5598,0.483,0.84,1.1235,0.84,1.9215v0.651c-0.294-0.1818-0.7176-0.3429-1.2705-0.483c-0.5532-0.1398-1.1517-0.21-1.7955-0.21
				c-1.302,0-2.3802,0.3186-3.234,0.9555c-0.8541,0.6372-1.281,1.5225-1.281,2.6565c0,0.6861,0.168,1.2987,0.504,1.8375
				c0.336,0.5391,0.8118,0.9627,1.428,1.2705C116.0773,181.3858,116.7772,181.54,117.5614,181.54L117.5614,181.54z
				 M117.7294,179.965c-0.6861,0-1.2531-0.1818-1.701-0.546c-0.4482-0.3639-0.672-0.84-0.672-1.428
				c0-0.6438,0.2484-1.1688,0.7455-1.575c0.4968-0.4059,1.2354-0.609,2.2155-0.609c0.546,0,1.0638,0.0702,1.554,0.21
				c0.4899,0.1401,0.903,0.3222,1.239,0.546c0,0.6162-0.1542,1.1832-0.462,1.701c-0.3081,0.5181-0.7212,0.9312-1.239,1.239
				C118.8913,179.8111,118.3312,179.965,117.7294,179.965L117.7294,179.965z"/>
			<path class="st0" d="M124.9511,181.204h1.785v-15.036h-1.785V181.204z"/>
			<path class="st0" d="M128.9662,181.204h1.7851v-15.036h-1.7851V181.204z"/>
			<path class="st0" d="M134.1889,181.204c0.3639,0,0.6753-0.1234,0.9345-0.3701c0.2589-0.2468,0.3885-0.55,0.3885-0.9102
				c0-0.3469-0.1296-0.6438-0.3885-0.8906c-0.2592-0.2467-0.5706-0.3701-0.9345-0.3701c-0.378,0-0.6966,0.1234-0.9555,0.3701
				c-0.2592,0.2468-0.3885,0.5437-0.3885,0.8906c0,0.3602,0.1293,0.6634,0.3885,0.9102
				C133.4923,181.0806,133.8109,181.204,134.1889,181.204L134.1889,181.204z"/>
		</g>
	</g>
</g>
</svg>
