<?xml version="1.0" encoding="utf-8"?>
<!-- Generator: Adobe Illustrator 22.0.1, SVG Export Plug-In . SVG Version: 6.00 Build 0)  -->
<svg version="1.1" xmlns="http://www.w3.org/2000/svg" xmlns:xlink="http://www.w3.org/1999/xlink" x="0px" y="0px"
	 viewBox="0 0 300 600" enable-background="new 0 0 300 600" xml:space="preserve">
<g id="logo">
	<g>
		<path fill="#5F6368" d="M190.7,54.4V39h4.7c2.3,0,4.2,0.7,5.7,2.1c1.4,1.4,2.1,3.3,2.1,5.6c0,2.3-0.7,4.2-2.1,5.6
			c-1.4,1.4-3.3,2.1-5.7,2.1H190.7z M192.7,40.9v11.6h2.7c1.8,0,3.2-0.5,4.2-1.5c1-1,1.5-2.4,1.5-4.3c0-1.8-0.5-3.2-1.5-4.3
			c-1-1-2.4-1.5-4.2-1.5H192.7z"/>
		<path fill="#5F6368" d="M214.5,54.4h-1.9v-1.5h-0.1c-0.3,0.5-0.8,0.9-1.4,1.3c-0.6,0.3-1.3,0.5-1.9,0.5c-1.3,0-2.3-0.4-3-1.1
			c-0.7-0.7-1-1.8-1-3.1v-6.6h2v6.5c0,1.7,0.9,2.6,2.6,2.6c0.8,0,1.4-0.3,2-1c0.5-0.6,0.8-1.4,0.8-2.3v-5.8h2V54.4z"/>
		<path fill="#5F6368" d="M216.2,49.1c0-1.6,0.5-3,1.5-4c1-1.1,2.3-1.6,3.9-1.6c1.6,0,2.9,0.5,3.9,1.6c1,1.1,1.5,2.4,1.5,4
			c0,1.6-0.5,3-1.5,4c-1,1.1-2.3,1.6-3.9,1.6c-1.6,0-2.9-0.5-3.9-1.6C216.7,52.1,216.2,50.7,216.2,49.1z M218.1,49.1
			c0,1.1,0.3,2,1,2.8c0.7,0.7,1.5,1.1,2.4,1.1c1,0,1.8-0.4,2.4-1.1c0.7-0.7,1-1.6,1-2.8c0-1.1-0.3-2-1-2.7c-0.7-0.7-1.5-1.1-2.4-1.1
			c-1,0-1.8,0.4-2.4,1.1C218.5,47.1,218.1,48,218.1,49.1z"/>
	</g>
	<g id="Art">
		<g>
			<path id="Teardrop" fill="#1A73E8" d="M102.4,46.9c-0.4,7.9-7,14.1-15,14.1c-8.3,0-15-6.7-15-15s6.7-15,15-15l0,0l0,0H100
				c1.3,0,2.4,1.1,2.4,2.4V46.9z"/>
		</g>
		<path id="Highlight" opacity="0.2" fill="#FFFFFF" enable-background="new    " d="M100,31H87.4l0,0c-8.3,0-15,6.7-15,15
			c0,0,0,0,0,0c0-8.2,6.7-14.8,15-14.8l0,0H100c1.3,0,2.4,1.1,2.4,2.4v-0.2C102.4,32.1,101.3,31,100,31z"/>
		<g id="Shadow">
			<g>
				<path fill="#1A237E" fill-opacity="0.2" d="M102.4,46.9v-0.3c-0.4,7.9-7,14.3-15,14.3c-8.2,0-14.9-6.7-15-15c0,0,0,0.1,0,0.2
					c0,8.3,6.7,15,15,15c8.1,0,14.6-6.2,15-14.3"/>
			</g>
		</g>
		<path id="Camera_Body_Shadow" fill="#185ABC" d="M93.5,48.9c0,1.4-1.1,2.4-2.6,2.4h-8.5c-1.4,0-2.6-0.9-2.6-2.4v0.8
			c0,1.4,1.1,2.6,2.6,2.6H91c1.4,0,2.6-1.1,2.6-2.6L93.5,48.9L93.5,48.9z"/>
		<path id="Camera_Lens_Shadow" fill="#185ABC" d="M97.6,49.6c0,0.4-0.6,0.6-0.9,0.3l-3.2-3.2l0,0.9l3.2,3.2
			c0.3,0.3,0.9,0.1,0.9-0.3V49.6z"/>
		<g id="Camera">
			<path id="lens" fill="#F1F3F4" d="M96.8,41.4l-3.2,3.2v2l3.2,3.2c0.3,0.3,0.9,0.1,0.9-0.3l0-7.8C97.6,41.3,97.1,41.1,96.8,41.4z"
				/>
			<path id="body" fill="#FFFFFF" d="M91,39.9h-8.5c-1.4,0-2.6,1.1-2.6,2.6v6.5c0,1.4,1.1,2.6,2.6,2.6l8.5,0c1.4,0,2.6-1.1,2.6-2.6
				v-6.5C93.5,41,92.4,39.9,91,39.9z"/>
			<g id="inner_shadow__x28_clipped_to_lens_x29_">
				<polygon id="inner_shadow" fill="#BDC1C6" points="93.5,46.9 93.5,46.7 94.2,47.4 94.2,44 93.5,44.6 				"/>
			</g>
		</g>
	</g>
	<path fill="#5F6368" d="M122.9,54.7c-4.8,0-8.9-3.9-8.9-8.7c0-4.8,4-8.7,8.9-8.7c2.7,0,4.6,1,6,2.4l-1.7,1.7c-1-1-2.4-1.7-4.3-1.7
		c-3.5,0-6.3,2.8-6.3,6.3c0,3.5,2.7,6.3,6.3,6.3c2.3,0,3.6-0.9,4.4-1.7c0.7-0.7,1.1-1.7,1.3-3h-5.7v-2.4h8c0.1,0.4,0.1,0.9,0.1,1.5
		c0,1.8-0.5,4-2.1,5.6C127.5,53.9,125.5,54.7,122.9,54.7z"/>
	<path fill="#5F6368" d="M143.5,49.1c0,3.2-2.5,5.6-5.5,5.6s-5.5-2.4-5.5-5.6c0-3.2,2.5-5.6,5.5-5.6S143.5,45.9,143.5,49.1z
		 M141.1,49.1c0-2-1.4-3.4-3.1-3.4s-3.1,1.4-3.1,3.4c0,2,1.4,3.4,3.1,3.4S141.1,51.1,141.1,49.1z"/>
	<path fill="#5F6368" d="M156,49.1c0,3.2-2.5,5.6-5.5,5.6c-3.1,0-5.5-2.4-5.5-5.6c0-3.2,2.5-5.6,5.5-5.6
		C153.5,43.5,156,45.9,156,49.1z M153.5,49.1c0-2-1.4-3.4-3.1-3.4c-1.7,0-3.1,1.4-3.1,3.4c0,2,1.4,3.4,3.1,3.4
		C152.1,52.5,153.5,51.1,153.5,49.1z"/>
	<path fill="#5F6368" d="M168.1,43.8v10.1c0,4.1-2.5,5.8-5.3,5.8c-2.7,0-4.4-1.8-5-3.3l2.2-0.9c0.4,0.9,1.3,2,2.8,2
		c1.9,0,3-1.1,3-3.3v-0.8h-0.1c-0.6,0.7-1.6,1.3-3,1.3c-2.8,0-5.4-2.4-5.4-5.6c0-3.2,2.6-5.6,5.4-5.6c1.3,0,2.4,0.6,3,1.3h0.1v-0.9
		H168.1z M165.9,49.1c0-2-1.3-3.4-3-3.4c-1.7,0-3.1,1.4-3.1,3.4c0,2,1.4,3.4,3.1,3.4C164.6,52.5,165.9,51.1,165.9,49.1z"/>
	<path fill="#5F6368" d="M172.4,37.9v16.5h-2.5V37.9H172.4z"/>
	<path fill="#5F6368" d="M182.1,51l1.9,1.3c-0.6,0.9-2.1,2.5-4.7,2.5c-3.2,0-5.5-2.5-5.5-5.6c0-3.3,2.3-5.6,5.2-5.6
		c2.9,0,4.3,2.3,4.8,3.6l0.3,0.6l-7.5,3.1c0.6,1.1,1.5,1.7,2.7,1.7S181.5,51.9,182.1,51z M176.2,48.9l5-2.1
		c-0.3-0.7-1.1-1.2-2.1-1.2C177.9,45.7,176.2,46.8,176.2,48.9z"/>
</g>
</svg>
