<?xml version="1.0" encoding="utf-8"?>
<!-- Generator: Adobe Illustrator 22.0.1, SVG Export Plug-In . SVG Version: 6.00 Build 0)  -->
<svg version="1.1" xmlns="http://www.w3.org/2000/svg" xmlns:xlink="http://www.w3.org/1999/xlink" x="0px" y="0px"
	 viewBox="0 0 970 250" enable-background="new 0 0 970 250" xml:space="preserve">
<g id="logo">
	<g>
		<path fill="#5F6368" d="M216.3,92.4v-20h6.1c3.1,0,5.5,0.9,7.4,2.8c1.9,1.8,2.8,4.3,2.8,7.2c0,3-0.9,5.4-2.8,7.3
			c-1.9,1.8-4.3,2.8-7.4,2.8H216.3z M218.9,74.8v15.1h3.6c2.3,0,4.2-0.7,5.5-2c1.3-1.3,2-3.2,2-5.5c0-2.3-0.7-4.2-2-5.5
			c-1.3-1.3-3.2-2-5.5-2H218.9z"/>
		<path fill="#5F6368" d="M247.2,92.4h-2.5v-1.9h-0.1c-0.4,0.7-1,1.2-1.8,1.7c-0.8,0.4-1.7,0.7-2.5,0.7c-1.7,0-3-0.5-3.9-1.4
			c-0.9-1-1.4-2.3-1.4-4.1v-8.6h2.6v8.4c0.1,2.2,1.2,3.4,3.4,3.4c1,0,1.9-0.4,2.6-1.2c0.7-0.8,1-1.8,1-3v-7.6h2.6V92.4z"/>
		<path fill="#5F6368" d="M249.4,85.5c0-2.1,0.7-3.8,2-5.2c1.3-1.4,3-2.1,5.1-2.1c2,0,3.7,0.7,5,2.1c1.3,1.4,2,3.1,2,5.2
			c0,2.1-0.7,3.9-2,5.2c-1.3,1.4-3,2.1-5,2.1c-2,0-3.7-0.7-5.1-2.1C250.1,89.4,249.4,87.6,249.4,85.5z M252,85.5
			c0,1.5,0.4,2.7,1.3,3.6c0.9,0.9,1.9,1.4,3.2,1.4s2.3-0.5,3.2-1.4c0.9-0.9,1.3-2.1,1.3-3.6c0-1.5-0.4-2.6-1.3-3.6
			c-0.9-0.9-1.9-1.4-3.2-1.4c-1.2,0-2.3,0.5-3.2,1.4C252.4,82.9,252,84.1,252,85.5z"/>
	</g>
	<g id="Art">
		<g>
			<path id="Teardrop" fill="#1A73E8" d="M101.4,82.6c-0.5,10.3-9.1,18.4-19.5,18.4c-10.8,0-19.5-8.7-19.5-19.5S71.1,62,81.9,62l0,0
				l0,0h16.4c1.7,0,3.1,1.4,3.1,3.1V82.6z"/>
		</g>
		<path id="Highlight" opacity="0.2" fill="#FFFFFF" enable-background="new    " d="M98.3,62H81.9l0,0c-10.8,0-19.5,8.7-19.5,19.5
			c0,0,0,0,0,0c0.1-10.7,8.8-19.3,19.5-19.3l0,0h16.4c1.7,0,3.1,1.4,3.1,3.1v-0.2C101.4,63.4,100,62,98.3,62z"/>
		<g id="Shadow">
			<g>
				<path fill="#1A237E" fill-opacity="0.2" d="M101.4,82.6v-0.4c-0.5,10.3-9.1,18.6-19.5,18.6c-10.7,0-19.4-8.8-19.5-19.5
					c0,0,0,0.2,0,0.2c0,10.8,8.7,19.5,19.5,19.5c10.6,0,19-8.1,19.5-18.6"/>
			</g>
		</g>
		<path id="Camera_Body_Shadow" fill="#185ABC" d="M89.9,85.3c0,1.9-1.5,3.1-3.3,3.1H75.5c-1.9,0-3.3-1.2-3.3-3.1v1.1
			c0,1.9,1.5,3.3,3.3,3.3h11.1c1.9,0,3.3-1.4,3.3-3.3L89.9,85.3L89.9,85.3z"/>
		<path id="Camera_Lens_Shadow" fill="#185ABC" d="M95.2,86.2c0,0.5-0.7,0.8-1.1,0.4l-4.2-4.2l0,1.1l4.2,4.2
			c0.4,0.4,1.1,0.2,1.1-0.4V86.2z"/>
		<g id="Camera">
			<path id="lens" fill="#F1F3F4" d="M94.1,75.5l-4.2,4.2l0,2.7l4.2,4.2c0.4,0.4,1.1,0.1,1.1-0.4l0-10.2
				C95.2,75.4,94.5,75.1,94.1,75.5z"/>
			<path id="body" fill="#FFFFFF" d="M86.6,73.5H75.5c-1.9,0-3.3,1.5-3.3,3.3v8.4c0,1.8,1.5,3.3,3.3,3.3l11.1,0
				c1.9,0,3.3-1.5,3.3-3.3v-8.4C89.9,75,88.4,73.5,86.6,73.5z"/>
			<g id="inner_shadow__x28_clipped_to_lens_x29_">
				<polygon id="inner_shadow" fill="#BDC1C6" points="89.9,82.7 89.9,82.4 90.8,83.3 90.8,78.8 89.9,79.7 				"/>
			</g>
		</g>
	</g>
	<path fill="#5F6368" d="M128.1,92.8c-6.3,0-11.5-5.1-11.5-11.3c0-6.2,5.3-11.3,11.5-11.3c3.5,0,5.9,1.4,7.8,3.1l-2.2,2.2
		c-1.3-1.2-3.1-2.2-5.6-2.2c-4.6,0-8.2,3.7-8.2,8.2c0,4.6,3.6,8.2,8.2,8.2c3,0,4.7-1.2,5.7-2.3c0.9-0.9,1.5-2.2,1.7-3.9h-7.4v-3.1
		h10.5c0.1,0.6,0.2,1.2,0.2,1.9c0,2.3-0.6,5.2-2.7,7.2C134.1,91.7,131.5,92.8,128.1,92.8z"/>
	<path fill="#5F6368" d="M154.9,85.5c0,4.2-3.2,7.3-7.2,7.3c-4,0-7.2-3.1-7.2-7.3c0-4.2,3.2-7.3,7.2-7.3
		C151.7,78.3,154.9,81.3,154.9,85.5z M151.8,85.5c0-2.6-1.9-4.4-4.1-4.4c-2.2,0-4.1,1.8-4.1,4.4c0,2.6,1.9,4.4,4.1,4.4
		C149.9,90,151.8,88.1,151.8,85.5z"/>
	<path fill="#5F6368" d="M171.1,85.5c0,4.2-3.2,7.3-7.2,7.3c-4,0-7.2-3.1-7.2-7.3c0-4.2,3.2-7.3,7.2-7.3
		C167.9,78.3,171.1,81.3,171.1,85.5z M167.9,85.5c0-2.6-1.9-4.4-4.1-4.4c-2.2,0-4.1,1.8-4.1,4.4c0,2.6,1.9,4.4,4.1,4.4
		C166.1,90,167.9,88.1,167.9,85.5z"/>
	<path fill="#5F6368" d="M186.9,78.7v13.1c0,5.4-3.2,7.6-7,7.6c-3.5,0-5.7-2.4-6.5-4.3l2.8-1.2c0.5,1.2,1.7,2.6,3.7,2.6
		c2.4,0,3.9-1.5,3.9-4.3v-1h-0.1c-0.7,0.9-2.1,1.7-3.9,1.7c-3.7,0-7-3.2-7-7.3c0-4.1,3.4-7.3,7-7.3c1.7,0,3.1,0.8,3.9,1.6h0.1v-1.2
		H186.9z M184,85.6c0-2.6-1.7-4.4-3.9-4.4c-2.2,0-4.1,1.9-4.1,4.4c0,2.5,1.9,4.4,4.1,4.4C182.3,90,184,88.1,184,85.6z"/>
	<path fill="#5F6368" d="M192.5,71v21.4h-3.2V71H192.5z"/>
	<path fill="#5F6368" d="M205.1,87.9l2.5,1.7c-0.8,1.2-2.7,3.2-6.1,3.2c-4.2,0-7.2-3.2-7.2-7.3c0-4.3,3-7.3,6.8-7.3
		c3.8,0,5.7,3,6.3,4.6l0.3,0.8l-9.8,4c0.7,1.5,1.9,2.2,3.5,2.2S204.3,89.2,205.1,87.9z M197.5,85.3l6.5-2.7
		c-0.4-0.9-1.4-1.5-2.7-1.5C199.7,81.1,197.4,82.5,197.5,85.3z"/>
</g>
</svg>
